<?xml version="1.0" encoding="utf-8" standalone="no"?>
<!DOCTYPE svg PUBLIC "-//W3C//DTD SVG 1.1//EN"
  "http://www.w3.org/Graphics/SVG/1.1/DTD/svg11.dtd">
<svg xmlns:xlink="http://www.w3.org/1999/xlink" width="460.8pt" height="345.6pt" viewBox="0 0 460.8 345.6" xmlns="http://www.w3.org/2000/svg" version="1.1">
 <metadata>
  <rdf:RDF xmlns:dc="http://purl.org/dc/elements/1.1/" xmlns:cc="http://creativecommons.org/ns#" xmlns:rdf="http://www.w3.org/1999/02/22-rdf-syntax-ns#">
   <cc:Work>
    <dc:type rdf:resource="http://purl.org/dc/dcmitype/StillImage"/>
    <dc:date>2025-08-07T13:36:04.930543</dc:date>
    <dc:format>image/svg+xml</dc:format>
    <dc:creator>
     <cc:Agent>
      <dc:title>Matplotlib v3.5.1, https://matplotlib.org/</dc:title>
     </cc:Agent>
    </dc:creator>
   </cc:Work>
  </rdf:RDF>
 </metadata>
 <defs>
  <style type="text/css">*{stroke-linejoin: round; stroke-linecap: butt}</style>
 </defs>
 <g id="figure_1">
  <g id="patch_1">
   <path d="M 0 345.6 
L 460.8 345.6 
L 460.8 0 
L 0 0 
L 0 345.6 
z
" style="fill: none"/>
  </g>
  <g id="axes_1">
   <g id="patch_2">
    <path d="M 57.6 307.584 
L 414.72 307.584 
L 414.72 41.472 
L 57.6 41.472 
L 57.6 307.584 
z
" style="fill: none"/>
   </g>
   <g id="matplotlib.axis_1">
    <g id="xtick_1">
     <g id="line2d_1">
      <defs>
       <path id="mb4ec0ac684" d="M 0 0 
L 0 5 
" style="stroke: #262626; stroke-width: 0.75"/>
      </defs>
      <g>
       <use xlink:href="#mb4ec0ac684" x="57.6" y="307.584" style="fill: #262626; stroke: #262626; stroke-width: 0.75"/>
      </g>
     </g>
     <g id="text_1">
      <text style="fill: #262626; font: 14.5px 'monospace'; text-anchor: middle" x="57.6" y="328.0965" transform="rotate(-0, 57.6, 328.0965)">0</text>
     </g>
    </g>
    <g id="xtick_2">
     <g id="line2d_2">
      <g>
       <use xlink:href="#mb4ec0ac684" x="132" y="307.584" style="fill: #262626; stroke: #262626; stroke-width: 0.75"/>
      </g>
     </g>
     <g id="text_2">
      <text style="fill: #262626; font: 14.5px 'monospace'; text-anchor: middle" x="132" y="328.0965" transform="rotate(-0, 132, 328.0965)">5</text>
     </g>
    </g>
    <g id="xtick_3">
     <g id="line2d_3">
      <g>
       <use xlink:href="#mb4ec0ac684" x="206.4" y="307.584" style="fill: #262626; stroke: #262626; stroke-width: 0.75"/>
      </g>
     </g>
     <g id="text_3">
      <text style="fill: #262626; font: 14.5px 'monospace'; text-anchor: middle" x="206.4" y="328.0965" transform="rotate(-0, 206.4, 328.0965)">10</text>
     </g>
    </g>
    <g id="xtick_4">
     <g id="line2d_4">
      <g>
       <use xlink:href="#mb4ec0ac684" x="280.8" y="307.584" style="fill: #262626; stroke: #262626; stroke-width: 0.75"/>
      </g>
     </g>
     <g id="text_4">
      <text style="fill: #262626; font: 14.5px 'monospace'; text-anchor: middle" x="280.8" y="328.0965" transform="rotate(-0, 280.8, 328.0965)">15</text>
     </g>
    </g>
    <g id="xtick_5">
     <g id="line2d_5">
      <g>
       <use xlink:href="#mb4ec0ac684" x="355.2" y="307.584" style="fill: #262626; stroke: #262626; stroke-width: 0.75"/>
      </g>
     </g>
     <g id="text_5">
      <text style="fill: #262626; font: 14.5px 'monospace'; text-anchor: middle" x="355.2" y="328.0965" transform="rotate(-0, 355.2, 328.0965)">20</text>
     </g>
    </g>
    <g id="text_6">
     <text style="font: 500 15px &quot;Suisse Int&apos;l&quot;; text-anchor: middle" x="236.16" y="351.509" transform="rotate(-0, 236.16, 351.509)">Mean squared error</text>
    </g>
   </g>
   <g id="matplotlib.axis_2">
    <g id="ytick_1">
     <g id="line2d_6">
      <defs>
       <path id="m417d7bbcfd" d="M 0 0 
L -5 0 
" style="stroke: #262626; stroke-width: 0.75"/>
      </defs>
      <g>
       <use xlink:href="#m417d7bbcfd" x="57.6" y="307.584" style="fill: #262626; stroke: #262626; stroke-width: 0.75"/>
      </g>
     </g>
     <g id="text_7">
      <text style="fill: #262626; font: 14.5px 'monospace'; text-anchor: end" x="47.6" y="312.84025" transform="rotate(-0, 47.6, 312.84025)">0.00</text>
     </g>
    </g>
    <g id="ytick_2">
     <g id="line2d_7">
      <g>
       <use xlink:href="#m417d7bbcfd" x="57.6" y="267.015301" style="fill: #262626; stroke: #262626; stroke-width: 0.75"/>
      </g>
     </g>
     <g id="text_8">
      <text style="fill: #262626; font: 14.5px 'monospace'; text-anchor: end" x="47.6" y="272.271551" transform="rotate(-0, 47.6, 272.271551)">0.02</text>
     </g>
    </g>
    <g id="ytick_3">
     <g id="line2d_8">
      <g>
       <use xlink:href="#m417d7bbcfd" x="57.6" y="226.446602" style="fill: #262626; stroke: #262626; stroke-width: 0.75"/>
      </g>
     </g>
     <g id="text_9">
      <text style="fill: #262626; font: 14.5px 'monospace'; text-anchor: end" x="47.6" y="231.702852" transform="rotate(-0, 47.6, 231.702852)">0.04</text>
     </g>
    </g>
    <g id="ytick_4">
     <g id="line2d_9">
      <g>
       <use xlink:href="#m417d7bbcfd" x="57.6" y="185.877902" style="fill: #262626; stroke: #262626; stroke-width: 0.75"/>
      </g>
     </g>
     <g id="text_10">
      <text style="fill: #262626; font: 14.5px 'monospace'; text-anchor: end" x="47.6" y="191.134152" transform="rotate(-0, 47.6, 191.134152)">0.06</text>
     </g>
    </g>
    <g id="ytick_5">
     <g id="line2d_10">
      <g>
       <use xlink:href="#m417d7bbcfd" x="57.6" y="145.309203" style="fill: #262626; stroke: #262626; stroke-width: 0.75"/>
      </g>
     </g>
     <g id="text_11">
      <text style="fill: #262626; font: 14.5px 'monospace'; text-anchor: end" x="47.6" y="150.565453" transform="rotate(-0, 47.6, 150.565453)">0.08</text>
     </g>
    </g>
    <g id="ytick_6">
     <g id="line2d_11">
      <g>
       <use xlink:href="#m417d7bbcfd" x="57.6" y="104.740504" style="fill: #262626; stroke: #262626; stroke-width: 0.75"/>
      </g>
     </g>
     <g id="text_12">
      <text style="fill: #262626; font: 14.5px 'monospace'; text-anchor: end" x="47.6" y="109.996754" transform="rotate(-0, 47.6, 109.996754)">0.10</text>
     </g>
    </g>
    <g id="ytick_7">
     <g id="line2d_12">
      <g>
       <use xlink:href="#m417d7bbcfd" x="57.6" y="64.171805" style="fill: #262626; stroke: #262626; stroke-width: 0.75"/>
      </g>
     </g>
     <g id="text_13">
      <text style="fill: #262626; font: 14.5px 'monospace'; text-anchor: end" x="47.6" y="69.428055" transform="rotate(-0, 47.6, 69.428055)">0.12</text>
     </g>
    </g>
    <g id="text_14">
     <text style="font: 500 15px &quot;Suisse Int&apos;l&quot;; text-anchor: middle" x="-2.489375" y="174.528" transform="rotate(-90, -2.489375, 174.528)">Density</text>
    </g>
   </g>
   <g id="line2d_13">
    <path d="M 33.501592 307.479259 
L 41.7211 307.241922 
L 47.200772 306.879832 
L 52.680443 306.208606 
L 55.420279 305.698588 
L 58.160115 305.032004 
L 60.899951 304.172668 
L 63.639787 303.079772 
L 66.379622 301.708334 
L 69.119458 300.009933 
L 71.859294 297.93375 
L 74.59913 295.427897 
L 77.338966 292.440962 
L 80.078802 288.923723 
L 82.818637 284.830924 
L 85.558473 280.123022 
L 88.298309 274.767808 
L 91.038145 268.741819 
L 93.777981 262.031492 
L 96.517817 254.634047 
L 99.257652 246.558095 
L 101.997488 237.824032 
L 104.737324 228.464272 
L 107.47716 218.523372 
L 110.216996 208.058099 
L 115.696667 185.842564 
L 123.916175 150.698991 
L 129.395846 127.386105 
L 134.875518 105.383942 
L 137.615354 95.210533 
L 140.35519 85.759485 
L 143.095026 77.146704 
L 145.834861 69.474386 
L 148.574697 62.828328 
L 151.314533 57.276076 
L 154.054369 52.865991 
L 156.794205 49.627223 
L 159.534041 47.570465 
L 162.273876 46.689293 
L 165.013712 46.961853 
L 167.753548 48.352639 
L 170.493384 50.814186 
L 173.23322 54.288527 
L 175.973056 58.708375 
L 178.712891 63.998069 
L 181.452727 70.074392 
L 184.192563 76.847408 
L 186.932399 84.221461 
L 189.672235 92.096464 
L 195.151906 108.937005 
L 211.590921 161.190198 
L 217.070593 177.134341 
L 219.810429 184.614702 
L 222.550265 191.740506 
L 225.2901 198.50328 
L 228.029936 204.902019 
L 230.769772 210.941548 
L 233.509608 216.630904 
L 236.249444 221.981822 
L 238.98928 227.007404 
L 241.729115 231.72104 
L 244.468951 236.135608 
L 247.208787 240.262992 
L 249.948623 244.113926 
L 252.688459 247.698153 
L 255.428295 251.024856 
L 258.16813 254.103312 
L 260.907966 256.943658 
L 263.647802 259.557682 
L 266.387638 261.959505 
L 269.127474 264.166052 
L 271.86731 266.197211 
L 277.346981 269.826186 
L 282.826653 273.048346 
L 321.184355 294.374269 
L 326.664026 297.030883 
L 332.143698 299.334293 
L 337.623369 301.222614 
L 343.103041 302.6606 
L 348.582713 303.643003 
L 354.062384 304.196941 
L 359.542056 304.381071 
L 365.021728 304.279779 
L 373.241235 303.810662 
L 386.940414 302.942376 
L 395.159922 302.667178 
L 408.859101 302.543059 
L 417.078609 302.391789 
L 425.298116 301.997908 
L 436.257459 301.154313 
L 444.476967 300.563614 
L 449.956639 300.340146 
L 455.43631 300.315315 
L 461.8 300.551602 
L 461.8 300.551602 
" clip-path="url(#p3c1f292b42)" style="fill: none; stroke: #5088c5; stroke-width: 1.5; stroke-linecap: round"/>
   </g>
   <g id="line2d_14">
    <path d="M 171.680658 307.584 
L 171.680658 41.472 
" clip-path="url(#p3c1f292b42)" style="fill: none; stroke: #5088c5; stroke-width: 1.5; stroke-linecap: round"/>
   </g>
   <g id="line2d_15">
    <path d="M -1 261.001983 
L -0.693297 260.777077 
L 10.649828 252.049289 
L 39.007642 229.495681 
L 44.679204 225.193844 
L 50.350767 221.066892 
L 56.02233 217.159584 
L 61.693892 213.514926 
L 67.365455 210.173303 
L 73.037018 207.171661 
L 78.70858 204.542762 
L 84.380143 202.314527 
L 90.051706 200.50949 
L 95.723269 199.144382 
L 101.394831 198.229839 
L 107.066394 197.770263 
L 112.737957 197.763813 
L 118.409519 198.202542 
L 124.081082 199.07266 
L 129.752645 200.354918 
L 135.424207 202.025099 
L 141.09577 204.054597 
L 146.767333 206.411065 
L 152.438896 209.059124 
L 158.110458 211.961098 
L 163.782021 215.077769 
L 169.453584 218.369124 
L 180.796709 225.316241 
L 209.154523 243.090377 
L 220.497648 249.719734 
L 226.169211 252.84184 
L 231.840773 255.816762 
L 237.512336 258.635063 
L 243.183899 261.290883 
L 248.855462 263.781733 
L 254.527024 266.108222 
L 260.198587 268.27374 
L 265.87015 270.28409 
L 271.541712 272.1471 
L 277.213275 273.872208 
L 282.884838 275.470046 
L 294.227963 278.329915 
L 305.571089 280.820247 
L 316.914214 283.029423 
L 328.257339 285.031853 
L 345.272027 287.761834 
L 362.286716 290.23902 
L 379.301404 292.461617 
L 390.644529 293.771872 
L 401.987654 294.916115 
L 413.33078 295.870966 
L 424.673905 296.618999 
L 436.017031 297.151685 
L 447.360156 297.471011 
L 461.8 297.585152 
L 461.8 297.585152 
" clip-path="url(#p3c1f292b42)" style="fill: none; stroke: #f28360; stroke-width: 1.5; stroke-linecap: round"/>
   </g>
   <g id="line2d_16">
    <path d="M 129.144368 307.584 
L 129.144368 41.472 
" clip-path="url(#p3c1f292b42)" style="fill: none; stroke: #5088c5; stroke-width: 1.5; stroke-linecap: round"/>
   </g>
   <g id="patch_3">
    <path d="M 57.6 307.584 
L 57.6 41.472 
" style="fill: none; stroke: #000000; stroke-width: 0.75; stroke-linejoin: miter; stroke-linecap: square"/>
   </g>
   <g id="patch_4">
    <path d="M 57.6 307.584 
L 414.72 307.584 
" style="fill: none; stroke: #000000; stroke-width: 0.75; stroke-linejoin: miter; stroke-linecap: square"/>
   </g>
   <g id="legend_1">
    <g id="line2d_17">
     <path d="M 201.872344 60.597 
L 216.872344 60.597 
L 231.872344 60.597 
" style="fill: none; stroke: #5088c5; stroke-width: 1.5; stroke-linecap: round"/>
    </g>
    <g id="text_15">
     <text style="font: 15px &quot;Suisse Int&apos;l&quot;; text-anchor: start" x="243.872344" y="65.847" transform="rotate(-0, 243.872344, 65.847)">Within phenotype error</text>
    </g>
    <g id="line2d_18">
     <path d="M 201.872344 84.096 
L 216.872344 84.096 
L 231.872344 84.096 
" style="fill: none; stroke: #f28360; stroke-width: 1.5; stroke-linecap: round"/>
    </g>
    <g id="text_16">
     <text style="font: 15px &quot;Suisse Int&apos;l&quot;; text-anchor: start" x="243.872344" y="89.346" transform="rotate(-0, 243.872344, 89.346)">Within individual error</text>
    </g>
   </g>
  </g>
 </g>
 <defs>
  <clipPath id="p3c1f292b42">
   <rect x="57.6" y="41.472" width="357.12" height="266.112"/>
  </clipPath>
 </defs>
</svg>
