<?xml version="1.0" encoding="utf-8" standalone="no"?>
<!DOCTYPE svg PUBLIC "-//W3C//DTD SVG 1.1//EN"
  "http://www.w3.org/Graphics/SVG/1.1/DTD/svg11.dtd">
<svg xmlns:xlink="http://www.w3.org/1999/xlink" width="460.8pt" height="345.6pt" viewBox="0 0 460.8 345.6" xmlns="http://www.w3.org/2000/svg" version="1.1">
 <metadata>
  <rdf:RDF xmlns:dc="http://purl.org/dc/elements/1.1/" xmlns:cc="http://creativecommons.org/ns#" xmlns:rdf="http://www.w3.org/1999/02/22-rdf-syntax-ns#">
   <cc:Work>
    <dc:type rdf:resource="http://purl.org/dc/dcmitype/StillImage"/>
    <dc:date>2024-12-02T14:22:17.629371</dc:date>
    <dc:format>image/svg+xml</dc:format>
    <dc:creator>
     <cc:Agent>
      <dc:title>Matplotlib v3.8.0, https://matplotlib.org/</dc:title>
     </cc:Agent>
    </dc:creator>
   </cc:Work>
  </rdf:RDF>
 </metadata>
 <defs>
  <style type="text/css">*{stroke-linejoin: round; stroke-linecap: butt}</style>
 </defs>
 <g id="figure_1">
  <g id="patch_1">
   <path d="M 0 345.6 
L 460.8 345.6 
L 460.8 0 
L 0 0 
L 0 345.6 
z
" style="fill: none"/>
  </g>
  <g id="axes_1">
   <g id="patch_2">
    <path d="M 57.6 307.584 
L 414.72 307.584 
L 414.72 41.472 
L 57.6 41.472 
L 57.6 307.584 
z
" style="fill: none"/>
   </g>
   <g id="matplotlib.axis_1">
    <g id="xtick_1">
     <g id="line2d_1">
      <defs>
       <path id="ma8e326d3d8" d="M 0 0 
L 0 1.2 
" style="stroke: #262626; stroke-width: 0.75"/>
      </defs>
      <g>
       <use xlink:href="#ma8e326d3d8" x="57.6" y="307.584" style="fill: #262626; stroke: #262626; stroke-width: 0.75"/>
      </g>
     </g>
     <g id="text_1">
      <!-- 0.0 -->
      <g style="fill: #262626" transform="translate(47.910938 317.234) scale(0.1 -0.1)">
       <defs>
        <path id="SuisseIntlMono-30" d="M 2061 -83 
C 3232 -83 3686 902 3686 2342 
C 3686 3782 3232 4723 2061 4723 
C 890 4723 442 3782 442 2342 
C 442 902 890 -83 2061 -83 
z
M 1037 2342 
C 1037 3610 1363 4224 2061 4224 
C 2618 4224 2944 3827 3046 3021 
L 1043 2106 
C 1037 2182 1037 2259 1037 2342 
z
M 2061 422 
C 1510 422 1190 826 1082 1619 
L 3085 2547 
C 3091 2477 3091 2413 3091 2342 
C 3091 1075 2758 422 2061 422 
z
" transform="scale(0.015625)"/>
        <path id="SuisseIntlMono-2e" d="M 2432 0 
L 2432 736 
L 1696 736 
L 1696 0 
L 2432 0 
z
" transform="scale(0.015625)"/>
       </defs>
       <use xlink:href="#SuisseIntlMono-30"/>
       <use xlink:href="#SuisseIntlMono-2e" x="64.599991"/>
       <use xlink:href="#SuisseIntlMono-30" x="129.199982"/>
      </g>
     </g>
    </g>
    <g id="xtick_2">
     <g id="line2d_2">
      <g>
       <use xlink:href="#ma8e326d3d8" x="128.952647" y="307.584" style="fill: #262626; stroke: #262626; stroke-width: 0.75"/>
      </g>
     </g>
     <g id="text_2">
      <!-- 0.2 -->
      <g style="fill: #262626" transform="translate(119.263585 317.234) scale(0.1 -0.1)">
       <defs>
        <path id="SuisseIntlMono-32" d="M 2138 4723 
C 1197 4723 582 4051 595 3168 
L 1197 3168 
C 1210 3930 1651 4224 2131 4224 
C 2656 4224 2931 3878 2931 3398 
C 2931 2586 2067 1715 512 506 
L 512 0 
L 3642 0 
L 3642 506 
L 1338 506 
C 2522 1453 3558 2400 3558 3475 
C 3558 4262 2950 4723 2138 4723 
z
" transform="scale(0.015625)"/>
       </defs>
       <use xlink:href="#SuisseIntlMono-30"/>
       <use xlink:href="#SuisseIntlMono-2e" x="64.599991"/>
       <use xlink:href="#SuisseIntlMono-32" x="129.199982"/>
      </g>
     </g>
    </g>
    <g id="xtick_3">
     <g id="line2d_3">
      <g>
       <use xlink:href="#ma8e326d3d8" x="200.305295" y="307.584" style="fill: #262626; stroke: #262626; stroke-width: 0.75"/>
      </g>
     </g>
     <g id="text_3">
      <!-- 0.4 -->
      <g style="fill: #262626" transform="translate(190.616232 317.234) scale(0.1 -0.1)">
       <defs>
        <path id="SuisseIntlMono-34" d="M 2464 3846 
L 2464 1696 
L 890 1696 
L 2464 3846 
z
M 3827 1696 
L 3053 1696 
L 3053 4640 
L 2458 4640 
L 275 1696 
L 275 1146 
L 2464 1146 
L 2464 0 
L 3053 0 
L 3053 1146 
L 3827 1146 
L 3827 1696 
z
" transform="scale(0.015625)"/>
       </defs>
       <use xlink:href="#SuisseIntlMono-30"/>
       <use xlink:href="#SuisseIntlMono-2e" x="64.599991"/>
       <use xlink:href="#SuisseIntlMono-34" x="129.199982"/>
      </g>
     </g>
    </g>
    <g id="xtick_4">
     <g id="line2d_4">
      <g>
       <use xlink:href="#ma8e326d3d8" x="271.657942" y="307.584" style="fill: #262626; stroke: #262626; stroke-width: 0.75"/>
      </g>
     </g>
     <g id="text_4">
      <!-- 0.6 -->
      <g style="fill: #262626" transform="translate(261.96888 317.234) scale(0.1 -0.1)">
       <defs>
        <path id="SuisseIntlMono-36" d="M 1126 1485 
C 1126 2106 1517 2560 2093 2560 
C 2656 2560 3053 2106 3053 1485 
C 3053 858 2650 422 2086 422 
C 1504 422 1126 851 1126 1485 
z
M 2176 4224 
C 2598 4224 2899 3987 2970 3578 
L 3603 3578 
C 3514 4154 3072 4723 2208 4723 
C 934 4723 454 3443 454 2138 
C 454 730 992 -83 2093 -83 
C 3040 -83 3680 659 3680 1510 
C 3680 2432 3046 3085 2227 3085 
C 1638 3085 1261 2810 1062 2451 
C 1088 3507 1466 4224 2176 4224 
z
" transform="scale(0.015625)"/>
       </defs>
       <use xlink:href="#SuisseIntlMono-30"/>
       <use xlink:href="#SuisseIntlMono-2e" x="64.599991"/>
       <use xlink:href="#SuisseIntlMono-36" x="129.199982"/>
      </g>
     </g>
    </g>
    <g id="xtick_5">
     <g id="line2d_5">
      <g>
       <use xlink:href="#ma8e326d3d8" x="343.010589" y="307.584" style="fill: #262626; stroke: #262626; stroke-width: 0.75"/>
      </g>
     </g>
     <g id="text_5">
      <!-- 0.8 -->
      <g style="fill: #262626" transform="translate(333.321527 317.234) scale(0.1 -0.1)">
       <defs>
        <path id="SuisseIntlMono-38" d="M 2067 4723 
C 1165 4723 557 4218 557 3539 
C 557 3168 730 2720 1171 2477 
C 589 2227 422 1722 422 1306 
C 422 435 1158 -83 2067 -83 
C 2976 -83 3712 435 3712 1306 
C 3712 1722 3539 2227 2963 2477 
C 3398 2720 3571 3168 3571 3539 
C 3571 4218 2970 4723 2067 4723 
z
M 2067 2214 
C 2688 2214 3085 1843 3085 1306 
C 3085 768 2688 422 2067 422 
C 1446 422 1043 768 1043 1306 
C 1043 1843 1446 2214 2067 2214 
z
M 2982 3482 
C 2982 3021 2618 2669 2067 2669 
C 1517 2669 1152 3021 1152 3482 
C 1152 3936 1517 4218 2067 4218 
C 2618 4218 2982 3955 2982 3482 
z
" transform="scale(0.015625)"/>
       </defs>
       <use xlink:href="#SuisseIntlMono-30"/>
       <use xlink:href="#SuisseIntlMono-2e" x="64.599991"/>
       <use xlink:href="#SuisseIntlMono-38" x="129.199982"/>
      </g>
     </g>
    </g>
    <g id="xtick_6">
     <g id="line2d_6">
      <g>
       <use xlink:href="#ma8e326d3d8" x="414.363237" y="307.584" style="fill: #262626; stroke: #262626; stroke-width: 0.75"/>
      </g>
     </g>
     <g id="text_6">
      <!-- 1.0 -->
      <g style="fill: #262626" transform="translate(404.674174 317.234) scale(0.1 -0.1)">
       <defs>
        <path id="SuisseIntlMono-31" d="M 2093 4640 
C 1856 4134 1478 4051 704 4032 
L 704 3629 
L 1888 3629 
L 1888 506 
L 704 506 
L 704 0 
L 3450 0 
L 3450 506 
L 2477 506 
L 2477 4640 
L 2093 4640 
z
" transform="scale(0.015625)"/>
       </defs>
       <use xlink:href="#SuisseIntlMono-31"/>
       <use xlink:href="#SuisseIntlMono-2e" x="64.599991"/>
       <use xlink:href="#SuisseIntlMono-30" x="129.199982"/>
      </g>
     </g>
    </g>
    <g id="text_7">
     <!-- Variable importance threshold (percentile) -->
     <g transform="translate(99.536953 332.259) scale(0.15 -0.15)">
      <defs>
       <path id="SuisseIntl-Light-56" d="M 506 4640 
L 32 4640 
L 1702 0 
L 2195 0 
L 3859 4640 
L 3398 4640 
L 1965 531 
L 506 4640 
z
" transform="scale(0.015625)"/>
       <path id="SuisseIntl-Light-61" d="M 2643 525 
L 2662 0 
L 3066 0 
C 3046 371 3027 710 3027 1101 
C 3027 1376 3034 1690 3034 2163 
C 3034 3187 2502 3520 1702 3520 
C 934 3520 384 3072 294 2394 
L 710 2394 
C 742 2842 1094 3168 1677 3168 
C 2176 3168 2637 2995 2637 2214 
L 2637 2093 
C 979 1926 211 1638 211 858 
C 211 288 710 -83 1350 -83 
C 1990 -83 2419 160 2643 525 
z
M 1440 269 
C 986 269 653 499 653 864 
C 653 1402 1254 1587 2656 1741 
L 2656 1574 
C 2656 595 2080 269 1440 269 
z
" transform="scale(0.015625)"/>
       <path id="SuisseIntl-Light-72" d="M 1990 3040 
L 1990 3462 
C 1952 3469 1907 3469 1875 3469 
C 1459 3469 1011 3219 858 2816 
L 858 3443 
L 480 3443 
L 480 0 
L 870 0 
L 870 1805 
C 870 2534 1101 3046 1811 3046 
C 1869 3046 1926 3046 1990 3040 
z
" transform="scale(0.015625)"/>
       <path id="SuisseIntl-Light-69" d="M 877 4640 
L 480 4640 
L 480 4006 
L 877 4006 
L 877 4640 
z
M 877 3443 
L 480 3443 
L 480 0 
L 877 0 
L 877 3443 
z
" transform="scale(0.015625)"/>
       <path id="SuisseIntl-Light-62" d="M 2042 -83 
C 2835 -83 3482 563 3482 1709 
C 3482 2848 2835 3501 2042 3501 
C 1536 3501 1120 3264 877 2848 
L 877 4640 
L 480 4640 
L 480 0 
L 877 0 
L 877 563 
C 1120 154 1536 -83 2042 -83 
z
M 1958 275 
C 1440 275 851 691 851 1709 
C 851 2726 1440 3142 1958 3142 
C 2598 3142 3053 2624 3053 1709 
C 3053 794 2598 275 1958 275 
z
" transform="scale(0.015625)"/>
       <path id="SuisseIntl-Light-6c" d="M 877 0 
L 877 4640 
L 480 4640 
L 480 0 
L 877 0 
z
" transform="scale(0.015625)"/>
       <path id="SuisseIntl-Light-65" d="M 211 1709 
C 211 640 826 -83 1837 -83 
C 2592 -83 3162 320 3328 1030 
L 2912 1030 
C 2778 557 2400 282 1862 282 
C 1158 282 634 774 621 1606 
L 3360 1606 
C 3411 2682 2797 3501 1824 3501 
C 902 3501 211 2822 211 1709 
z
M 634 1971 
C 717 2733 1178 3142 1818 3142 
C 2509 3142 2925 2554 2925 1971 
L 634 1971 
z
" transform="scale(0.015625)"/>
       <path id="SuisseIntl-Light-20" transform="scale(0.015625)"/>
       <path id="SuisseIntl-Light-6d" d="M 877 0 
L 877 1914 
C 877 2643 1293 3142 1856 3142 
C 2522 3142 2656 2707 2656 2061 
L 2656 0 
L 3053 0 
L 3053 1914 
C 3053 2643 3469 3142 4032 3142 
C 4698 3142 4832 2707 4832 2061 
L 4832 0 
L 5229 0 
L 5229 2170 
C 5229 3014 4915 3501 4134 3501 
C 3578 3501 3232 3251 2970 2816 
C 2829 3258 2509 3501 1958 3501 
C 1350 3501 1043 3187 877 2861 
L 877 3443 
L 480 3443 
L 480 0 
L 877 0 
z
" transform="scale(0.015625)"/>
       <path id="SuisseIntl-Light-70" d="M 2042 -83 
C 2835 -83 3482 570 3482 1709 
C 3482 2854 2835 3501 2042 3501 
C 1536 3501 1120 3264 877 2854 
L 877 3443 
L 480 3443 
L 480 -1120 
L 877 -1120 
L 877 570 
C 1120 154 1536 -83 2042 -83 
z
M 1958 275 
C 1440 275 851 691 851 1709 
C 851 2726 1440 3142 1958 3142 
C 2598 3142 3053 2624 3053 1709 
C 3053 794 2598 275 1958 275 
z
" transform="scale(0.015625)"/>
       <path id="SuisseIntl-Light-6f" d="M 1766 3501 
C 941 3501 211 2963 211 1709 
C 211 454 941 -83 1766 -83 
C 2592 -83 3328 454 3328 1709 
C 3328 2963 2592 3501 1766 3501 
z
M 1766 282 
C 1107 282 634 723 634 1709 
C 634 2694 1107 3136 1766 3136 
C 2426 3136 2906 2694 2906 1709 
C 2906 723 2426 282 1766 282 
z
" transform="scale(0.015625)"/>
       <path id="SuisseIntl-Light-74" d="M 640 4218 
L 640 3443 
L 70 3443 
L 70 3098 
L 640 3098 
L 640 819 
C 640 141 781 0 1395 0 
L 1722 0 
L 1722 358 
L 1517 358 
C 1056 358 1043 448 1043 896 
L 1043 3098 
L 1722 3098 
L 1722 3443 
L 1043 3443 
L 1043 4218 
L 640 4218 
z
" transform="scale(0.015625)"/>
       <path id="SuisseIntl-Light-6e" d="M 877 2861 
L 877 3443 
L 480 3443 
L 480 0 
L 877 0 
L 877 1914 
C 877 2643 1325 3142 1920 3142 
C 2618 3142 2784 2707 2784 2061 
L 2784 0 
L 3181 0 
L 3181 2170 
C 3181 3014 2835 3501 2022 3501 
C 1382 3501 1043 3187 877 2861 
z
" transform="scale(0.015625)"/>
       <path id="SuisseIntl-Light-63" d="M 3206 2336 
C 3104 2957 2573 3501 1792 3501 
C 787 3501 211 2778 211 1709 
C 211 646 781 -83 1760 -83 
C 2522 -83 3098 378 3238 1088 
L 2816 1088 
C 2720 659 2349 282 1760 282 
C 1158 282 634 736 634 1715 
C 634 2662 1158 3136 1754 3136 
C 2253 3136 2662 2854 2790 2336 
L 3206 2336 
z
" transform="scale(0.015625)"/>
       <path id="SuisseIntl-Light-68" d="M 877 2861 
L 877 4640 
L 480 4640 
L 480 0 
L 877 0 
L 877 1914 
C 877 2643 1325 3142 1920 3142 
C 2618 3142 2784 2707 2784 2061 
L 2784 0 
L 3181 0 
L 3181 2170 
C 3181 3014 2835 3501 2022 3501 
C 1382 3501 1043 3187 877 2861 
z
" transform="scale(0.015625)"/>
       <path id="SuisseIntl-Light-73" d="M 2541 2502 
L 2957 2502 
C 2874 3053 2368 3507 1632 3507 
C 858 3507 314 3104 314 2560 
C 314 2022 749 1734 1248 1638 
L 1786 1536 
C 2253 1446 2637 1306 2637 902 
C 2637 442 2118 269 1702 269 
C 1171 269 736 512 659 1056 
L 243 1056 
C 346 269 960 -83 1670 -83 
C 2419 -83 3040 282 3040 966 
C 3040 1619 2413 1811 1850 1914 
L 1363 2003 
C 986 2074 717 2253 717 2592 
C 717 3008 1216 3155 1594 3155 
C 2080 3155 2458 2912 2541 2502 
z
" transform="scale(0.015625)"/>
       <path id="SuisseIntl-Light-64" d="M 1645 3501 
C 851 3501 205 2848 205 1709 
C 205 563 851 -83 1645 -83 
C 2150 -83 2566 154 2810 563 
L 2810 0 
L 3206 0 
L 3206 4640 
L 2810 4640 
L 2810 2848 
C 2566 3264 2150 3501 1645 3501 
z
M 1728 3142 
C 2246 3142 2835 2726 2835 1709 
C 2835 691 2246 275 1728 275 
C 1088 275 634 794 634 1709 
C 634 2624 1088 3142 1728 3142 
z
" transform="scale(0.015625)"/>
       <path id="SuisseIntl-Light-28" d="M 1101 4640 
C 717 4064 275 3002 275 1760 
C 275 525 717 -544 1101 -1120 
L 1427 -1120 
C 1011 -390 666 563 666 1760 
C 666 2970 1011 3910 1427 4640 
L 1101 4640 
z
" transform="scale(0.015625)"/>
       <path id="SuisseIntl-Light-29" d="M 326 -1120 
C 710 -544 1152 525 1152 1760 
C 1152 3002 710 4064 326 4640 
L 0 4640 
C 416 3910 755 2970 755 1760 
C 755 563 416 -390 0 -1120 
L 326 -1120 
z
" transform="scale(0.015625)"/>
      </defs>
      <use xlink:href="#SuisseIntl-Light-56"/>
      <use xlink:href="#SuisseIntl-Light-61" x="60.899994"/>
      <use xlink:href="#SuisseIntl-Light-72" x="113.799988"/>
      <use xlink:href="#SuisseIntl-Light-69" x="144.999985"/>
      <use xlink:href="#SuisseIntl-Light-61" x="166.199982"/>
      <use xlink:href="#SuisseIntl-Light-62" x="219.099976"/>
      <use xlink:href="#SuisseIntl-Light-6c" x="276.699966"/>
      <use xlink:href="#SuisseIntl-Light-65" x="297.899963"/>
      <use xlink:href="#SuisseIntl-Light-20" x="353.699951"/>
      <use xlink:href="#SuisseIntl-Light-69" x="377.399948"/>
      <use xlink:href="#SuisseIntl-Light-6d" x="398.599945"/>
      <use xlink:href="#SuisseIntl-Light-70" x="486.199936"/>
      <use xlink:href="#SuisseIntl-Light-6f" x="543.799927"/>
      <use xlink:href="#SuisseIntl-Light-72" x="599.099915"/>
      <use xlink:href="#SuisseIntl-Light-74" x="630.299911"/>
      <use xlink:href="#SuisseIntl-Light-61" x="660.399902"/>
      <use xlink:href="#SuisseIntl-Light-6e" x="713.299896"/>
      <use xlink:href="#SuisseIntl-Light-63" x="768.899887"/>
      <use xlink:href="#SuisseIntl-Light-65" x="821.999878"/>
      <use xlink:href="#SuisseIntl-Light-20" x="877.799866"/>
      <use xlink:href="#SuisseIntl-Light-74" x="901.499863"/>
      <use xlink:href="#SuisseIntl-Light-68" x="931.599854"/>
      <use xlink:href="#SuisseIntl-Light-72" x="987.199844"/>
      <use xlink:href="#SuisseIntl-Light-65" x="1018.399841"/>
      <use xlink:href="#SuisseIntl-Light-73" x="1074.199829"/>
      <use xlink:href="#SuisseIntl-Light-68" x="1126.29982"/>
      <use xlink:href="#SuisseIntl-Light-6f" x="1181.899811"/>
      <use xlink:href="#SuisseIntl-Light-6c" x="1237.199799"/>
      <use xlink:href="#SuisseIntl-Light-64" x="1258.399796"/>
      <use xlink:href="#SuisseIntl-Light-20" x="1315.999786"/>
      <use xlink:href="#SuisseIntl-Light-28" x="1339.699783"/>
      <use xlink:href="#SuisseIntl-Light-70" x="1361.999771"/>
      <use xlink:href="#SuisseIntl-Light-65" x="1419.599762"/>
      <use xlink:href="#SuisseIntl-Light-72" x="1475.39975"/>
      <use xlink:href="#SuisseIntl-Light-63" x="1506.599747"/>
      <use xlink:href="#SuisseIntl-Light-65" x="1559.699738"/>
      <use xlink:href="#SuisseIntl-Light-6e" x="1615.499725"/>
      <use xlink:href="#SuisseIntl-Light-74" x="1671.099716"/>
      <use xlink:href="#SuisseIntl-Light-69" x="1701.199707"/>
      <use xlink:href="#SuisseIntl-Light-6c" x="1722.399704"/>
      <use xlink:href="#SuisseIntl-Light-65" x="1743.599701"/>
      <use xlink:href="#SuisseIntl-Light-29" x="1799.399689"/>
     </g>
    </g>
   </g>
   <g id="matplotlib.axis_2">
    <g id="ytick_1">
     <g id="line2d_7">
      <defs>
       <path id="m4f4dfe3c48" d="M 0 0 
L -1.2 0 
" style="stroke: #262626; stroke-width: 0.75"/>
      </defs>
      <g>
       <use xlink:href="#m4f4dfe3c48" x="57.6" y="307.584" style="fill: #262626; stroke: #262626; stroke-width: 0.75"/>
      </g>
     </g>
     <g id="text_8">
      <!-- 0.0 -->
      <g style="fill: #262626" transform="translate(35.821875 311.209) scale(0.1 -0.1)">
       <use xlink:href="#SuisseIntlMono-30"/>
       <use xlink:href="#SuisseIntlMono-2e" x="64.599991"/>
       <use xlink:href="#SuisseIntlMono-30" x="129.199982"/>
      </g>
     </g>
    </g>
    <g id="ytick_2">
     <g id="line2d_8">
      <g>
       <use xlink:href="#m4f4dfe3c48" x="57.6" y="254.888554" style="fill: #262626; stroke: #262626; stroke-width: 0.75"/>
      </g>
     </g>
     <g id="text_9">
      <!-- 0.2 -->
      <g style="fill: #262626" transform="translate(35.821875 258.513554) scale(0.1 -0.1)">
       <use xlink:href="#SuisseIntlMono-30"/>
       <use xlink:href="#SuisseIntlMono-2e" x="64.599991"/>
       <use xlink:href="#SuisseIntlMono-32" x="129.199982"/>
      </g>
     </g>
    </g>
    <g id="ytick_3">
     <g id="line2d_9">
      <g>
       <use xlink:href="#m4f4dfe3c48" x="57.6" y="202.193109" style="fill: #262626; stroke: #262626; stroke-width: 0.75"/>
      </g>
     </g>
     <g id="text_10">
      <!-- 0.4 -->
      <g style="fill: #262626" transform="translate(35.821875 205.818109) scale(0.1 -0.1)">
       <use xlink:href="#SuisseIntlMono-30"/>
       <use xlink:href="#SuisseIntlMono-2e" x="64.599991"/>
       <use xlink:href="#SuisseIntlMono-34" x="129.199982"/>
      </g>
     </g>
    </g>
    <g id="ytick_4">
     <g id="line2d_10">
      <g>
       <use xlink:href="#m4f4dfe3c48" x="57.6" y="149.497663" style="fill: #262626; stroke: #262626; stroke-width: 0.75"/>
      </g>
     </g>
     <g id="text_11">
      <!-- 0.6 -->
      <g style="fill: #262626" transform="translate(35.821875 153.122663) scale(0.1 -0.1)">
       <use xlink:href="#SuisseIntlMono-30"/>
       <use xlink:href="#SuisseIntlMono-2e" x="64.599991"/>
       <use xlink:href="#SuisseIntlMono-36" x="129.199982"/>
      </g>
     </g>
    </g>
    <g id="ytick_5">
     <g id="line2d_11">
      <g>
       <use xlink:href="#m4f4dfe3c48" x="57.6" y="96.802218" style="fill: #262626; stroke: #262626; stroke-width: 0.75"/>
      </g>
     </g>
     <g id="text_12">
      <!-- 0.8 -->
      <g style="fill: #262626" transform="translate(35.821875 100.427218) scale(0.1 -0.1)">
       <use xlink:href="#SuisseIntlMono-30"/>
       <use xlink:href="#SuisseIntlMono-2e" x="64.599991"/>
       <use xlink:href="#SuisseIntlMono-38" x="129.199982"/>
      </g>
     </g>
    </g>
    <g id="ytick_6">
     <g id="line2d_12">
      <g>
       <use xlink:href="#m4f4dfe3c48" x="57.6" y="44.106772" style="fill: #262626; stroke: #262626; stroke-width: 0.75"/>
      </g>
     </g>
     <g id="text_13">
      <!-- 1.0 -->
      <g style="fill: #262626" transform="translate(35.821875 47.731772) scale(0.1 -0.1)">
       <use xlink:href="#SuisseIntlMono-31"/>
       <use xlink:href="#SuisseIntlMono-2e" x="64.599991"/>
       <use xlink:href="#SuisseIntlMono-30" x="129.199982"/>
      </g>
     </g>
    </g>
    <g id="text_14">
     <!-- Fraction of linked loci identified -->
     <g transform="translate(30.796875 275.288156) rotate(-90) scale(0.15 -0.15)">
      <defs>
       <path id="SuisseIntl-Light-46" d="M 550 4640 
L 550 0 
L 979 0 
L 979 2202 
L 3238 2202 
L 3238 2605 
L 979 2605 
L 979 4243 
L 3386 4243 
L 3386 4640 
L 550 4640 
z
" transform="scale(0.015625)"/>
       <path id="SuisseIntl-Light-66" d="M 576 3872 
L 576 3443 
L 102 3443 
L 102 3098 
L 576 3098 
L 576 0 
L 973 0 
L 973 3098 
L 1658 3098 
L 1658 3443 
L 973 3443 
L 973 3814 
C 973 4237 1024 4275 1459 4275 
L 1658 4275 
L 1658 4640 
L 1376 4640 
C 723 4640 576 4435 576 3872 
z
" transform="scale(0.015625)"/>
       <path id="SuisseIntl-Light-6b" d="M 877 4640 
L 480 4640 
L 480 0 
L 877 0 
L 877 1203 
L 1408 1779 
L 2592 0 
L 3053 0 
L 1664 2061 
L 2938 3443 
L 2451 3443 
L 877 1722 
L 877 4640 
z
" transform="scale(0.015625)"/>
      </defs>
      <use xlink:href="#SuisseIntl-Light-46"/>
      <use xlink:href="#SuisseIntl-Light-72" x="52.899994"/>
      <use xlink:href="#SuisseIntl-Light-61" x="84.099991"/>
      <use xlink:href="#SuisseIntl-Light-63" x="136.999985"/>
      <use xlink:href="#SuisseIntl-Light-74" x="190.099976"/>
      <use xlink:href="#SuisseIntl-Light-69" x="220.199966"/>
      <use xlink:href="#SuisseIntl-Light-6f" x="241.399963"/>
      <use xlink:href="#SuisseIntl-Light-6e" x="296.699951"/>
      <use xlink:href="#SuisseIntl-Light-20" x="352.299942"/>
      <use xlink:href="#SuisseIntl-Light-6f" x="375.999939"/>
      <use xlink:href="#SuisseIntl-Light-66" x="431.299927"/>
      <use xlink:href="#SuisseIntl-Light-20" x="458.799911"/>
      <use xlink:href="#SuisseIntl-Light-6c" x="482.499908"/>
      <use xlink:href="#SuisseIntl-Light-69" x="503.699905"/>
      <use xlink:href="#SuisseIntl-Light-6e" x="524.899902"/>
      <use xlink:href="#SuisseIntl-Light-6b" x="580.499893"/>
      <use xlink:href="#SuisseIntl-Light-65" x="628.299881"/>
      <use xlink:href="#SuisseIntl-Light-64" x="684.099869"/>
      <use xlink:href="#SuisseIntl-Light-20" x="741.69986"/>
      <use xlink:href="#SuisseIntl-Light-6c" x="765.399857"/>
      <use xlink:href="#SuisseIntl-Light-6f" x="786.599854"/>
      <use xlink:href="#SuisseIntl-Light-63" x="841.899841"/>
      <use xlink:href="#SuisseIntl-Light-69" x="894.999832"/>
      <use xlink:href="#SuisseIntl-Light-20" x="916.199829"/>
      <use xlink:href="#SuisseIntl-Light-69" x="939.899826"/>
      <use xlink:href="#SuisseIntl-Light-64" x="961.099823"/>
      <use xlink:href="#SuisseIntl-Light-65" x="1018.699814"/>
      <use xlink:href="#SuisseIntl-Light-6e" x="1074.499802"/>
      <use xlink:href="#SuisseIntl-Light-74" x="1130.099792"/>
      <use xlink:href="#SuisseIntl-Light-69" x="1160.199783"/>
      <use xlink:href="#SuisseIntl-Light-66" x="1181.39978"/>
      <use xlink:href="#SuisseIntl-Light-69" x="1208.899765"/>
      <use xlink:href="#SuisseIntl-Light-65" x="1230.099762"/>
      <use xlink:href="#SuisseIntl-Light-64" x="1285.89975"/>
     </g>
    </g>
   </g>
   <g id="line2d_13">
    <path d="M 410.795604 44.998404 
L 407.227972 115.883141 
L 403.66034 162.248 
L 400.092707 213.516834 
L 396.525075 228.674576 
L 392.957443 238.036711 
L 389.38981 250.073742 
L 385.822178 258.098429 
L 382.254545 263.448221 
L 378.686913 270.13546 
L 375.119281 279.943411 
L 371.551648 285.293202 
L 367.984016 286.184834 
L 364.416384 289.751362 
L 360.848751 291.980442 
L 357.281119 296.438601 
L 353.713487 296.884417 
L 350.145854 300.005129 
L 346.578222 300.450945 
L 343.010589 302.680025 
L 339.442957 303.571656 
L 335.875325 305.35492 
L 332.307692 305.800736 
L 328.74006 305.800736 
L 325.172428 305.800736 
L 321.604795 305.800736 
L 318.037163 305.800736 
L 314.46953 306.246552 
L 310.901898 306.692368 
L 307.334266 306.692368 
L 303.766633 306.692368 
L 300.199001 307.138184 
L 296.631369 307.138184 
L 293.063736 307.138184 
L 289.496104 307.138184 
L 285.928472 307.138184 
L 282.360839 307.584 
L 278.793207 307.584 
L 275.225574 307.584 
L 271.657942 307.584 
L 268.09031 307.584 
L 264.522677 307.584 
L 260.955045 307.584 
L 257.387413 307.584 
L 253.81978 307.584 
L 250.252148 307.584 
L 246.684515 307.584 
L 243.116883 307.584 
L 239.549251 307.584 
L 235.981618 307.584 
L 232.413986 307.584 
L 228.846354 307.584 
L 225.278721 307.584 
L 221.711089 307.584 
L 218.143457 307.584 
L 214.575824 307.584 
L 211.008192 307.584 
L 207.440559 307.584 
L 203.872927 307.584 
L 200.305295 307.584 
L 196.737662 307.584 
L 193.17003 307.584 
L 189.602398 307.584 
L 186.034765 307.584 
L 182.467133 307.584 
L 178.8995 307.584 
L 175.331868 307.584 
L 171.764236 307.584 
L 168.196603 307.584 
L 164.628971 307.584 
L 161.061339 307.584 
L 157.493706 307.584 
L 153.926074 307.584 
L 150.358442 307.584 
L 146.790809 307.584 
L 143.223177 307.584 
L 139.655544 307.584 
L 136.087912 307.584 
L 132.52028 307.584 
L 128.952647 307.584 
L 125.385015 307.584 
L 121.817383 307.584 
L 118.24975 307.584 
L 114.682118 307.584 
L 111.114486 307.584 
L 107.546853 307.584 
L 103.979221 307.584 
L 100.411588 307.584 
L 96.843956 307.584 
L 93.276324 307.584 
L 89.708691 307.584 
L 86.141059 307.584 
L 82.573427 307.584 
L 79.005794 307.584 
L 75.438162 307.584 
L 71.870529 307.584 
L 68.302897 307.584 
L 64.735265 307.584 
L 61.167632 307.584 
L 57.6 307.584 
" clip-path="url(#p7d8be15282)" style="fill: none; stroke: #5088c5; stroke-width: 1.5; stroke-linecap: round"/>
   </g>
   <g id="patch_3">
    <path d="M 57.6 307.584 
L 57.6 41.472 
" style="fill: none; stroke: #000000; stroke-width: 0.75; stroke-linejoin: miter; stroke-linecap: square"/>
   </g>
   <g id="patch_4">
    <path d="M 57.6 307.584 
L 414.72 307.584 
" style="fill: none; stroke: #000000; stroke-width: 0.75; stroke-linejoin: miter; stroke-linecap: square"/>
   </g>
  </g>
 </g>
 <defs>
  <clipPath id="p7d8be15282">
   <rect x="57.6" y="41.472" width="357.12" height="266.112"/>
  </clipPath>
 </defs>
</svg>
