<?xml version="1.0" encoding="utf-8" standalone="no"?>
<!DOCTYPE svg PUBLIC "-//W3C//DTD SVG 1.1//EN"
  "http://www.w3.org/Graphics/SVG/1.1/DTD/svg11.dtd">
<svg xmlns:xlink="http://www.w3.org/1999/xlink" width="460.8pt" height="345.6pt" viewBox="0 0 460.8 345.6" xmlns="http://www.w3.org/2000/svg" version="1.1">
 <metadata>
  <rdf:RDF xmlns:dc="http://purl.org/dc/elements/1.1/" xmlns:cc="http://creativecommons.org/ns#" xmlns:rdf="http://www.w3.org/1999/02/22-rdf-syntax-ns#">
   <cc:Work>
    <dc:type rdf:resource="http://purl.org/dc/dcmitype/StillImage"/>
    <dc:date>2024-12-02T14:34:50.550293</dc:date>
    <dc:format>image/svg+xml</dc:format>
    <dc:creator>
     <cc:Agent>
      <dc:title>Matplotlib v3.8.0, https://matplotlib.org/</dc:title>
     </cc:Agent>
    </dc:creator>
   </cc:Work>
  </rdf:RDF>
 </metadata>
 <defs>
  <style type="text/css">*{stroke-linejoin: round; stroke-linecap: butt}</style>
 </defs>
 <g id="figure_1">
  <g id="patch_1">
   <path d="M 0 345.6 
L 460.8 345.6 
L 460.8 0 
L 0 0 
L 0 345.6 
z
" style="fill: none"/>
  </g>
  <g id="axes_1">
   <g id="patch_2">
    <path d="M 57.6 307.584 
L 414.72 307.584 
L 414.72 41.472 
L 57.6 41.472 
L 57.6 307.584 
z
" style="fill: none"/>
   </g>
   <g id="matplotlib.axis_1">
    <g id="xtick_1">
     <g id="line2d_1">
      <defs>
       <path id="mece69b5e5d" d="M 0 0 
L 0 1.2 
" style="stroke: #262626; stroke-width: 0.75"/>
      </defs>
      <g>
       <use xlink:href="#mece69b5e5d" x="57.6" y="307.584" style="fill: #262626; stroke: #262626; stroke-width: 0.75"/>
      </g>
     </g>
     <g id="text_1">
      <!-- 0 -->
      <g style="fill: #262626" transform="translate(54.370313 317.234) scale(0.1 -0.1)">
       <defs>
        <path id="SuisseIntlMono-30" d="M 2061 -83 
C 3232 -83 3686 902 3686 2342 
C 3686 3782 3232 4723 2061 4723 
C 890 4723 442 3782 442 2342 
C 442 902 890 -83 2061 -83 
z
M 1037 2342 
C 1037 3610 1363 4224 2061 4224 
C 2618 4224 2944 3827 3046 3021 
L 1043 2106 
C 1037 2182 1037 2259 1037 2342 
z
M 2061 422 
C 1510 422 1190 826 1082 1619 
L 3085 2547 
C 3091 2477 3091 2413 3091 2342 
C 3091 1075 2758 422 2061 422 
z
" transform="scale(0.015625)"/>
       </defs>
       <use xlink:href="#SuisseIntlMono-30"/>
      </g>
     </g>
    </g>
    <g id="xtick_2">
     <g id="line2d_2">
      <g>
       <use xlink:href="#mece69b5e5d" x="108.617143" y="307.584" style="fill: #262626; stroke: #262626; stroke-width: 0.75"/>
      </g>
     </g>
     <g id="text_2">
      <!-- 1 -->
      <g style="fill: #262626" transform="translate(105.387455 317.234) scale(0.1 -0.1)">
       <defs>
        <path id="SuisseIntlMono-31" d="M 2093 4640 
C 1856 4134 1478 4051 704 4032 
L 704 3629 
L 1888 3629 
L 1888 506 
L 704 506 
L 704 0 
L 3450 0 
L 3450 506 
L 2477 506 
L 2477 4640 
L 2093 4640 
z
" transform="scale(0.015625)"/>
       </defs>
       <use xlink:href="#SuisseIntlMono-31"/>
      </g>
     </g>
    </g>
    <g id="xtick_3">
     <g id="line2d_3">
      <g>
       <use xlink:href="#mece69b5e5d" x="159.634286" y="307.584" style="fill: #262626; stroke: #262626; stroke-width: 0.75"/>
      </g>
     </g>
     <g id="text_3">
      <!-- 2 -->
      <g style="fill: #262626" transform="translate(156.404598 317.234) scale(0.1 -0.1)">
       <defs>
        <path id="SuisseIntlMono-32" d="M 2138 4723 
C 1197 4723 582 4051 595 3168 
L 1197 3168 
C 1210 3930 1651 4224 2131 4224 
C 2656 4224 2931 3878 2931 3398 
C 2931 2586 2067 1715 512 506 
L 512 0 
L 3642 0 
L 3642 506 
L 1338 506 
C 2522 1453 3558 2400 3558 3475 
C 3558 4262 2950 4723 2138 4723 
z
" transform="scale(0.015625)"/>
       </defs>
       <use xlink:href="#SuisseIntlMono-32"/>
      </g>
     </g>
    </g>
    <g id="xtick_4">
     <g id="line2d_4">
      <g>
       <use xlink:href="#mece69b5e5d" x="210.651429" y="307.584" style="fill: #262626; stroke: #262626; stroke-width: 0.75"/>
      </g>
     </g>
     <g id="text_4">
      <!-- 3 -->
      <g style="fill: #262626" transform="translate(207.421741 317.234) scale(0.1 -0.1)">
       <defs>
        <path id="SuisseIntlMono-33" d="M 2048 422 
C 1427 422 1107 819 1043 1382 
L 448 1382 
C 506 627 1011 -83 2042 -83 
C 2861 -83 3667 384 3667 1306 
C 3667 1779 3482 2253 2829 2477 
C 3296 2669 3552 3078 3552 3552 
C 3552 4397 2835 4723 2086 4723 
C 1178 4723 576 4147 512 3328 
L 1114 3328 
C 1158 3846 1478 4224 2067 4224 
C 2541 4224 2925 3962 2925 3494 
C 2925 2957 2515 2707 1754 2707 
L 1683 2707 
L 1683 2189 
L 1773 2189 
C 2483 2189 3040 1952 3040 1299 
C 3040 749 2637 422 2048 422 
z
" transform="scale(0.015625)"/>
       </defs>
       <use xlink:href="#SuisseIntlMono-33"/>
      </g>
     </g>
    </g>
    <g id="xtick_5">
     <g id="line2d_5">
      <g>
       <use xlink:href="#mece69b5e5d" x="261.668571" y="307.584" style="fill: #262626; stroke: #262626; stroke-width: 0.75"/>
      </g>
     </g>
     <g id="text_5">
      <!-- 4 -->
      <g style="fill: #262626" transform="translate(258.438884 317.234) scale(0.1 -0.1)">
       <defs>
        <path id="SuisseIntlMono-34" d="M 2464 3846 
L 2464 1696 
L 890 1696 
L 2464 3846 
z
M 3827 1696 
L 3053 1696 
L 3053 4640 
L 2458 4640 
L 275 1696 
L 275 1146 
L 2464 1146 
L 2464 0 
L 3053 0 
L 3053 1146 
L 3827 1146 
L 3827 1696 
z
" transform="scale(0.015625)"/>
       </defs>
       <use xlink:href="#SuisseIntlMono-34"/>
      </g>
     </g>
    </g>
    <g id="xtick_6">
     <g id="line2d_6">
      <g>
       <use xlink:href="#mece69b5e5d" x="312.685714" y="307.584" style="fill: #262626; stroke: #262626; stroke-width: 0.75"/>
      </g>
     </g>
     <g id="text_6">
      <!-- 5 -->
      <g style="fill: #262626" transform="translate(309.456027 317.234) scale(0.1 -0.1)">
       <defs>
        <path id="SuisseIntlMono-35" d="M 2061 422 
C 1440 422 1120 819 1056 1382 
L 461 1382 
C 518 627 1024 -83 2054 -83 
C 2880 -83 3667 480 3667 1530 
C 3667 2534 2950 3098 2182 3098 
C 1811 3098 1466 2989 1222 2752 
L 1389 4141 
L 3462 4141 
L 3462 4640 
L 890 4640 
L 589 2125 
L 1203 2099 
C 1299 2323 1606 2586 2048 2586 
C 2528 2586 3040 2278 3040 1523 
C 3040 819 2592 422 2061 422 
z
" transform="scale(0.015625)"/>
       </defs>
       <use xlink:href="#SuisseIntlMono-35"/>
      </g>
     </g>
    </g>
    <g id="xtick_7">
     <g id="line2d_7">
      <g>
       <use xlink:href="#mece69b5e5d" x="363.702857" y="307.584" style="fill: #262626; stroke: #262626; stroke-width: 0.75"/>
      </g>
     </g>
     <g id="text_7">
      <!-- 6 -->
      <g style="fill: #262626" transform="translate(360.47317 317.234) scale(0.1 -0.1)">
       <defs>
        <path id="SuisseIntlMono-36" d="M 1126 1485 
C 1126 2106 1517 2560 2093 2560 
C 2656 2560 3053 2106 3053 1485 
C 3053 858 2650 422 2086 422 
C 1504 422 1126 851 1126 1485 
z
M 2176 4224 
C 2598 4224 2899 3987 2970 3578 
L 3603 3578 
C 3514 4154 3072 4723 2208 4723 
C 934 4723 454 3443 454 2138 
C 454 730 992 -83 2093 -83 
C 3040 -83 3680 659 3680 1510 
C 3680 2432 3046 3085 2227 3085 
C 1638 3085 1261 2810 1062 2451 
C 1088 3507 1466 4224 2176 4224 
z
" transform="scale(0.015625)"/>
       </defs>
       <use xlink:href="#SuisseIntlMono-36"/>
      </g>
     </g>
    </g>
    <g id="xtick_8">
     <g id="line2d_8">
      <g>
       <use xlink:href="#mece69b5e5d" x="414.72" y="307.584" style="fill: #262626; stroke: #262626; stroke-width: 0.75"/>
      </g>
     </g>
     <g id="text_8">
      <!-- 7 -->
      <g style="fill: #262626" transform="translate(411.490313 317.234) scale(0.1 -0.1)">
       <defs>
        <path id="SuisseIntlMono-37" d="M 525 4141 
L 3066 4141 
C 1965 3238 1210 1664 1107 0 
L 1779 0 
C 1824 1702 2598 3232 3782 4141 
L 3782 4640 
L 525 4640 
L 525 4141 
z
" transform="scale(0.015625)"/>
       </defs>
       <use xlink:href="#SuisseIntlMono-37"/>
      </g>
     </g>
    </g>
    <g id="text_9">
     <!-- Mean squared error -->
     <g transform="translate(171.315469 332.259) scale(0.15 -0.15)">
      <defs>
       <path id="SuisseIntl-Light-4d" d="M 2554 0 
L 2989 0 
L 4563 4230 
L 4563 0 
L 4992 0 
L 4992 4640 
L 4307 4640 
L 2778 486 
L 1242 4640 
L 550 4640 
L 550 0 
L 979 0 
L 979 4230 
L 2554 0 
z
" transform="scale(0.015625)"/>
       <path id="SuisseIntl-Light-65" d="M 211 1709 
C 211 640 826 -83 1837 -83 
C 2592 -83 3162 320 3328 1030 
L 2912 1030 
C 2778 557 2400 282 1862 282 
C 1158 282 634 774 621 1606 
L 3360 1606 
C 3411 2682 2797 3501 1824 3501 
C 902 3501 211 2822 211 1709 
z
M 634 1971 
C 717 2733 1178 3142 1818 3142 
C 2509 3142 2925 2554 2925 1971 
L 634 1971 
z
" transform="scale(0.015625)"/>
       <path id="SuisseIntl-Light-61" d="M 2643 525 
L 2662 0 
L 3066 0 
C 3046 371 3027 710 3027 1101 
C 3027 1376 3034 1690 3034 2163 
C 3034 3187 2502 3520 1702 3520 
C 934 3520 384 3072 294 2394 
L 710 2394 
C 742 2842 1094 3168 1677 3168 
C 2176 3168 2637 2995 2637 2214 
L 2637 2093 
C 979 1926 211 1638 211 858 
C 211 288 710 -83 1350 -83 
C 1990 -83 2419 160 2643 525 
z
M 1440 269 
C 986 269 653 499 653 864 
C 653 1402 1254 1587 2656 1741 
L 2656 1574 
C 2656 595 2080 269 1440 269 
z
" transform="scale(0.015625)"/>
       <path id="SuisseIntl-Light-6e" d="M 877 2861 
L 877 3443 
L 480 3443 
L 480 0 
L 877 0 
L 877 1914 
C 877 2643 1325 3142 1920 3142 
C 2618 3142 2784 2707 2784 2061 
L 2784 0 
L 3181 0 
L 3181 2170 
C 3181 3014 2835 3501 2022 3501 
C 1382 3501 1043 3187 877 2861 
z
" transform="scale(0.015625)"/>
       <path id="SuisseIntl-Light-20" transform="scale(0.015625)"/>
       <path id="SuisseIntl-Light-73" d="M 2541 2502 
L 2957 2502 
C 2874 3053 2368 3507 1632 3507 
C 858 3507 314 3104 314 2560 
C 314 2022 749 1734 1248 1638 
L 1786 1536 
C 2253 1446 2637 1306 2637 902 
C 2637 442 2118 269 1702 269 
C 1171 269 736 512 659 1056 
L 243 1056 
C 346 269 960 -83 1670 -83 
C 2419 -83 3040 282 3040 966 
C 3040 1619 2413 1811 1850 1914 
L 1363 2003 
C 986 2074 717 2253 717 2592 
C 717 3008 1216 3155 1594 3155 
C 2080 3155 2458 2912 2541 2502 
z
" transform="scale(0.015625)"/>
       <path id="SuisseIntl-Light-71" d="M 1645 3501 
C 851 3501 205 2854 205 1709 
C 205 570 851 -83 1645 -83 
C 2150 -83 2566 154 2810 570 
L 2810 -1120 
L 3206 -1120 
L 3206 3443 
L 2810 3443 
L 2810 2854 
C 2566 3264 2150 3501 1645 3501 
z
M 1728 3142 
C 2246 3142 2835 2726 2835 1709 
C 2835 691 2246 275 1728 275 
C 1088 275 634 794 634 1709 
C 634 2624 1088 3142 1728 3142 
z
" transform="scale(0.015625)"/>
       <path id="SuisseIntl-Light-75" d="M 2605 557 
L 2605 0 
L 3002 0 
L 3002 3443 
L 2605 3443 
L 2605 1504 
C 2605 774 2150 275 1600 275 
C 928 275 774 710 774 1357 
L 774 3443 
L 378 3443 
L 378 1248 
C 378 403 710 -83 1498 -83 
C 2093 -83 2438 230 2605 557 
z
" transform="scale(0.015625)"/>
       <path id="SuisseIntl-Light-72" d="M 1990 3040 
L 1990 3462 
C 1952 3469 1907 3469 1875 3469 
C 1459 3469 1011 3219 858 2816 
L 858 3443 
L 480 3443 
L 480 0 
L 870 0 
L 870 1805 
C 870 2534 1101 3046 1811 3046 
C 1869 3046 1926 3046 1990 3040 
z
" transform="scale(0.015625)"/>
       <path id="SuisseIntl-Light-64" d="M 1645 3501 
C 851 3501 205 2848 205 1709 
C 205 563 851 -83 1645 -83 
C 2150 -83 2566 154 2810 563 
L 2810 0 
L 3206 0 
L 3206 4640 
L 2810 4640 
L 2810 2848 
C 2566 3264 2150 3501 1645 3501 
z
M 1728 3142 
C 2246 3142 2835 2726 2835 1709 
C 2835 691 2246 275 1728 275 
C 1088 275 634 794 634 1709 
C 634 2624 1088 3142 1728 3142 
z
" transform="scale(0.015625)"/>
       <path id="SuisseIntl-Light-6f" d="M 1766 3501 
C 941 3501 211 2963 211 1709 
C 211 454 941 -83 1766 -83 
C 2592 -83 3328 454 3328 1709 
C 3328 2963 2592 3501 1766 3501 
z
M 1766 282 
C 1107 282 634 723 634 1709 
C 634 2694 1107 3136 1766 3136 
C 2426 3136 2906 2694 2906 1709 
C 2906 723 2426 282 1766 282 
z
" transform="scale(0.015625)"/>
      </defs>
      <use xlink:href="#SuisseIntl-Light-4d"/>
      <use xlink:href="#SuisseIntl-Light-65" x="86.599991"/>
      <use xlink:href="#SuisseIntl-Light-61" x="142.399979"/>
      <use xlink:href="#SuisseIntl-Light-6e" x="195.299973"/>
      <use xlink:href="#SuisseIntl-Light-20" x="250.899963"/>
      <use xlink:href="#SuisseIntl-Light-73" x="274.59996"/>
      <use xlink:href="#SuisseIntl-Light-71" x="326.699951"/>
      <use xlink:href="#SuisseIntl-Light-75" x="384.299942"/>
      <use xlink:href="#SuisseIntl-Light-61" x="438.699936"/>
      <use xlink:href="#SuisseIntl-Light-72" x="491.59993"/>
      <use xlink:href="#SuisseIntl-Light-65" x="522.799927"/>
      <use xlink:href="#SuisseIntl-Light-64" x="578.599915"/>
      <use xlink:href="#SuisseIntl-Light-20" x="636.199905"/>
      <use xlink:href="#SuisseIntl-Light-65" x="659.899902"/>
      <use xlink:href="#SuisseIntl-Light-72" x="715.69989"/>
      <use xlink:href="#SuisseIntl-Light-72" x="746.899887"/>
      <use xlink:href="#SuisseIntl-Light-6f" x="778.099884"/>
      <use xlink:href="#SuisseIntl-Light-72" x="833.399872"/>
     </g>
    </g>
   </g>
   <g id="matplotlib.axis_2">
    <g id="ytick_1">
     <g id="line2d_9">
      <defs>
       <path id="mbb78c73a28" d="M 0 0 
L -1.2 0 
" style="stroke: #262626; stroke-width: 0.75"/>
      </defs>
      <g>
       <use xlink:href="#mbb78c73a28" x="57.6" y="307.584" style="fill: #262626; stroke: #262626; stroke-width: 0.75"/>
      </g>
     </g>
     <g id="text_10">
      <!-- 0.0 -->
      <g style="fill: #262626" transform="translate(35.821875 311.209) scale(0.1 -0.1)">
       <defs>
        <path id="SuisseIntlMono-2e" d="M 2432 0 
L 2432 736 
L 1696 736 
L 1696 0 
L 2432 0 
z
" transform="scale(0.015625)"/>
       </defs>
       <use xlink:href="#SuisseIntlMono-30"/>
       <use xlink:href="#SuisseIntlMono-2e" x="64.599991"/>
       <use xlink:href="#SuisseIntlMono-30" x="129.199982"/>
      </g>
     </g>
    </g>
    <g id="ytick_2">
     <g id="line2d_10">
      <g>
       <use xlink:href="#mbb78c73a28" x="57.6" y="275.582718" style="fill: #262626; stroke: #262626; stroke-width: 0.75"/>
      </g>
     </g>
     <g id="text_11">
      <!-- 0.1 -->
      <g style="fill: #262626" transform="translate(35.821875 279.207718) scale(0.1 -0.1)">
       <use xlink:href="#SuisseIntlMono-30"/>
       <use xlink:href="#SuisseIntlMono-2e" x="64.599991"/>
       <use xlink:href="#SuisseIntlMono-31" x="129.199982"/>
      </g>
     </g>
    </g>
    <g id="ytick_3">
     <g id="line2d_11">
      <g>
       <use xlink:href="#mbb78c73a28" x="57.6" y="243.581436" style="fill: #262626; stroke: #262626; stroke-width: 0.75"/>
      </g>
     </g>
     <g id="text_12">
      <!-- 0.2 -->
      <g style="fill: #262626" transform="translate(35.821875 247.206436) scale(0.1 -0.1)">
       <use xlink:href="#SuisseIntlMono-30"/>
       <use xlink:href="#SuisseIntlMono-2e" x="64.599991"/>
       <use xlink:href="#SuisseIntlMono-32" x="129.199982"/>
      </g>
     </g>
    </g>
    <g id="ytick_4">
     <g id="line2d_12">
      <g>
       <use xlink:href="#mbb78c73a28" x="57.6" y="211.580154" style="fill: #262626; stroke: #262626; stroke-width: 0.75"/>
      </g>
     </g>
     <g id="text_13">
      <!-- 0.3 -->
      <g style="fill: #262626" transform="translate(35.821875 215.205154) scale(0.1 -0.1)">
       <use xlink:href="#SuisseIntlMono-30"/>
       <use xlink:href="#SuisseIntlMono-2e" x="64.599991"/>
       <use xlink:href="#SuisseIntlMono-33" x="129.199982"/>
      </g>
     </g>
    </g>
    <g id="ytick_5">
     <g id="line2d_13">
      <g>
       <use xlink:href="#mbb78c73a28" x="57.6" y="179.578872" style="fill: #262626; stroke: #262626; stroke-width: 0.75"/>
      </g>
     </g>
     <g id="text_14">
      <!-- 0.4 -->
      <g style="fill: #262626" transform="translate(35.821875 183.203872) scale(0.1 -0.1)">
       <use xlink:href="#SuisseIntlMono-30"/>
       <use xlink:href="#SuisseIntlMono-2e" x="64.599991"/>
       <use xlink:href="#SuisseIntlMono-34" x="129.199982"/>
      </g>
     </g>
    </g>
    <g id="ytick_6">
     <g id="line2d_14">
      <g>
       <use xlink:href="#mbb78c73a28" x="57.6" y="147.57759" style="fill: #262626; stroke: #262626; stroke-width: 0.75"/>
      </g>
     </g>
     <g id="text_15">
      <!-- 0.5 -->
      <g style="fill: #262626" transform="translate(35.821875 151.20259) scale(0.1 -0.1)">
       <use xlink:href="#SuisseIntlMono-30"/>
       <use xlink:href="#SuisseIntlMono-2e" x="64.599991"/>
       <use xlink:href="#SuisseIntlMono-35" x="129.199982"/>
      </g>
     </g>
    </g>
    <g id="ytick_7">
     <g id="line2d_15">
      <g>
       <use xlink:href="#mbb78c73a28" x="57.6" y="115.576308" style="fill: #262626; stroke: #262626; stroke-width: 0.75"/>
      </g>
     </g>
     <g id="text_16">
      <!-- 0.6 -->
      <g style="fill: #262626" transform="translate(35.821875 119.201308) scale(0.1 -0.1)">
       <use xlink:href="#SuisseIntlMono-30"/>
       <use xlink:href="#SuisseIntlMono-2e" x="64.599991"/>
       <use xlink:href="#SuisseIntlMono-36" x="129.199982"/>
      </g>
     </g>
    </g>
    <g id="ytick_8">
     <g id="line2d_16">
      <g>
       <use xlink:href="#mbb78c73a28" x="57.6" y="83.575026" style="fill: #262626; stroke: #262626; stroke-width: 0.75"/>
      </g>
     </g>
     <g id="text_17">
      <!-- 0.7 -->
      <g style="fill: #262626" transform="translate(35.821875 87.200026) scale(0.1 -0.1)">
       <use xlink:href="#SuisseIntlMono-30"/>
       <use xlink:href="#SuisseIntlMono-2e" x="64.599991"/>
       <use xlink:href="#SuisseIntlMono-37" x="129.199982"/>
      </g>
     </g>
    </g>
    <g id="ytick_9">
     <g id="line2d_17">
      <g>
       <use xlink:href="#mbb78c73a28" x="57.6" y="51.573744" style="fill: #262626; stroke: #262626; stroke-width: 0.75"/>
      </g>
     </g>
     <g id="text_18">
      <!-- 0.8 -->
      <g style="fill: #262626" transform="translate(35.821875 55.198744) scale(0.1 -0.1)">
       <defs>
        <path id="SuisseIntlMono-38" d="M 2067 4723 
C 1165 4723 557 4218 557 3539 
C 557 3168 730 2720 1171 2477 
C 589 2227 422 1722 422 1306 
C 422 435 1158 -83 2067 -83 
C 2976 -83 3712 435 3712 1306 
C 3712 1722 3539 2227 2963 2477 
C 3398 2720 3571 3168 3571 3539 
C 3571 4218 2970 4723 2067 4723 
z
M 2067 2214 
C 2688 2214 3085 1843 3085 1306 
C 3085 768 2688 422 2067 422 
C 1446 422 1043 768 1043 1306 
C 1043 1843 1446 2214 2067 2214 
z
M 2982 3482 
C 2982 3021 2618 2669 2067 2669 
C 1517 2669 1152 3021 1152 3482 
C 1152 3936 1517 4218 2067 4218 
C 2618 4218 2982 3955 2982 3482 
z
" transform="scale(0.015625)"/>
       </defs>
       <use xlink:href="#SuisseIntlMono-30"/>
       <use xlink:href="#SuisseIntlMono-2e" x="64.599991"/>
       <use xlink:href="#SuisseIntlMono-38" x="129.199982"/>
      </g>
     </g>
    </g>
    <g id="text_19">
     <!-- Density -->
     <g transform="translate(30.796875 199.343625) rotate(-90) scale(0.15 -0.15)">
      <defs>
       <path id="SuisseIntl-Light-44" d="M 1677 4640 
L 550 4640 
L 550 0 
L 1677 0 
C 3155 0 4192 538 4192 2323 
C 4192 4102 3155 4640 1677 4640 
z
M 1664 4250 
C 2720 4250 3738 4038 3738 2323 
C 3738 608 2720 390 1664 390 
L 979 390 
L 979 4250 
L 1664 4250 
z
" transform="scale(0.015625)"/>
       <path id="SuisseIntl-Light-69" d="M 877 4640 
L 480 4640 
L 480 4006 
L 877 4006 
L 877 4640 
z
M 877 3443 
L 480 3443 
L 480 0 
L 877 0 
L 877 3443 
z
" transform="scale(0.015625)"/>
       <path id="SuisseIntl-Light-74" d="M 640 4218 
L 640 3443 
L 70 3443 
L 70 3098 
L 640 3098 
L 640 819 
C 640 141 781 0 1395 0 
L 1722 0 
L 1722 358 
L 1517 358 
C 1056 358 1043 448 1043 896 
L 1043 3098 
L 1722 3098 
L 1722 3443 
L 1043 3443 
L 1043 4218 
L 640 4218 
z
" transform="scale(0.015625)"/>
       <path id="SuisseIntl-Light-79" d="M 314 -1120 
L 538 -1120 
C 1158 -1120 1325 -1011 1568 -346 
L 2982 3443 
L 2554 3443 
L 1517 550 
L 448 3443 
L 0 3443 
L 1318 0 
L 1210 -275 
C 1030 -755 870 -774 544 -774 
L 314 -774 
L 314 -1120 
z
" transform="scale(0.015625)"/>
      </defs>
      <use xlink:href="#SuisseIntl-Light-44"/>
      <use xlink:href="#SuisseIntl-Light-65" x="69.499985"/>
      <use xlink:href="#SuisseIntl-Light-6e" x="125.299973"/>
      <use xlink:href="#SuisseIntl-Light-73" x="180.899963"/>
      <use xlink:href="#SuisseIntl-Light-69" x="232.999954"/>
      <use xlink:href="#SuisseIntl-Light-74" x="254.199951"/>
      <use xlink:href="#SuisseIntl-Light-79" x="284.299942"/>
     </g>
    </g>
   </g>
   <g id="line2d_18">
    <path d="M 40.579787 307.574633 
L 49.428347 307.429881 
L 55.748747 307.069373 
L 64.597307 306.299393 
L 67.125467 305.840938 
L 68.389547 305.477079 
L 69.653627 304.978918 
L 70.917707 304.30816 
L 72.181787 303.42412 
L 73.445867 302.284996 
L 74.709947 300.848883 
L 75.974027 299.074294 
L 77.238107 296.92004 
L 78.502187 294.344459 
L 79.766267 291.304127 
L 81.030347 287.752425 
L 82.294427 283.638449 
L 83.558507 278.906855 
L 84.822587 273.499191 
L 86.086667 267.357033 
L 87.350747 260.426962 
L 88.614827 252.66696 
L 89.878907 244.053421 
L 92.407067 224.301087 
L 94.935227 201.551151 
L 98.727467 163.79675 
L 102.519707 125.469406 
L 105.047867 101.816197 
L 107.576027 81.146375 
L 108.840107 72.295128 
L 110.104187 64.61026 
L 111.368267 58.205739 
L 112.632347 53.17203 
L 113.896427 49.568292 
L 115.160507 47.415202 
L 116.424587 46.689699 
L 117.688667 47.322797 
L 118.952747 49.201236 
L 120.216827 52.173223 
L 121.480907 56.057914 
L 122.744987 60.657709 
L 125.273147 71.210521 
L 130.329467 93.3261 
L 132.857627 103.505851 
L 135.385787 112.915542 
L 137.913947 121.672192 
L 141.706187 133.882432 
L 148.026587 153.671089 
L 150.554747 162.394851 
L 153.082907 171.846478 
L 159.403307 196.322929 
L 161.931467 205.2428 
L 165.723707 217.438361 
L 172.044107 237.372556 
L 177.100427 253.512253 
L 179.628587 260.618604 
L 180.892667 263.729072 
L 182.156747 266.498702 
L 183.420827 268.916584 
L 184.684907 270.991482 
L 185.948987 272.750255 
L 187.213067 274.234394 
L 188.477147 275.495072 
L 191.005307 277.563896 
L 194.797547 280.190915 
L 198.589787 282.628017 
L 201.117947 283.982077 
L 203.646107 284.931427 
L 206.174267 285.432595 
L 208.702427 285.614998 
L 211.230587 285.74684 
L 213.758747 286.133727 
L 215.022827 286.499212 
L 216.286907 287.002162 
L 217.550987 287.646165 
L 220.079147 289.321565 
L 222.607307 291.379931 
L 228.927707 296.805493 
L 231.455867 298.582979 
L 233.984027 299.948374 
L 236.512187 300.886313 
L 239.040347 301.484135 
L 246.624827 302.928838 
L 250.417067 304.057139 
L 254.209307 305.160287 
L 256.737467 305.662975 
L 259.265628 305.913155 
L 263.057868 305.928286 
L 268.114188 305.869367 
L 271.906428 306.119048 
L 284.547228 307.417739 
L 290.867628 307.563213 
L 292.131708 307.571337 
L 292.131708 307.571337 
" clip-path="url(#pf85521a92e)" style="fill: none; stroke: #5088c5; stroke-width: 1.5; stroke-linecap: round"/>
   </g>
   <g id="line2d_19">
    <path d="M 127.667891 307.584 
L 127.667891 41.472 
" clip-path="url(#pf85521a92e)" style="fill: none; stroke: #5088c5; stroke-width: 1.5; stroke-linecap: round"/>
   </g>
   <g id="line2d_20">
    <path d="M -1 298.365362 
L -0.842605 298.294279 
L 2.793132 296.38344 
L 6.428869 294.179512 
L 10.064606 291.660398 
L 13.700344 288.807252 
L 17.336081 285.605638 
L 20.971818 282.046729 
L 24.607555 278.128479 
L 28.243293 273.856716 
L 31.87903 269.246084 
L 35.514767 264.320789 
L 39.150504 259.115055 
L 46.421979 248.049767 
L 60.964928 225.12573 
L 64.600665 219.689208 
L 68.236402 214.542421 
L 71.872139 209.770363 
L 75.507877 205.453416 
L 79.143614 201.664839 
L 82.779351 198.468432 
L 86.415088 195.916486 
L 90.050826 194.048112 
L 93.686563 192.888025 
L 97.3223 192.445837 
L 100.958037 192.715895 
L 104.593775 193.677659 
L 108.229512 195.296602 
L 111.865249 197.525579 
L 115.500986 200.306597 
L 119.136724 203.572894 
L 122.772461 207.251236 
L 126.408198 211.264312 
L 130.043935 215.533143 
L 137.31541 224.527477 
L 148.222622 238.105616 
L 151.858359 242.419384 
L 155.494096 246.552613 
L 159.129833 250.47388 
L 162.765571 254.160477 
L 166.401308 257.597962 
L 170.037045 260.779483 
L 173.672782 263.704933 
L 177.308519 266.379978 
L 180.944257 268.815033 
L 184.579994 271.024204 
L 188.215731 273.024269 
L 191.851468 274.833715 
L 195.487206 276.471869 
L 199.122943 277.958136 
L 206.394417 280.549358 
L 213.665892 282.743386 
L 220.937366 284.650244 
L 228.208841 286.350967 
L 239.116053 288.628277 
L 250.023264 290.658802 
L 260.930476 292.482396 
L 271.837688 294.118027 
L 286.380637 296.043899 
L 304.559323 298.152962 
L 337.280958 301.619385 
L 359.095382 303.798439 
L 373.638331 305.05639 
L 388.181279 306.050973 
L 399.088491 306.599394 
L 413.63144 307.082804 
L 428.174389 307.335005 
L 446.353075 307.409399 
L 461.8 307.289607 
L 461.8 307.289607 
" clip-path="url(#pf85521a92e)" style="fill: none; stroke: #f28360; stroke-width: 1.5; stroke-linecap: round"/>
   </g>
   <g id="line2d_21">
    <path d="M 97.022744 307.584 
L 97.022744 41.472 
" clip-path="url(#pf85521a92e)" style="fill: none; stroke: #5088c5; stroke-width: 1.5; stroke-linecap: round"/>
   </g>
   <g id="patch_3">
    <path d="M 57.6 307.584 
L 57.6 41.472 
" style="fill: none; stroke: #000000; stroke-width: 0.75; stroke-linejoin: miter; stroke-linecap: square"/>
   </g>
   <g id="patch_4">
    <path d="M 57.6 307.584 
L 414.72 307.584 
" style="fill: none; stroke: #000000; stroke-width: 0.75; stroke-linejoin: miter; stroke-linecap: square"/>
   </g>
   <g id="legend_1">
    <g id="line2d_22">
     <path d="M 277.865313 54.222 
L 287.865313 54.222 
L 297.865313 54.222 
" style="fill: none; stroke: #5088c5; stroke-width: 1.5; stroke-linecap: round"/>
    </g>
    <g id="text_20">
     <!-- Within phenotype error -->
     <g transform="translate(305.865313 57.722) scale(0.1 -0.1)">
      <defs>
       <path id="SuisseIntl-Light-57" d="M 4256 563 
L 3213 4640 
L 2733 4640 
L 1722 563 
L 538 4640 
L 64 4640 
L 1459 0 
L 1952 0 
L 2970 3891 
L 3994 0 
L 4486 0 
L 5875 4640 
L 5414 4640 
L 4256 563 
z
" transform="scale(0.015625)"/>
       <path id="SuisseIntl-Light-68" d="M 877 2861 
L 877 4640 
L 480 4640 
L 480 0 
L 877 0 
L 877 1914 
C 877 2643 1325 3142 1920 3142 
C 2618 3142 2784 2707 2784 2061 
L 2784 0 
L 3181 0 
L 3181 2170 
C 3181 3014 2835 3501 2022 3501 
C 1382 3501 1043 3187 877 2861 
z
" transform="scale(0.015625)"/>
       <path id="SuisseIntl-Light-70" d="M 2042 -83 
C 2835 -83 3482 570 3482 1709 
C 3482 2854 2835 3501 2042 3501 
C 1536 3501 1120 3264 877 2854 
L 877 3443 
L 480 3443 
L 480 -1120 
L 877 -1120 
L 877 570 
C 1120 154 1536 -83 2042 -83 
z
M 1958 275 
C 1440 275 851 691 851 1709 
C 851 2726 1440 3142 1958 3142 
C 2598 3142 3053 2624 3053 1709 
C 3053 794 2598 275 1958 275 
z
" transform="scale(0.015625)"/>
      </defs>
      <use xlink:href="#SuisseIntl-Light-57"/>
      <use xlink:href="#SuisseIntl-Light-69" x="92.799988"/>
      <use xlink:href="#SuisseIntl-Light-74" x="113.999985"/>
      <use xlink:href="#SuisseIntl-Light-68" x="144.099976"/>
      <use xlink:href="#SuisseIntl-Light-69" x="199.699966"/>
      <use xlink:href="#SuisseIntl-Light-6e" x="220.899963"/>
      <use xlink:href="#SuisseIntl-Light-20" x="276.499954"/>
      <use xlink:href="#SuisseIntl-Light-70" x="300.199951"/>
      <use xlink:href="#SuisseIntl-Light-68" x="357.799942"/>
      <use xlink:href="#SuisseIntl-Light-65" x="413.399933"/>
      <use xlink:href="#SuisseIntl-Light-6e" x="469.199921"/>
      <use xlink:href="#SuisseIntl-Light-6f" x="524.799911"/>
      <use xlink:href="#SuisseIntl-Light-74" x="580.099899"/>
      <use xlink:href="#SuisseIntl-Light-79" x="610.19989"/>
      <use xlink:href="#SuisseIntl-Light-70" x="656.799881"/>
      <use xlink:href="#SuisseIntl-Light-65" x="714.399872"/>
      <use xlink:href="#SuisseIntl-Light-20" x="770.19986"/>
      <use xlink:href="#SuisseIntl-Light-65" x="793.899857"/>
      <use xlink:href="#SuisseIntl-Light-72" x="849.699844"/>
      <use xlink:href="#SuisseIntl-Light-72" x="880.899841"/>
      <use xlink:href="#SuisseIntl-Light-6f" x="912.099838"/>
      <use xlink:href="#SuisseIntl-Light-72" x="967.399826"/>
     </g>
    </g>
    <g id="line2d_23">
     <path d="M 277.865313 68.222 
L 287.865313 68.222 
L 297.865313 68.222 
" style="fill: none; stroke: #f28360; stroke-width: 1.5; stroke-linecap: round"/>
    </g>
    <g id="text_21">
     <!-- Within individual error -->
     <g transform="translate(305.865313 71.722) scale(0.1 -0.1)">
      <defs>
       <path id="SuisseIntl-Light-76" d="M 1517 550 
L 448 3443 
L 0 3443 
L 1318 0 
L 1702 0 
L 2982 3443 
L 2554 3443 
L 1517 550 
z
" transform="scale(0.015625)"/>
       <path id="SuisseIntl-Light-6c" d="M 877 0 
L 877 4640 
L 480 4640 
L 480 0 
L 877 0 
z
" transform="scale(0.015625)"/>
      </defs>
      <use xlink:href="#SuisseIntl-Light-57"/>
      <use xlink:href="#SuisseIntl-Light-69" x="92.799988"/>
      <use xlink:href="#SuisseIntl-Light-74" x="113.999985"/>
      <use xlink:href="#SuisseIntl-Light-68" x="144.099976"/>
      <use xlink:href="#SuisseIntl-Light-69" x="199.699966"/>
      <use xlink:href="#SuisseIntl-Light-6e" x="220.899963"/>
      <use xlink:href="#SuisseIntl-Light-20" x="276.499954"/>
      <use xlink:href="#SuisseIntl-Light-69" x="300.199951"/>
      <use xlink:href="#SuisseIntl-Light-6e" x="321.399948"/>
      <use xlink:href="#SuisseIntl-Light-64" x="376.999939"/>
      <use xlink:href="#SuisseIntl-Light-69" x="434.59993"/>
      <use xlink:href="#SuisseIntl-Light-76" x="455.799927"/>
      <use xlink:href="#SuisseIntl-Light-69" x="502.399918"/>
      <use xlink:href="#SuisseIntl-Light-64" x="523.599915"/>
      <use xlink:href="#SuisseIntl-Light-75" x="581.199905"/>
      <use xlink:href="#SuisseIntl-Light-61" x="635.599899"/>
      <use xlink:href="#SuisseIntl-Light-6c" x="688.499893"/>
      <use xlink:href="#SuisseIntl-Light-20" x="709.69989"/>
      <use xlink:href="#SuisseIntl-Light-65" x="733.399887"/>
      <use xlink:href="#SuisseIntl-Light-72" x="789.199875"/>
      <use xlink:href="#SuisseIntl-Light-72" x="820.399872"/>
      <use xlink:href="#SuisseIntl-Light-6f" x="851.599869"/>
      <use xlink:href="#SuisseIntl-Light-72" x="906.899857"/>
     </g>
    </g>
   </g>
  </g>
 </g>
 <defs>
  <clipPath id="pf85521a92e">
   <rect x="57.6" y="41.472" width="357.12" height="266.112"/>
  </clipPath>
 </defs>
</svg>
