<?xml version="1.0" encoding="utf-8" standalone="no"?>
<!DOCTYPE svg PUBLIC "-//W3C//DTD SVG 1.1//EN"
  "http://www.w3.org/Graphics/SVG/1.1/DTD/svg11.dtd">
<svg xmlns:xlink="http://www.w3.org/1999/xlink" width="460.8pt" height="345.6pt" viewBox="0 0 460.8 345.6" xmlns="http://www.w3.org/2000/svg" version="1.1">
 <metadata>
  <rdf:RDF xmlns:dc="http://purl.org/dc/elements/1.1/" xmlns:cc="http://creativecommons.org/ns#" xmlns:rdf="http://www.w3.org/1999/02/22-rdf-syntax-ns#">
   <cc:Work>
    <dc:type rdf:resource="http://purl.org/dc/dcmitype/StillImage"/>
    <dc:date>2025-02-07T13:02:03.890142</dc:date>
    <dc:format>image/svg+xml</dc:format>
    <dc:creator>
     <cc:Agent>
      <dc:title>Matplotlib v3.6.3, https://matplotlib.org/</dc:title>
     </cc:Agent>
    </dc:creator>
   </cc:Work>
  </rdf:RDF>
 </metadata>
 <defs>
  <style type="text/css">*{stroke-linejoin: round; stroke-linecap: butt}</style>
 </defs>
 <g id="figure_1">
  <g id="patch_1">
   <path d="M 0 345.6 
L 460.8 345.6 
L 460.8 0 
L 0 0 
L 0 345.6 
z
" style="fill: none"/>
  </g>
  <g id="axes_1">
   <g id="patch_2">
    <path d="M 57.6 307.584 
L 414.72 307.584 
L 414.72 41.472 
L 57.6 41.472 
L 57.6 307.584 
z
" style="fill: none"/>
   </g>
   <g id="matplotlib.axis_1">
    <g id="xtick_1">
     <g id="line2d_1">
      <defs>
       <path id="m03877881a6" d="M 0 0 
L 0 5 
" style="stroke: #262626; stroke-width: 0.75"/>
      </defs>
      <g>
       <use xlink:href="#m03877881a6" x="57.6" y="307.584" style="fill: #262626; stroke: #262626; stroke-width: 0.75"/>
      </g>
     </g>
     <g id="text_1">
      <text style="fill: #262626; font: 14.5px &quot;Suisse Int&apos;l Mono&quot;, monospace; text-anchor: middle" x="57.6" y="328.0965" transform="rotate(-0 57.6 328.0965)">0</text>
     </g>
    </g>
    <g id="xtick_2">
     <g id="line2d_2">
      <g>
       <use xlink:href="#m03877881a6" x="105.216" y="307.584" style="fill: #262626; stroke: #262626; stroke-width: 0.75"/>
      </g>
     </g>
     <g id="text_2">
      <text style="fill: #262626; font: 14.5px &quot;Suisse Int&apos;l Mono&quot;, monospace; text-anchor: middle" x="105.216" y="328.0965" transform="rotate(-0 105.216 328.0965)">2</text>
     </g>
    </g>
    <g id="xtick_3">
     <g id="line2d_3">
      <g>
       <use xlink:href="#m03877881a6" x="152.832" y="307.584" style="fill: #262626; stroke: #262626; stroke-width: 0.75"/>
      </g>
     </g>
     <g id="text_3">
      <text style="fill: #262626; font: 14.5px &quot;Suisse Int&apos;l Mono&quot;, monospace; text-anchor: middle" x="152.832" y="328.0965" transform="rotate(-0 152.832 328.0965)">4</text>
     </g>
    </g>
    <g id="xtick_4">
     <g id="line2d_4">
      <g>
       <use xlink:href="#m03877881a6" x="200.448" y="307.584" style="fill: #262626; stroke: #262626; stroke-width: 0.75"/>
      </g>
     </g>
     <g id="text_4">
      <text style="fill: #262626; font: 14.5px &quot;Suisse Int&apos;l Mono&quot;, monospace; text-anchor: middle" x="200.448" y="328.0965" transform="rotate(-0 200.448 328.0965)">6</text>
     </g>
    </g>
    <g id="xtick_5">
     <g id="line2d_5">
      <g>
       <use xlink:href="#m03877881a6" x="248.064" y="307.584" style="fill: #262626; stroke: #262626; stroke-width: 0.75"/>
      </g>
     </g>
     <g id="text_5">
      <text style="fill: #262626; font: 14.5px &quot;Suisse Int&apos;l Mono&quot;, monospace; text-anchor: middle" x="248.064" y="328.0965" transform="rotate(-0 248.064 328.0965)">8</text>
     </g>
    </g>
    <g id="xtick_6">
     <g id="line2d_6">
      <g>
       <use xlink:href="#m03877881a6" x="295.68" y="307.584" style="fill: #262626; stroke: #262626; stroke-width: 0.75"/>
      </g>
     </g>
     <g id="text_6">
      <text style="fill: #262626; font: 14.5px &quot;Suisse Int&apos;l Mono&quot;, monospace; text-anchor: middle" x="295.68" y="328.0965" transform="rotate(-0 295.68 328.0965)">10</text>
     </g>
    </g>
    <g id="xtick_7">
     <g id="line2d_7">
      <g>
       <use xlink:href="#m03877881a6" x="343.296" y="307.584" style="fill: #262626; stroke: #262626; stroke-width: 0.75"/>
      </g>
     </g>
     <g id="text_7">
      <text style="fill: #262626; font: 14.5px &quot;Suisse Int&apos;l Mono&quot;, monospace; text-anchor: middle" x="343.296" y="328.0965" transform="rotate(-0 343.296 328.0965)">12</text>
     </g>
    </g>
    <g id="xtick_8">
     <g id="line2d_8">
      <g>
       <use xlink:href="#m03877881a6" x="390.912" y="307.584" style="fill: #262626; stroke: #262626; stroke-width: 0.75"/>
      </g>
     </g>
     <g id="text_8">
      <text style="fill: #262626; font: 14.5px &quot;Suisse Int&apos;l Mono&quot;, monospace; text-anchor: middle" x="390.912" y="328.0965" transform="rotate(-0 390.912 328.0965)">14</text>
     </g>
    </g>
    <g id="text_9">
     <text style="font: 500 15px &quot;Suisse Int&apos;l&quot;; text-anchor: middle" x="236.16" y="351.509" transform="rotate(-0 236.16 351.509)">Mean absolute percentage error</text>
    </g>
   </g>
   <g id="matplotlib.axis_2">
    <g id="ytick_1">
     <g id="line2d_9">
      <defs>
       <path id="mefaabfd321" d="M 0 0 
L -5 0 
" style="stroke: #262626; stroke-width: 0.75"/>
      </defs>
      <g>
       <use xlink:href="#mefaabfd321" x="57.6" y="307.584" style="fill: #262626; stroke: #262626; stroke-width: 0.75"/>
      </g>
     </g>
     <g id="text_10">
      <text style="fill: #262626; font: 14.5px &quot;Suisse Int&apos;l Mono&quot;, monospace; text-anchor: end" x="47.6" y="312.84025" transform="rotate(-0 47.6 312.84025)">0.0</text>
     </g>
    </g>
    <g id="ytick_2">
     <g id="line2d_10">
      <g>
       <use xlink:href="#mefaabfd321" x="57.6" y="271.55434" style="fill: #262626; stroke: #262626; stroke-width: 0.75"/>
      </g>
     </g>
     <g id="text_11">
      <text style="fill: #262626; font: 14.5px &quot;Suisse Int&apos;l Mono&quot;, monospace; text-anchor: end" x="47.6" y="276.81059" transform="rotate(-0 47.6 276.81059)">0.1</text>
     </g>
    </g>
    <g id="ytick_3">
     <g id="line2d_11">
      <g>
       <use xlink:href="#mefaabfd321" x="57.6" y="235.524681" style="fill: #262626; stroke: #262626; stroke-width: 0.75"/>
      </g>
     </g>
     <g id="text_12">
      <text style="fill: #262626; font: 14.5px &quot;Suisse Int&apos;l Mono&quot;, monospace; text-anchor: end" x="47.6" y="240.780931" transform="rotate(-0 47.6 240.780931)">0.2</text>
     </g>
    </g>
    <g id="ytick_4">
     <g id="line2d_12">
      <g>
       <use xlink:href="#mefaabfd321" x="57.6" y="199.495021" style="fill: #262626; stroke: #262626; stroke-width: 0.75"/>
      </g>
     </g>
     <g id="text_13">
      <text style="fill: #262626; font: 14.5px &quot;Suisse Int&apos;l Mono&quot;, monospace; text-anchor: end" x="47.6" y="204.751271" transform="rotate(-0 47.6 204.751271)">0.3</text>
     </g>
    </g>
    <g id="ytick_5">
     <g id="line2d_13">
      <g>
       <use xlink:href="#mefaabfd321" x="57.6" y="163.465361" style="fill: #262626; stroke: #262626; stroke-width: 0.75"/>
      </g>
     </g>
     <g id="text_14">
      <text style="fill: #262626; font: 14.5px &quot;Suisse Int&apos;l Mono&quot;, monospace; text-anchor: end" x="47.6" y="168.721611" transform="rotate(-0 47.6 168.721611)">0.4</text>
     </g>
    </g>
    <g id="ytick_6">
     <g id="line2d_14">
      <g>
       <use xlink:href="#mefaabfd321" x="57.6" y="127.435702" style="fill: #262626; stroke: #262626; stroke-width: 0.75"/>
      </g>
     </g>
     <g id="text_15">
      <text style="fill: #262626; font: 14.5px &quot;Suisse Int&apos;l Mono&quot;, monospace; text-anchor: end" x="47.6" y="132.691952" transform="rotate(-0 47.6 132.691952)">0.5</text>
     </g>
    </g>
    <g id="ytick_7">
     <g id="line2d_15">
      <g>
       <use xlink:href="#mefaabfd321" x="57.6" y="91.406042" style="fill: #262626; stroke: #262626; stroke-width: 0.75"/>
      </g>
     </g>
     <g id="text_16">
      <text style="fill: #262626; font: 14.5px &quot;Suisse Int&apos;l Mono&quot;, monospace; text-anchor: end" x="47.6" y="96.662292" transform="rotate(-0 47.6 96.662292)">0.6</text>
     </g>
    </g>
    <g id="ytick_8">
     <g id="line2d_16">
      <g>
       <use xlink:href="#mefaabfd321" x="57.6" y="55.376383" style="fill: #262626; stroke: #262626; stroke-width: 0.75"/>
      </g>
     </g>
     <g id="text_17">
      <text style="fill: #262626; font: 14.5px &quot;Suisse Int&apos;l Mono&quot;, monospace; text-anchor: end" x="47.6" y="60.632633" transform="rotate(-0 47.6 60.632633)">0.7</text>
     </g>
    </g>
    <g id="text_18">
     <text style="font: 500 15px &quot;Suisse Int&apos;l&quot;; text-anchor: middle" x="6.876719" y="174.528" transform="rotate(-90 6.876719 174.528)">Density</text>
    </g>
   </g>
   <g id="line2d_17">
    <path d="M 104.398301 307.548446 
L 106.656323 307.376244 
L 107.785335 307.142664 
L 108.914346 306.722085 
L 110.043357 306.033146 
L 111.172368 305.005602 
L 112.30138 303.606987 
L 113.430391 301.860198 
L 115.123908 298.740029 
L 116.817425 295.15366 
L 117.946436 292.365415 
L 119.075447 288.943395 
L 120.204458 284.483361 
L 121.33347 278.568825 
L 122.462481 270.898945 
L 123.591492 261.397867 
L 125.285009 244.218307 
L 133.752594 148.894251 
L 136.575122 117.815652 
L 138.268639 101.585082 
L 139.962156 87.660256 
L 141.655673 75.399685 
L 143.349189 64.280753 
L 145.042706 54.715838 
L 146.171718 49.915277 
L 146.736223 48.222012 
L 147.300729 47.11749 
L 147.865235 46.689546 
L 148.42974 47.020393 
L 148.994246 48.181462 
L 149.558751 50.227857 
L 150.123257 53.192687 
L 150.687763 57.081669 
L 151.816774 67.491653 
L 152.945785 80.819306 
L 156.897325 131.300987 
L 158.026336 141.644292 
L 159.155347 149.6639 
L 162.542381 170.649964 
L 163.671392 179.718422 
L 165.364909 195.449437 
L 169.880954 238.816676 
L 171.574471 253.067916 
L 173.267988 265.182421 
L 174.396999 271.881111 
L 175.526011 277.519894 
L 176.655022 282.233697 
L 177.784033 286.178368 
L 178.913044 289.486378 
L 180.042056 292.253409 
L 181.171067 294.545967 
L 182.300078 296.413601 
L 183.42909 297.896163 
L 184.558101 299.026869 
L 185.687112 299.837517 
L 186.816123 300.370072 
L 188.50964 300.802347 
L 190.767663 301.266346 
L 191.896674 301.700527 
L 193.025685 302.343607 
L 194.719202 303.616352 
L 196.977225 305.346336 
L 198.106236 305.982432 
L 199.235247 306.38308 
L 200.364259 306.546418 
L 201.49327 306.514538 
L 206.009315 306.038176 
L 207.702832 306.257107 
L 213.347888 307.407363 
L 216.170416 307.557165 
L 216.734922 307.566838 
L 216.734922 307.566838 
" clip-path="url(#p857aec8945)" style="fill: none; stroke: #5088c5; stroke-width: 1.5; stroke-linecap: round"/>
   </g>
   <g id="line2d_18">
    <path d="M 147.621825 307.584 
L 147.621825 41.472 
" clip-path="url(#p857aec8945)" style="fill: none; stroke: #5088c5; stroke-width: 1.5; stroke-linecap: round"/>
   </g>
   <g id="line2d_19">
    <path d="M 141.942917 307.584 
L 141.942917 41.472 
" clip-path="url(#p857aec8945)" style="fill: none; stroke: #5088c5; stroke-width: 1.5; stroke-linecap: round"/>
   </g>
   <g id="line2d_20">
    <path d="M 83.348551 307.374652 
L 86.509281 307.093907 
L 88.879829 306.697382 
L 91.250377 306.040031 
L 92.830742 305.395376 
L 94.411108 304.532233 
L 95.991473 303.397231 
L 97.571838 301.931181 
L 99.152203 300.070678 
L 100.732569 297.750349 
L 102.312934 294.905687 
L 103.893299 291.476329 
L 105.473664 287.40953 
L 107.05403 282.663607 
L 108.634395 277.211077 
L 110.21476 271.04127 
L 111.795126 264.16227 
L 114.165673 252.58108 
L 116.536221 239.653863 
L 119.696952 220.831742 
L 127.598778 172.55499 
L 129.969326 160.166465 
L 131.549692 153.068028 
L 133.130057 147.124768 
L 134.710422 142.509317 
L 135.500605 140.745286 
L 136.290787 139.36333 
L 137.08097 138.374615 
L 137.871153 137.78715 
L 138.661335 137.605555 
L 139.451518 137.830877 
L 140.241701 138.460465 
L 141.031883 139.487898 
L 141.822066 140.902979 
L 142.612248 142.6918 
L 143.402431 144.836866 
L 144.982796 150.109083 
L 146.563162 156.517053 
L 148.143527 163.819767 
L 150.514075 175.868377 
L 156.045353 204.516675 
L 158.415901 215.326977 
L 159.996266 221.73648 
L 161.576632 227.471406 
L 163.156997 232.553924 
L 164.737362 237.044071 
L 166.317728 241.028047 
L 168.688276 246.273028 
L 171.058823 250.929574 
L 174.219554 256.643242 
L 178.170467 263.296894 
L 180.541015 266.944684 
L 182.911563 270.182219 
L 184.491928 272.051844 
L 186.072294 273.662793 
L 187.652659 275.008857 
L 189.233024 276.101662 
L 190.813389 276.970404 
L 193.183937 277.954304 
L 199.505398 280.155244 
L 201.085764 280.932219 
L 202.666129 281.887036 
L 204.246494 283.038336 
L 206.617042 285.133847 
L 208.98759 287.61414 
L 212.148321 291.303574 
L 216.889416 296.878165 
L 219.259964 299.35738 
L 221.630512 301.493633 
L 224.00106 303.243383 
L 226.371608 304.60772 
L 228.742156 305.621598 
L 231.112704 306.340315 
L 233.483252 306.826666 
L 236.643982 307.216841 
L 240.594896 307.449802 
L 240.594896 307.449802 
" clip-path="url(#p857aec8945)" style="fill: none; stroke: #f28360; stroke-width: 1.5; stroke-linecap: round"/>
   </g>
   <g id="patch_3">
    <path d="M 57.6 307.584 
L 57.6 41.472 
" style="fill: none; stroke: #000000; stroke-width: 0.75; stroke-linejoin: miter; stroke-linecap: square"/>
   </g>
   <g id="patch_4">
    <path d="M 57.6 307.584 
L 414.72 307.584 
" style="fill: none; stroke: #000000; stroke-width: 0.75; stroke-linejoin: miter; stroke-linecap: square"/>
   </g>
   <g id="legend_1">
    <g id="line2d_21">
     <path d="M 201.872344 60.597 
L 216.872344 60.597 
L 231.872344 60.597 
" style="fill: none; stroke: #5088c5; stroke-width: 1.5; stroke-linecap: round"/>
    </g>
    <g id="text_19">
     <text style="font: 15px &quot;Suisse Int&apos;l&quot;; text-anchor: start" x="243.872344" y="65.847" transform="rotate(-0 243.872344 65.847)">Within phenotype error</text>
    </g>
    <g id="line2d_22">
     <path d="M 201.872344 84.096 
L 216.872344 84.096 
L 231.872344 84.096 
" style="fill: none; stroke: #f28360; stroke-width: 1.5; stroke-linecap: round"/>
    </g>
    <g id="text_20">
     <text style="font: 15px &quot;Suisse Int&apos;l&quot;; text-anchor: start" x="243.872344" y="89.346" transform="rotate(-0 243.872344 89.346)">Within individual error</text>
    </g>
   </g>
  </g>
 </g>
 <defs>
  <clipPath id="p857aec8945">
   <rect x="57.6" y="41.472" width="357.12" height="266.112"/>
  </clipPath>
 </defs>
</svg>
