<?xml version="1.0" encoding="utf-8" standalone="no"?>
<!DOCTYPE svg PUBLIC "-//W3C//DTD SVG 1.1//EN"
  "http://www.w3.org/Graphics/SVG/1.1/DTD/svg11.dtd">
<svg xmlns:xlink="http://www.w3.org/1999/xlink" width="460.8pt" height="345.6pt" viewBox="0 0 460.8 345.6" xmlns="http://www.w3.org/2000/svg" version="1.1">
 <metadata>
  <rdf:RDF xmlns:dc="http://purl.org/dc/elements/1.1/" xmlns:cc="http://creativecommons.org/ns#" xmlns:rdf="http://www.w3.org/1999/02/22-rdf-syntax-ns#">
   <cc:Work>
    <dc:type rdf:resource="http://purl.org/dc/dcmitype/StillImage"/>
    <dc:date>2025-02-07T13:02:04.746223</dc:date>
    <dc:format>image/svg+xml</dc:format>
    <dc:creator>
     <cc:Agent>
      <dc:title>Matplotlib v3.6.3, https://matplotlib.org/</dc:title>
     </cc:Agent>
    </dc:creator>
   </cc:Work>
  </rdf:RDF>
 </metadata>
 <defs>
  <style type="text/css">*{stroke-linejoin: round; stroke-linecap: butt}</style>
 </defs>
 <g id="figure_1">
  <g id="patch_1">
   <path d="M 0 345.6 
L 460.8 345.6 
L 460.8 0 
L 0 0 
L 0 345.6 
z
" style="fill: none"/>
  </g>
  <g id="axes_1">
   <g id="patch_2">
    <path d="M 57.6 307.584 
L 414.72 307.584 
L 414.72 41.472 
L 57.6 41.472 
L 57.6 307.584 
z
" style="fill: none"/>
   </g>
   <g id="matplotlib.axis_1">
    <g id="xtick_1">
     <g id="line2d_1">
      <defs>
       <path id="mad63ec427a" d="M 0 0 
L 0 5 
" style="stroke: #262626; stroke-width: 0.75"/>
      </defs>
      <g>
       <use xlink:href="#mad63ec427a" x="57.6" y="307.584" style="fill: #262626; stroke: #262626; stroke-width: 0.75"/>
      </g>
     </g>
     <g id="text_1">
      <text style="fill: #262626; font: 14.5px &quot;Suisse Int&apos;l Mono&quot;, monospace; text-anchor: middle" x="57.6" y="328.0965" transform="rotate(-0 57.6 328.0965)">0</text>
     </g>
    </g>
    <g id="xtick_2">
     <g id="line2d_2">
      <g>
       <use xlink:href="#mad63ec427a" x="105.216" y="307.584" style="fill: #262626; stroke: #262626; stroke-width: 0.75"/>
      </g>
     </g>
     <g id="text_2">
      <text style="fill: #262626; font: 14.5px &quot;Suisse Int&apos;l Mono&quot;, monospace; text-anchor: middle" x="105.216" y="328.0965" transform="rotate(-0 105.216 328.0965)">2</text>
     </g>
    </g>
    <g id="xtick_3">
     <g id="line2d_3">
      <g>
       <use xlink:href="#mad63ec427a" x="152.832" y="307.584" style="fill: #262626; stroke: #262626; stroke-width: 0.75"/>
      </g>
     </g>
     <g id="text_3">
      <text style="fill: #262626; font: 14.5px &quot;Suisse Int&apos;l Mono&quot;, monospace; text-anchor: middle" x="152.832" y="328.0965" transform="rotate(-0 152.832 328.0965)">4</text>
     </g>
    </g>
    <g id="xtick_4">
     <g id="line2d_4">
      <g>
       <use xlink:href="#mad63ec427a" x="200.448" y="307.584" style="fill: #262626; stroke: #262626; stroke-width: 0.75"/>
      </g>
     </g>
     <g id="text_4">
      <text style="fill: #262626; font: 14.5px &quot;Suisse Int&apos;l Mono&quot;, monospace; text-anchor: middle" x="200.448" y="328.0965" transform="rotate(-0 200.448 328.0965)">6</text>
     </g>
    </g>
    <g id="xtick_5">
     <g id="line2d_5">
      <g>
       <use xlink:href="#mad63ec427a" x="248.064" y="307.584" style="fill: #262626; stroke: #262626; stroke-width: 0.75"/>
      </g>
     </g>
     <g id="text_5">
      <text style="fill: #262626; font: 14.5px &quot;Suisse Int&apos;l Mono&quot;, monospace; text-anchor: middle" x="248.064" y="328.0965" transform="rotate(-0 248.064 328.0965)">8</text>
     </g>
    </g>
    <g id="xtick_6">
     <g id="line2d_6">
      <g>
       <use xlink:href="#mad63ec427a" x="295.68" y="307.584" style="fill: #262626; stroke: #262626; stroke-width: 0.75"/>
      </g>
     </g>
     <g id="text_6">
      <text style="fill: #262626; font: 14.5px &quot;Suisse Int&apos;l Mono&quot;, monospace; text-anchor: middle" x="295.68" y="328.0965" transform="rotate(-0 295.68 328.0965)">10</text>
     </g>
    </g>
    <g id="xtick_7">
     <g id="line2d_7">
      <g>
       <use xlink:href="#mad63ec427a" x="343.296" y="307.584" style="fill: #262626; stroke: #262626; stroke-width: 0.75"/>
      </g>
     </g>
     <g id="text_7">
      <text style="fill: #262626; font: 14.5px &quot;Suisse Int&apos;l Mono&quot;, monospace; text-anchor: middle" x="343.296" y="328.0965" transform="rotate(-0 343.296 328.0965)">12</text>
     </g>
    </g>
    <g id="xtick_8">
     <g id="line2d_8">
      <g>
       <use xlink:href="#mad63ec427a" x="390.912" y="307.584" style="fill: #262626; stroke: #262626; stroke-width: 0.75"/>
      </g>
     </g>
     <g id="text_8">
      <text style="fill: #262626; font: 14.5px &quot;Suisse Int&apos;l Mono&quot;, monospace; text-anchor: middle" x="390.912" y="328.0965" transform="rotate(-0 390.912 328.0965)">14</text>
     </g>
    </g>
    <g id="text_9">
     <text style="font: 500 15px &quot;Suisse Int&apos;l&quot;; text-anchor: middle" x="236.16" y="351.509" transform="rotate(-0 236.16 351.509)">Mean absolute percentage error</text>
    </g>
   </g>
   <g id="matplotlib.axis_2">
    <g id="ytick_1">
     <g id="line2d_9">
      <defs>
       <path id="m77b4a397af" d="M 0 0 
L -5 0 
" style="stroke: #262626; stroke-width: 0.75"/>
      </defs>
      <g>
       <use xlink:href="#m77b4a397af" x="57.6" y="307.584" style="fill: #262626; stroke: #262626; stroke-width: 0.75"/>
      </g>
     </g>
     <g id="text_10">
      <text style="fill: #262626; font: 14.5px &quot;Suisse Int&apos;l Mono&quot;, monospace; text-anchor: end" x="47.6" y="312.84025" transform="rotate(-0 47.6 312.84025)">0.00</text>
     </g>
    </g>
    <g id="ytick_2">
     <g id="line2d_10">
      <g>
       <use xlink:href="#m77b4a397af" x="57.6" y="264.870281" style="fill: #262626; stroke: #262626; stroke-width: 0.75"/>
      </g>
     </g>
     <g id="text_11">
      <text style="fill: #262626; font: 14.5px &quot;Suisse Int&apos;l Mono&quot;, monospace; text-anchor: end" x="47.6" y="270.126531" transform="rotate(-0 47.6 270.126531)">0.05</text>
     </g>
    </g>
    <g id="ytick_3">
     <g id="line2d_11">
      <g>
       <use xlink:href="#m77b4a397af" x="57.6" y="222.156561" style="fill: #262626; stroke: #262626; stroke-width: 0.75"/>
      </g>
     </g>
     <g id="text_12">
      <text style="fill: #262626; font: 14.5px &quot;Suisse Int&apos;l Mono&quot;, monospace; text-anchor: end" x="47.6" y="227.412811" transform="rotate(-0 47.6 227.412811)">0.10</text>
     </g>
    </g>
    <g id="ytick_4">
     <g id="line2d_12">
      <g>
       <use xlink:href="#m77b4a397af" x="57.6" y="179.442842" style="fill: #262626; stroke: #262626; stroke-width: 0.75"/>
      </g>
     </g>
     <g id="text_13">
      <text style="fill: #262626; font: 14.5px &quot;Suisse Int&apos;l Mono&quot;, monospace; text-anchor: end" x="47.6" y="184.699092" transform="rotate(-0 47.6 184.699092)">0.15</text>
     </g>
    </g>
    <g id="ytick_5">
     <g id="line2d_13">
      <g>
       <use xlink:href="#m77b4a397af" x="57.6" y="136.729122" style="fill: #262626; stroke: #262626; stroke-width: 0.75"/>
      </g>
     </g>
     <g id="text_14">
      <text style="fill: #262626; font: 14.5px &quot;Suisse Int&apos;l Mono&quot;, monospace; text-anchor: end" x="47.6" y="141.985372" transform="rotate(-0 47.6 141.985372)">0.20</text>
     </g>
    </g>
    <g id="ytick_6">
     <g id="line2d_14">
      <g>
       <use xlink:href="#m77b4a397af" x="57.6" y="94.015403" style="fill: #262626; stroke: #262626; stroke-width: 0.75"/>
      </g>
     </g>
     <g id="text_15">
      <text style="fill: #262626; font: 14.5px &quot;Suisse Int&apos;l Mono&quot;, monospace; text-anchor: end" x="47.6" y="99.271653" transform="rotate(-0 47.6 99.271653)">0.25</text>
     </g>
    </g>
    <g id="ytick_7">
     <g id="line2d_15">
      <g>
       <use xlink:href="#m77b4a397af" x="57.6" y="51.301683" style="fill: #262626; stroke: #262626; stroke-width: 0.75"/>
      </g>
     </g>
     <g id="text_16">
      <text style="fill: #262626; font: 14.5px &quot;Suisse Int&apos;l Mono&quot;, monospace; text-anchor: end" x="47.6" y="56.557933" transform="rotate(-0 47.6 56.557933)">0.30</text>
     </g>
    </g>
    <g id="text_17">
     <text style="font: 500 15px &quot;Suisse Int&apos;l&quot;; text-anchor: middle" x="-2.489375" y="174.528" transform="rotate(-90 -2.489375 174.528)">Density</text>
    </g>
   </g>
   <g id="line2d_16">
    <path d="M 162.325831 307.568257 
L 171.030795 307.424561 
L 175.383277 307.188025 
L 179.735759 306.731939 
L 182.637414 306.255779 
L 185.539069 305.598698 
L 188.440723 304.705753 
L 191.342378 303.488802 
L 192.793206 302.717424 
L 194.244033 301.807214 
L 195.69486 300.729759 
L 197.145688 299.452022 
L 198.596515 297.936781 
L 200.047343 296.143565 
L 201.49817 294.030169 
L 202.948997 291.554777 
L 204.399825 288.678641 
L 205.850652 285.369208 
L 207.301479 281.603472 
L 208.752307 277.371251 
L 210.203134 272.678052 
L 213.104789 262.020359 
L 216.006444 250.035229 
L 223.260581 218.712869 
L 226.162235 207.344467 
L 229.06389 197.054436 
L 233.416372 182.928988 
L 236.318027 173.452539 
L 239.219682 163.167181 
L 242.121337 151.731709 
L 245.022991 139.269051 
L 250.826301 113.947638 
L 252.277128 108.222324 
L 253.727956 102.969445 
L 255.178783 98.276242 
L 256.62961 94.204348 
L 258.080438 90.786962 
L 259.531265 88.028456 
L 260.982092 85.906361 
L 262.43292 84.375395 
L 263.883747 83.373072 
L 265.334575 82.826258 
L 266.785402 82.658039 
L 268.236229 82.794231 
L 269.687057 83.168978 
L 271.137884 83.728964 
L 272.588712 84.435983 
L 275.490366 86.217091 
L 276.941194 87.289782 
L 278.392021 88.501504 
L 279.842848 89.87444 
L 281.293676 91.434075 
L 282.744503 93.206656 
L 284.195331 95.217639 
L 285.646158 97.491184 
L 287.096985 100.050546 
L 288.547813 102.918945 
L 289.99864 106.120391 
L 291.449467 109.679877 
L 292.900295 113.622483 
L 294.351122 117.971158 
L 295.80195 122.743281 
L 297.252777 127.946397 
L 300.154432 139.601048 
L 303.056086 152.656495 
L 311.761051 193.663793 
L 314.662706 205.599993 
L 317.56436 216.006672 
L 320.466015 224.882275 
L 321.916842 228.785991 
L 323.36767 232.360864 
L 324.818497 235.626356 
L 326.269325 238.600179 
L 327.720152 241.298995 
L 329.170979 243.739981 
L 330.621807 245.94274 
L 333.523461 249.733555 
L 336.425116 252.920703 
L 346.580908 263.279458 
L 350.93339 268.275257 
L 358.187527 276.979587 
L 365.441664 286.123501 
L 368.343319 289.688858 
L 371.244973 292.929697 
L 374.146628 295.671954 
L 375.597455 296.825874 
L 377.048283 297.833179 
L 379.949938 299.442288 
L 382.851592 300.612587 
L 385.753247 301.490059 
L 390.105729 302.530162 
L 397.359866 304.015993 
L 403.163176 304.990662 
L 407.515658 305.49409 
L 411.86814 305.772407 
L 426.376414 306.341058 
L 439.43386 307.330224 
L 446.687997 307.533013 
L 451.040479 307.5689 
L 451.040479 307.5689 
" clip-path="url(#pbfe5ac15a6)" style="fill: none; stroke: #5088c5; stroke-width: 1.5; stroke-linecap: round"/>
   </g>
   <g id="line2d_17">
    <path d="M 274.556653 307.584 
L 274.556653 41.472 
" clip-path="url(#pbfe5ac15a6)" style="fill: none; stroke: #5088c5; stroke-width: 1.5; stroke-linecap: round"/>
   </g>
   <g id="line2d_18">
    <path d="M 149.050551 307.416806 
L 154.627308 307.181668 
L 158.809875 306.851473 
L 162.992443 306.31551 
L 167.17501 305.492847 
L 169.963389 304.742682 
L 172.751767 303.802888 
L 175.540146 302.652859 
L 178.328524 301.276999 
L 181.116902 299.665721 
L 183.905281 297.815458 
L 186.693659 295.727446 
L 189.482037 293.405264 
L 192.270416 290.851348 
L 195.058794 288.063024 
L 197.847172 285.028773 
L 200.635551 281.725535 
L 203.423929 278.117747 
L 206.212308 274.158499 
L 209.000686 269.792746 
L 211.789064 264.96203 
L 214.577443 259.609748 
L 217.365821 253.685814 
L 220.154199 247.14963 
L 222.942578 239.970755 
L 225.730956 232.127247 
L 228.519334 223.602509 
L 231.307713 214.382066 
L 234.096091 204.452097 
L 236.88447 193.801416 
L 239.672848 182.427995 
L 242.461226 170.350068 
L 246.643794 151.041492 
L 252.220551 123.78365 
L 257.797307 96.616516 
L 260.585686 83.96139 
L 263.374064 72.496303 
L 264.768253 67.349511 
L 266.162442 62.665941 
L 267.556632 58.497417 
L 268.950821 54.89248 
L 270.34501 51.895529 
L 271.739199 49.546043 
L 273.133388 47.87789 
L 274.527577 46.918738 
L 275.921767 46.689586 
L 277.315956 47.204394 
L 278.710145 48.469835 
L 280.104334 50.485164 
L 281.498523 53.242181 
L 282.892713 56.725312 
L 284.286902 60.911785 
L 285.681091 65.771896 
L 287.07528 71.269373 
L 288.469469 77.361824 
L 291.257848 91.134705 
L 294.046226 106.650884 
L 296.834604 123.413982 
L 307.988118 192.527116 
L 310.776496 207.983107 
L 313.564875 222.012743 
L 316.353253 234.428267 
L 319.141631 245.139566 
L 320.535821 249.852699 
L 321.93001 254.145576 
L 323.324199 258.02949 
L 324.718388 261.519145 
L 326.112577 264.631998 
L 327.506766 267.387585 
L 328.900956 269.806875 
L 330.295145 271.911659 
L 331.689334 273.724002 
L 333.083523 275.265771 
L 334.477712 276.558242 
L 335.871902 277.621811 
L 337.266091 278.475796 
L 338.66028 279.13834 
L 340.054469 279.626401 
L 341.448658 279.955831 
L 342.842847 280.14152 
L 344.237037 280.197593 
L 347.025415 279.975 
L 349.813793 279.394953 
L 352.602172 278.567169 
L 360.967307 275.811623 
L 363.755685 275.231588 
L 366.544064 275.021454 
L 367.938253 275.084392 
L 369.332442 275.270896 
L 370.726631 275.58663 
L 372.12082 276.034635 
L 373.515009 276.615229 
L 374.909199 277.326001 
L 377.697577 279.115304 
L 380.485955 281.333426 
L 383.274334 283.880057 
L 388.85109 289.472258 
L 393.033658 293.621201 
L 395.822036 296.171763 
L 398.610415 298.466811 
L 401.398793 300.465486 
L 404.187171 302.152552 
L 406.97555 303.534423 
L 409.763928 304.633817 
L 412.552307 305.484014 
L 415.340685 306.123507 
L 419.523252 306.773048 
L 423.70582 307.156676 
L 426.494198 307.313213 
L 426.494198 307.313213 
" clip-path="url(#pbfe5ac15a6)" style="fill: none; stroke: #f28360; stroke-width: 1.5; stroke-linecap: round"/>
   </g>
   <g id="line2d_19">
    <path d="M 272.282323 307.584 
L 272.282323 41.472 
" clip-path="url(#pbfe5ac15a6)" style="fill: none; stroke: #5088c5; stroke-width: 1.5; stroke-linecap: round"/>
   </g>
   <g id="patch_3">
    <path d="M 57.6 307.584 
L 57.6 41.472 
" style="fill: none; stroke: #000000; stroke-width: 0.75; stroke-linejoin: miter; stroke-linecap: square"/>
   </g>
   <g id="patch_4">
    <path d="M 57.6 307.584 
L 414.72 307.584 
" style="fill: none; stroke: #000000; stroke-width: 0.75; stroke-linejoin: miter; stroke-linecap: square"/>
   </g>
   <g id="legend_1">
    <g id="line2d_20">
     <path d="M 201.872344 60.597 
L 216.872344 60.597 
L 231.872344 60.597 
" style="fill: none; stroke: #5088c5; stroke-width: 1.5; stroke-linecap: round"/>
    </g>
    <g id="text_18">
     <text style="font: 15px &quot;Suisse Int&apos;l&quot;; text-anchor: start" x="243.872344" y="65.847" transform="rotate(-0 243.872344 65.847)">Within phenotype error</text>
    </g>
    <g id="line2d_21">
     <path d="M 201.872344 84.096 
L 216.872344 84.096 
L 231.872344 84.096 
" style="fill: none; stroke: #f28360; stroke-width: 1.5; stroke-linecap: round"/>
    </g>
    <g id="text_19">
     <text style="font: 15px &quot;Suisse Int&apos;l&quot;; text-anchor: start" x="243.872344" y="89.346" transform="rotate(-0 243.872344 89.346)">Within individual error</text>
    </g>
   </g>
  </g>
 </g>
 <defs>
  <clipPath id="pbfe5ac15a6">
   <rect x="57.6" y="41.472" width="357.12" height="266.112"/>
  </clipPath>
 </defs>
</svg>
