<?xml version="1.0" encoding="utf-8" standalone="no"?>
<!DOCTYPE svg PUBLIC "-//W3C//DTD SVG 1.1//EN"
  "http://www.w3.org/Graphics/SVG/1.1/DTD/svg11.dtd">
<svg xmlns:xlink="http://www.w3.org/1999/xlink" width="460.8pt" height="345.6pt" viewBox="0 0 460.8 345.6" xmlns="http://www.w3.org/2000/svg" version="1.1">
 <metadata>
  <rdf:RDF xmlns:dc="http://purl.org/dc/elements/1.1/" xmlns:cc="http://creativecommons.org/ns#" xmlns:rdf="http://www.w3.org/1999/02/22-rdf-syntax-ns#">
   <cc:Work>
    <dc:type rdf:resource="http://purl.org/dc/dcmitype/StillImage"/>
    <dc:date>2025-02-07T13:13:52.998328</dc:date>
    <dc:format>image/svg+xml</dc:format>
    <dc:creator>
     <cc:Agent>
      <dc:title>Matplotlib v3.6.3, https://matplotlib.org/</dc:title>
     </cc:Agent>
    </dc:creator>
   </cc:Work>
  </rdf:RDF>
 </metadata>
 <defs>
  <style type="text/css">*{stroke-linejoin: round; stroke-linecap: butt}</style>
 </defs>
 <g id="figure_1">
  <g id="patch_1">
   <path d="M 0 345.6 
L 460.8 345.6 
L 460.8 0 
L 0 0 
L 0 345.6 
z
" style="fill: none"/>
  </g>
  <g id="axes_1">
   <g id="patch_2">
    <path d="M 103.104 307.584 
L 369.216 307.584 
L 369.216 41.472 
L 103.104 41.472 
L 103.104 307.584 
z
" style="fill: none"/>
   </g>
   <g id="matplotlib.axis_1">
    <g id="xtick_1">
     <g id="line2d_1">
      <defs>
       <path id="mc53bfa62d5" d="M 0 0 
L 0 5 
" style="stroke: #262626; stroke-width: 0.75"/>
      </defs>
      <g>
       <use xlink:href="#mc53bfa62d5" x="103.104" y="307.584" style="fill: #262626; stroke: #262626; stroke-width: 0.75"/>
      </g>
     </g>
     <g id="text_1">
      <text style="fill: #262626; font: 14.5px &quot;Suisse Int&apos;l Mono&quot;, monospace; text-anchor: middle" x="103.104" y="328.0965" transform="rotate(-0 103.104 328.0965)">0.0</text>
     </g>
    </g>
    <g id="xtick_2">
     <g id="line2d_2">
      <g>
       <use xlink:href="#mc53bfa62d5" x="155.282824" y="307.584" style="fill: #262626; stroke: #262626; stroke-width: 0.75"/>
      </g>
     </g>
     <g id="text_2">
      <text style="fill: #262626; font: 14.5px &quot;Suisse Int&apos;l Mono&quot;, monospace; text-anchor: middle" x="155.282824" y="328.0965" transform="rotate(-0 155.282824 328.0965)">0.2</text>
     </g>
    </g>
    <g id="xtick_3">
     <g id="line2d_3">
      <g>
       <use xlink:href="#mc53bfa62d5" x="207.461647" y="307.584" style="fill: #262626; stroke: #262626; stroke-width: 0.75"/>
      </g>
     </g>
     <g id="text_3">
      <text style="fill: #262626; font: 14.5px &quot;Suisse Int&apos;l Mono&quot;, monospace; text-anchor: middle" x="207.461647" y="328.0965" transform="rotate(-0 207.461647 328.0965)">0.4</text>
     </g>
    </g>
    <g id="xtick_4">
     <g id="line2d_4">
      <g>
       <use xlink:href="#mc53bfa62d5" x="259.640471" y="307.584" style="fill: #262626; stroke: #262626; stroke-width: 0.75"/>
      </g>
     </g>
     <g id="text_4">
      <text style="fill: #262626; font: 14.5px &quot;Suisse Int&apos;l Mono&quot;, monospace; text-anchor: middle" x="259.640471" y="328.0965" transform="rotate(-0 259.640471 328.0965)">0.6</text>
     </g>
    </g>
    <g id="xtick_5">
     <g id="line2d_5">
      <g>
       <use xlink:href="#mc53bfa62d5" x="311.819294" y="307.584" style="fill: #262626; stroke: #262626; stroke-width: 0.75"/>
      </g>
     </g>
     <g id="text_5">
      <text style="fill: #262626; font: 14.5px &quot;Suisse Int&apos;l Mono&quot;, monospace; text-anchor: middle" x="311.819294" y="328.0965" transform="rotate(-0 311.819294 328.0965)">0.8</text>
     </g>
    </g>
    <g id="xtick_6">
     <g id="line2d_6">
      <g>
       <use xlink:href="#mc53bfa62d5" x="363.998118" y="307.584" style="fill: #262626; stroke: #262626; stroke-width: 0.75"/>
      </g>
     </g>
     <g id="text_6">
      <text style="fill: #262626; font: 14.5px &quot;Suisse Int&apos;l Mono&quot;, monospace; text-anchor: middle" x="363.998118" y="328.0965" transform="rotate(-0 363.998118 328.0965)">1.0</text>
     </g>
    </g>
    <g id="text_7">
     <text style="font: 500 15px &quot;Suisse Int&apos;l&quot;; text-anchor: middle" x="236.16" y="351.509" transform="rotate(-0 236.16 351.509)">False positive rate</text>
    </g>
   </g>
   <g id="matplotlib.axis_2">
    <g id="ytick_1">
     <g id="line2d_7">
      <defs>
       <path id="m98c0523754" d="M 0 0 
L -5 0 
" style="stroke: #262626; stroke-width: 0.75"/>
      </defs>
      <g>
       <use xlink:href="#m98c0523754" x="103.104" y="307.584" style="fill: #262626; stroke: #262626; stroke-width: 0.75"/>
      </g>
     </g>
     <g id="text_8">
      <text style="fill: #262626; font: 14.5px &quot;Suisse Int&apos;l Mono&quot;, monospace; text-anchor: end" x="93.104" y="312.84025" transform="rotate(-0 93.104 312.84025)">0.0</text>
     </g>
    </g>
    <g id="ytick_2">
     <g id="line2d_8">
      <g>
       <use xlink:href="#m98c0523754" x="103.104" y="255.405176" style="fill: #262626; stroke: #262626; stroke-width: 0.75"/>
      </g>
     </g>
     <g id="text_9">
      <text style="fill: #262626; font: 14.5px &quot;Suisse Int&apos;l Mono&quot;, monospace; text-anchor: end" x="93.104" y="260.661426" transform="rotate(-0 93.104 260.661426)">0.2</text>
     </g>
    </g>
    <g id="ytick_3">
     <g id="line2d_9">
      <g>
       <use xlink:href="#m98c0523754" x="103.104" y="203.226353" style="fill: #262626; stroke: #262626; stroke-width: 0.75"/>
      </g>
     </g>
     <g id="text_10">
      <text style="fill: #262626; font: 14.5px &quot;Suisse Int&apos;l Mono&quot;, monospace; text-anchor: end" x="93.104" y="208.482603" transform="rotate(-0 93.104 208.482603)">0.4</text>
     </g>
    </g>
    <g id="ytick_4">
     <g id="line2d_10">
      <g>
       <use xlink:href="#m98c0523754" x="103.104" y="151.047529" style="fill: #262626; stroke: #262626; stroke-width: 0.75"/>
      </g>
     </g>
     <g id="text_11">
      <text style="fill: #262626; font: 14.5px &quot;Suisse Int&apos;l Mono&quot;, monospace; text-anchor: end" x="93.104" y="156.303779" transform="rotate(-0 93.104 156.303779)">0.6</text>
     </g>
    </g>
    <g id="ytick_5">
     <g id="line2d_11">
      <g>
       <use xlink:href="#m98c0523754" x="103.104" y="98.868706" style="fill: #262626; stroke: #262626; stroke-width: 0.75"/>
      </g>
     </g>
     <g id="text_12">
      <text style="fill: #262626; font: 14.5px &quot;Suisse Int&apos;l Mono&quot;, monospace; text-anchor: end" x="93.104" y="104.124956" transform="rotate(-0 93.104 104.124956)">0.8</text>
     </g>
    </g>
    <g id="ytick_6">
     <g id="line2d_12">
      <g>
       <use xlink:href="#m98c0523754" x="103.104" y="46.689882" style="fill: #262626; stroke: #262626; stroke-width: 0.75"/>
      </g>
     </g>
     <g id="text_13">
      <text style="fill: #262626; font: 14.5px &quot;Suisse Int&apos;l Mono&quot;, monospace; text-anchor: end" x="93.104" y="51.946132" transform="rotate(-0 93.104 51.946132)">1.0</text>
     </g>
    </g>
    <g id="text_14">
     <text style="font: 500 15px &quot;Suisse Int&apos;l&quot;; text-anchor: middle" x="52.094781" y="174.528" transform="rotate(-90 52.094781 174.528)">False negative rate</text>
    </g>
   </g>
   <g id="line2d_13">
    <path d="M 103.104 307.584 
L 363.998118 46.689882 
" clip-path="url(#pb2b4858350)" style="fill: none; stroke-dasharray: 3.7,1.6; stroke-dashoffset: 0; stroke: #5088c5"/>
   </g>
   <g id="line2d_14">
    <path d="M 103.104 307.584 
L 103.165787 120.492362 
L 103.227573 120.492362 
L 103.28936 116.731727 
L 103.351147 116.731727 
L 103.412933 110.620693 
L 103.47472 110.620693 
L 103.5674 108.270296 
L 103.66008 108.270296 
L 103.721866 106.860057 
L 103.783653 106.860057 
L 103.783653 106.389978 
L 103.907226 106.389978 
L 103.907226 105.919898 
L 104.339733 105.919898 
L 104.339733 104.979739 
L 104.525093 104.979739 
L 104.617773 103.569501 
L 104.803133 103.569501 
L 104.864919 101.689183 
L 105.019386 101.689183 
L 105.112066 100.749024 
L 105.235639 100.749024 
L 105.328319 99.338785 
L 105.637253 99.338785 
L 105.668146 98.398626 
L 105.760826 98.398626 
L 105.760826 97.928547 
L 105.884399 97.928547 
L 105.884399 97.458467 
L 106.687626 97.458467 
L 106.780306 95.578149 
L 107.089239 95.578149 
L 107.089239 95.10807 
L 107.243705 95.10807 
L 107.243705 94.63799 
L 107.367279 94.63799 
L 107.367279 94.167911 
L 107.954252 94.167911 
L 107.954252 93.697831 
L 108.077825 93.697831 
L 108.077825 93.227752 
L 108.355865 93.227752 
L 108.355865 92.757672 
L 109.622491 92.757672 
L 109.622491 92.287593 
L 109.869638 92.287593 
L 109.869638 91.817514 
L 110.240358 91.817514 
L 110.240358 91.347434 
L 112.68093 91.347434 
L 112.68093 90.877355 
L 113.23701 90.877355 
L 113.23701 90.407275 
L 113.731303 90.407275 
L 113.731303 89.937196 
L 114.009343 89.937196 
L 114.009343 89.467116 
L 114.658103 89.467116 
L 114.658103 88.997037 
L 116.758849 88.997037 
L 116.758849 88.526957 
L 118.149049 88.526957 
L 118.149049 88.056878 
L 118.736022 88.056878 
L 118.736022 87.586798 
L 121.300168 87.586798 
L 121.300168 87.116719 
L 121.763567 87.116719 
L 121.763567 86.646639 
L 122.288754 86.646639 
L 122.288754 86.17656 
L 125.13094 86.17656 
L 125.13094 85.70648 
L 126.243099 85.70648 
L 126.243099 85.236401 
L 126.644713 85.236401 
L 126.644713 84.766321 
L 129.023498 84.766321 
L 129.023498 84.296242 
L 130.753525 84.296242 
L 130.753525 83.826162 
L 132.823377 83.826162 
L 132.823377 83.356083 
L 133.441244 83.356083 
L 133.441244 82.886003 
L 134.33715 82.886003 
L 134.33715 82.415924 
L 136.00539 82.415924 
L 136.00539 81.945844 
L 138.538642 81.945844 
L 138.538642 81.475765 
L 140.855641 81.475765 
L 140.855641 81.005685 
L 142.276734 81.005685 
L 142.276734 80.535606 
L 143.605147 80.535606 
L 143.605147 80.065526 
L 144.223014 80.065526 
L 144.223014 79.595447 
L 144.56284 79.595447 
L 144.56284 79.125367 
L 146.1384 79.125367 
L 146.1384 78.185208 
L 147.528599 78.185208 
L 147.528599 77.715129 
L 150.865078 77.715129 
L 150.865078 77.245049 
L 154.88121 77.245049 
L 154.88121 76.77497 
L 156.425877 76.77497 
L 156.425877 76.30489 
L 159.515209 76.30489 
L 159.515209 75.834811 
L 160.905408 75.834811 
L 160.905408 75.364731 
L 161.585062 75.364731 
L 161.585062 74.894652 
L 166.4971 74.894652 
L 166.4971 74.424572 
L 168.010873 74.424572 
L 168.010873 73.954493 
L 168.134446 73.954493 
L 168.134446 73.484413 
L 168.690526 73.484413 
L 168.690526 73.014334 
L 169.493752 73.014334 
L 169.555539 72.074175 
L 170.266085 72.074175 
L 170.266085 71.604095 
L 172.490405 71.604095 
L 172.490405 71.134016 
L 172.706658 71.134016 
L 172.706658 70.663936 
L 177.680483 70.663936 
L 177.680483 70.193857 
L 179.719442 70.193857 
L 179.719442 69.723777 
L 182.160015 69.723777 
L 182.160015 69.253698 
L 187.998853 69.253698 
L 187.998853 68.783618 
L 190.779252 68.783618 
L 190.779252 68.313539 
L 191.644265 68.313539 
L 191.644265 67.843459 
L 194.023051 67.843459 
L 194.023051 67.37338 
L 200.448863 67.37338 
L 200.448863 66.9033 
L 200.665116 66.9033 
L 200.665116 66.433221 
L 202.487822 66.433221 
L 202.487822 65.963141 
L 205.051968 65.963141 
L 205.051968 65.493062 
L 217.90359 65.493062 
L 217.90359 65.022983 
L 222.568482 65.022983 
L 222.568482 64.552903 
L 230.847893 64.552903 
L 230.847893 64.082824 
L 233.041319 64.082824 
L 233.041319 63.612744 
L 233.968119 63.612744 
L 233.968119 63.142665 
L 234.524199 63.142665 
L 234.524199 62.672585 
L 234.833132 62.672585 
L 234.833132 62.202506 
L 240.332143 62.202506 
L 240.332143 61.732426 
L 244.904355 61.732426 
L 244.904355 61.262347 
L 246.016515 61.262347 
L 246.016515 60.792267 
L 246.449021 60.792267 
L 246.449021 60.322188 
L 249.538354 60.322188 
L 249.538354 59.852108 
L 260.505484 59.852108 
L 260.505484 59.382029 
L 263.100523 59.382029 
L 263.100523 58.911949 
L 264.089109 58.911949 
L 264.089109 58.44187 
L 268.290601 58.44187 
L 268.290601 57.97179 
L 269.866161 57.97179 
L 269.866161 57.501711 
L 276.137505 57.501711 
L 276.137505 57.031631 
L 277.929318 57.031631 
L 277.929318 56.561552 
L 282.563317 56.561552 
L 282.563317 56.091472 
L 284.602276 56.091472 
L 284.602276 55.621393 
L 288.494835 55.621393 
L 288.494835 55.151313 
L 309.718548 55.151313 
L 309.718548 54.681234 
L 311.077854 54.681234 
L 311.077854 54.211154 
L 311.417681 54.211154 
L 311.417681 53.741075 
L 314.01272 53.741075 
L 314.1054 52.800916 
L 316.391506 52.800916 
L 316.391506 52.330836 
L 317.009372 52.330836 
L 317.009372 51.860757 
L 319.480838 51.860757 
L 319.480838 51.390677 
L 320.407638 51.390677 
L 320.407638 50.920598 
L 329.150449 50.920598 
L 329.150449 50.450518 
L 330.509755 50.450518 
L 330.509755 49.980439 
L 336.255913 49.980439 
L 336.255913 49.510359 
L 343.484951 49.510359 
L 343.484951 49.04028 
L 345.369444 49.04028 
L 345.369444 48.5702 
L 345.493017 48.5702 
L 345.493017 48.100121 
L 348.644136 48.100121 
L 348.644136 47.630041 
L 354.019574 47.630041 
L 354.019574 47.159962 
L 355.811387 47.159962 
L 355.811387 46.689882 
L 363.998118 46.689882 
L 363.998118 46.689882 
" clip-path="url(#pb2b4858350)" style="fill: none; stroke: #f28360; stroke-linecap: round"/>
   </g>
   <g id="patch_3">
    <path d="M 103.104 307.584 
L 103.104 41.472 
" style="fill: none; stroke: #000000; stroke-width: 0.75; stroke-linejoin: miter; stroke-linecap: square"/>
   </g>
   <g id="patch_4">
    <path d="M 103.104 307.584 
L 369.216 307.584 
" style="fill: none; stroke: #000000; stroke-width: 0.75; stroke-linejoin: miter; stroke-linecap: square"/>
   </g>
   <g id="text_15">
    <text style="font: 15px &quot;Suisse Int&apos;l&quot;; text-anchor: start" x="272.685176" y="242.360471" transform="rotate(-0 272.685176 242.360471)">AUC = 0.93</text>
   </g>
  </g>
 </g>
 <defs>
  <clipPath id="pb2b4858350">
   <rect x="103.104" y="41.472" width="266.112" height="266.112"/>
  </clipPath>
 </defs>
</svg>
