<?xml version="1.0" encoding="utf-8" standalone="no"?>
<!DOCTYPE svg PUBLIC "-//W3C//DTD SVG 1.1//EN"
  "http://www.w3.org/Graphics/SVG/1.1/DTD/svg11.dtd">
<svg xmlns:xlink="http://www.w3.org/1999/xlink" width="460.8pt" height="345.6pt" viewBox="0 0 460.8 345.6" xmlns="http://www.w3.org/2000/svg" version="1.1">
 <metadata>
  <rdf:RDF xmlns:dc="http://purl.org/dc/elements/1.1/" xmlns:cc="http://creativecommons.org/ns#" xmlns:rdf="http://www.w3.org/1999/02/22-rdf-syntax-ns#">
   <cc:Work>
    <dc:type rdf:resource="http://purl.org/dc/dcmitype/StillImage"/>
    <dc:date>2025-07-18T11:33:41.799541</dc:date>
    <dc:format>image/svg+xml</dc:format>
    <dc:creator>
     <cc:Agent>
      <dc:title>Matplotlib v3.5.1, https://matplotlib.org/</dc:title>
     </cc:Agent>
    </dc:creator>
   </cc:Work>
  </rdf:RDF>
 </metadata>
 <defs>
  <style type="text/css">*{stroke-linejoin: round; stroke-linecap: butt}</style>
 </defs>
 <g id="figure_1">
  <g id="patch_1">
   <path d="M 0 345.6 
L 460.8 345.6 
L 460.8 0 
L 0 0 
L 0 345.6 
z
" style="fill: none"/>
  </g>
  <g id="axes_1">
   <g id="patch_2">
    <path d="M 57.6 307.584 
L 414.72 307.584 
L 414.72 41.472 
L 57.6 41.472 
L 57.6 307.584 
z
" style="fill: none"/>
   </g>
   <g id="patch_3">
    <path d="M 64.467692 307.584 
L 81.636921 307.584 
L 81.636921 46.689882 
L 64.467692 46.689882 
z
" clip-path="url(#p1332557bad)" style="fill: #5088c5"/>
   </g>
   <g id="patch_4">
    <path d="M 81.636918 307.584 
L 98.806154 307.584 
L 98.806154 177.136941 
L 81.636918 177.136941 
z
" clip-path="url(#p1332557bad)" style="fill: #5088c5"/>
   </g>
   <g id="patch_5">
    <path d="M 98.806154 307.584 
L 115.975388 307.584 
L 115.975388 270.313412 
L 98.806154 270.313412 
z
" clip-path="url(#p1332557bad)" style="fill: #5088c5"/>
   </g>
   <g id="patch_6">
    <path d="M 115.975388 307.584 
L 133.144617 307.584 
L 133.144617 251.678118 
L 115.975388 251.678118 
z
" clip-path="url(#p1332557bad)" style="fill: #5088c5"/>
   </g>
   <g id="patch_7">
    <path d="M 133.144611 307.584 
L 150.31385 307.584 
L 150.31385 288.948706 
L 133.144611 288.948706 
z
" clip-path="url(#p1332557bad)" style="fill: #5088c5"/>
   </g>
   <g id="patch_8">
    <path d="M 150.31385 307.584 
L 167.483079 307.584 
L 167.483079 307.584 
L 150.31385 307.584 
z
" clip-path="url(#p1332557bad)" style="fill: #5088c5"/>
   </g>
   <g id="patch_9">
    <path d="M 167.483079 307.584 
L 184.652318 307.584 
L 184.652318 307.584 
L 167.483079 307.584 
z
" clip-path="url(#p1332557bad)" style="fill: #5088c5"/>
   </g>
   <g id="patch_10">
    <path d="M 184.65233 307.584 
L 201.821558 307.584 
L 201.821558 307.584 
L 184.65233 307.584 
z
" clip-path="url(#p1332557bad)" style="fill: #5088c5"/>
   </g>
   <g id="patch_11">
    <path d="M 201.821546 307.584 
L 218.990775 307.584 
L 218.990775 288.948706 
L 201.821546 288.948706 
z
" clip-path="url(#p1332557bad)" style="fill: #5088c5"/>
   </g>
   <g id="patch_12">
    <path d="M 218.990786 307.584 
L 236.160026 307.584 
L 236.160026 307.584 
L 218.990786 307.584 
z
" clip-path="url(#p1332557bad)" style="fill: #5088c5"/>
   </g>
   <g id="patch_13">
    <path d="M 236.15998 307.584 
L 253.32922 307.584 
L 253.32922 307.584 
L 236.15998 307.584 
z
" clip-path="url(#p1332557bad)" style="fill: #5088c5"/>
   </g>
   <g id="patch_14">
    <path d="M 253.329242 307.584 
L 270.498482 307.584 
L 270.498482 307.584 
L 253.329242 307.584 
z
" clip-path="url(#p1332557bad)" style="fill: #5088c5"/>
   </g>
   <g id="patch_15">
    <path d="M 270.498482 307.584 
L 287.667699 307.584 
L 287.667699 307.584 
L 270.498482 307.584 
z
" clip-path="url(#p1332557bad)" style="fill: #5088c5"/>
   </g>
   <g id="patch_16">
    <path d="M 287.667676 307.584 
L 304.836916 307.584 
L 304.836916 307.584 
L 287.667676 307.584 
z
" clip-path="url(#p1332557bad)" style="fill: #5088c5"/>
   </g>
   <g id="patch_17">
    <path d="M 304.836939 307.584 
L 322.006178 307.584 
L 322.006178 307.584 
L 304.836939 307.584 
z
" clip-path="url(#p1332557bad)" style="fill: #5088c5"/>
   </g>
   <g id="patch_18">
    <path d="M 322.006178 307.584 
L 339.175395 307.584 
L 339.175395 307.584 
L 322.006178 307.584 
z
" clip-path="url(#p1332557bad)" style="fill: #5088c5"/>
   </g>
   <g id="patch_19">
    <path d="M 339.175372 307.584 
L 356.344612 307.584 
L 356.344612 307.584 
L 339.175372 307.584 
z
" clip-path="url(#p1332557bad)" style="fill: #5088c5"/>
   </g>
   <g id="patch_20">
    <path d="M 356.344635 307.584 
L 373.513874 307.584 
L 373.513874 307.584 
L 356.344635 307.584 
z
" clip-path="url(#p1332557bad)" style="fill: #5088c5"/>
   </g>
   <g id="patch_21">
    <path d="M 373.513874 307.584 
L 390.683091 307.584 
L 390.683091 307.584 
L 373.513874 307.584 
z
" clip-path="url(#p1332557bad)" style="fill: #5088c5"/>
   </g>
   <g id="patch_22">
    <path d="M 390.683068 307.584 
L 407.852308 307.584 
L 407.852308 270.313412 
L 390.683068 270.313412 
z
" clip-path="url(#p1332557bad)" style="fill: #5088c5"/>
   </g>
   <g id="matplotlib.axis_1">
    <g id="xtick_1">
     <g id="line2d_1">
      <defs>
       <path id="m246744ef04" d="M 0 0 
L 0 5 
" style="stroke: #262626; stroke-width: 0.75"/>
      </defs>
      <g>
       <use xlink:href="#m246744ef04" x="99.754361" y="307.584" style="fill: #262626; stroke: #262626; stroke-width: 0.75"/>
      </g>
     </g>
     <g id="text_1">
      <text style="fill: #262626; font: 14.5px &quot;Suisse Int&apos;l&quot;; text-anchor: middle" x="99.754361" y="328.0965" transform="rotate(-0, 99.754361, 328.0965)">5</text>
     </g>
    </g>
    <g id="xtick_2">
     <g id="line2d_2">
      <g>
       <use xlink:href="#m246744ef04" x="159.658573" y="307.584" style="fill: #262626; stroke: #262626; stroke-width: 0.75"/>
      </g>
     </g>
     <g id="text_2">
      <text style="fill: #262626; font: 14.5px &quot;Suisse Int&apos;l&quot;; text-anchor: middle" x="159.658573" y="328.0965" transform="rotate(-0, 159.658573, 328.0965)">10</text>
     </g>
    </g>
    <g id="xtick_3">
     <g id="line2d_3">
      <g>
       <use xlink:href="#m246744ef04" x="219.562786" y="307.584" style="fill: #262626; stroke: #262626; stroke-width: 0.75"/>
      </g>
     </g>
     <g id="text_3">
      <text style="fill: #262626; font: 14.5px &quot;Suisse Int&apos;l&quot;; text-anchor: middle" x="219.562786" y="328.0965" transform="rotate(-0, 219.562786, 328.0965)">15</text>
     </g>
    </g>
    <g id="xtick_4">
     <g id="line2d_4">
      <g>
       <use xlink:href="#m246744ef04" x="279.466998" y="307.584" style="fill: #262626; stroke: #262626; stroke-width: 0.75"/>
      </g>
     </g>
     <g id="text_4">
      <text style="fill: #262626; font: 14.5px &quot;Suisse Int&apos;l&quot;; text-anchor: middle" x="279.466998" y="328.0965" transform="rotate(-0, 279.466998, 328.0965)">20</text>
     </g>
    </g>
    <g id="xtick_5">
     <g id="line2d_5">
      <g>
       <use xlink:href="#m246744ef04" x="339.371211" y="307.584" style="fill: #262626; stroke: #262626; stroke-width: 0.75"/>
      </g>
     </g>
     <g id="text_5">
      <text style="fill: #262626; font: 14.5px &quot;Suisse Int&apos;l&quot;; text-anchor: middle" x="339.371211" y="328.0965" transform="rotate(-0, 339.371211, 328.0965)">25</text>
     </g>
    </g>
    <g id="xtick_6">
     <g id="line2d_6">
      <g>
       <use xlink:href="#m246744ef04" x="399.275423" y="307.584" style="fill: #262626; stroke: #262626; stroke-width: 0.75"/>
      </g>
     </g>
     <g id="text_6">
      <text style="fill: #262626; font: 14.5px &quot;Suisse Int&apos;l&quot;; text-anchor: middle" x="399.275423" y="328.0965" transform="rotate(-0, 399.275423, 328.0965)">30</text>
     </g>
    </g>
   </g>
   <g id="matplotlib.axis_2">
    <g id="ytick_1">
     <g id="line2d_7">
      <defs>
       <path id="m06f6e945d1" d="M 0 0 
L -5 0 
" style="stroke: #262626; stroke-width: 0.75"/>
      </defs>
      <g>
       <use xlink:href="#m06f6e945d1" x="57.6" y="307.584" style="fill: #262626; stroke: #262626; stroke-width: 0.75"/>
      </g>
     </g>
     <g id="text_7">
      <text style="fill: #262626; font: 14.5px &quot;Suisse Int&apos;l&quot;; text-anchor: end" x="47.6" y="312.84025" transform="rotate(-0, 47.6, 312.84025)">0</text>
     </g>
    </g>
    <g id="ytick_2">
     <g id="line2d_8">
      <g>
       <use xlink:href="#m06f6e945d1" x="57.6" y="270.313412" style="fill: #262626; stroke: #262626; stroke-width: 0.75"/>
      </g>
     </g>
     <g id="text_8">
      <text style="fill: #262626; font: 14.5px &quot;Suisse Int&apos;l&quot;; text-anchor: end" x="47.6" y="275.569662" transform="rotate(-0, 47.6, 275.569662)">2</text>
     </g>
    </g>
    <g id="ytick_3">
     <g id="line2d_9">
      <g>
       <use xlink:href="#m06f6e945d1" x="57.6" y="233.042824" style="fill: #262626; stroke: #262626; stroke-width: 0.75"/>
      </g>
     </g>
     <g id="text_9">
      <text style="fill: #262626; font: 14.5px &quot;Suisse Int&apos;l&quot;; text-anchor: end" x="47.6" y="238.299074" transform="rotate(-0, 47.6, 238.299074)">4</text>
     </g>
    </g>
    <g id="ytick_4">
     <g id="line2d_10">
      <g>
       <use xlink:href="#m06f6e945d1" x="57.6" y="195.772235" style="fill: #262626; stroke: #262626; stroke-width: 0.75"/>
      </g>
     </g>
     <g id="text_10">
      <text style="fill: #262626; font: 14.5px &quot;Suisse Int&apos;l&quot;; text-anchor: end" x="47.6" y="201.028485" transform="rotate(-0, 47.6, 201.028485)">6</text>
     </g>
    </g>
    <g id="ytick_5">
     <g id="line2d_11">
      <g>
       <use xlink:href="#m06f6e945d1" x="57.6" y="158.501647" style="fill: #262626; stroke: #262626; stroke-width: 0.75"/>
      </g>
     </g>
     <g id="text_11">
      <text style="fill: #262626; font: 14.5px &quot;Suisse Int&apos;l&quot;; text-anchor: end" x="47.6" y="163.757897" transform="rotate(-0, 47.6, 163.757897)">8</text>
     </g>
    </g>
    <g id="ytick_6">
     <g id="line2d_12">
      <g>
       <use xlink:href="#m06f6e945d1" x="57.6" y="121.231059" style="fill: #262626; stroke: #262626; stroke-width: 0.75"/>
      </g>
     </g>
     <g id="text_12">
      <text style="fill: #262626; font: 14.5px &quot;Suisse Int&apos;l&quot;; text-anchor: end" x="47.6" y="126.487309" transform="rotate(-0, 47.6, 126.487309)">10</text>
     </g>
    </g>
    <g id="ytick_7">
     <g id="line2d_13">
      <g>
       <use xlink:href="#m06f6e945d1" x="57.6" y="83.960471" style="fill: #262626; stroke: #262626; stroke-width: 0.75"/>
      </g>
     </g>
     <g id="text_13">
      <text style="fill: #262626; font: 14.5px &quot;Suisse Int&apos;l&quot;; text-anchor: end" x="47.6" y="89.216721" transform="rotate(-0, 47.6, 89.216721)">12</text>
     </g>
    </g>
    <g id="ytick_8">
     <g id="line2d_14">
      <g>
       <use xlink:href="#m06f6e945d1" x="57.6" y="46.689882" style="fill: #262626; stroke: #262626; stroke-width: 0.75"/>
      </g>
     </g>
     <g id="text_14">
      <text style="fill: #262626; font: 14.5px &quot;Suisse Int&apos;l&quot;; text-anchor: end" x="47.6" y="51.946132" transform="rotate(-0, 47.6, 51.946132)">14</text>
     </g>
    </g>
   </g>
   <g id="patch_23">
    <path d="M 57.6 307.584 
L 57.6 41.472 
" style="fill: none; stroke: #000000; stroke-width: 0.75; stroke-linejoin: miter; stroke-linecap: square"/>
   </g>
   <g id="patch_24">
    <path d="M 57.6 307.584 
L 414.72 307.584 
" style="fill: none; stroke: #000000; stroke-width: 0.75; stroke-linejoin: miter; stroke-linecap: square"/>
   </g>
  </g>
 </g>
 <defs>
  <clipPath id="p1332557bad">
   <rect x="57.6" y="41.472" width="357.12" height="266.112"/>
  </clipPath>
 </defs>
</svg>
