<?xml version="1.0" encoding="utf-8" standalone="no"?>
<!DOCTYPE svg PUBLIC "-//W3C//DTD SVG 1.1//EN"
  "http://www.w3.org/Graphics/SVG/1.1/DTD/svg11.dtd">
<svg xmlns:xlink="http://www.w3.org/1999/xlink" width="460.8pt" height="345.6pt" viewBox="0 0 460.8 345.6" xmlns="http://www.w3.org/2000/svg" version="1.1">
 <metadata>
  <rdf:RDF xmlns:dc="http://purl.org/dc/elements/1.1/" xmlns:cc="http://creativecommons.org/ns#" xmlns:rdf="http://www.w3.org/1999/02/22-rdf-syntax-ns#">
   <cc:Work>
    <dc:type rdf:resource="http://purl.org/dc/dcmitype/StillImage"/>
    <dc:date>2025-07-31T09:42:34.052211</dc:date>
    <dc:format>image/svg+xml</dc:format>
    <dc:creator>
     <cc:Agent>
      <dc:title>Matplotlib v3.5.1, https://matplotlib.org/</dc:title>
     </cc:Agent>
    </dc:creator>
   </cc:Work>
  </rdf:RDF>
 </metadata>
 <defs>
  <style type="text/css">*{stroke-linejoin: round; stroke-linecap: butt}</style>
 </defs>
 <g id="figure_1">
  <g id="patch_1">
   <path d="M 0 345.6 
L 460.8 345.6 
L 460.8 0 
L 0 0 
L 0 345.6 
z
" style="fill: none"/>
  </g>
  <g id="axes_1">
   <g id="patch_2">
    <path d="M 103.104 307.584 
L 369.216 307.584 
L 369.216 41.472 
L 103.104 41.472 
L 103.104 307.584 
z
" style="fill: none"/>
   </g>
   <g id="matplotlib.axis_1">
    <g id="xtick_1">
     <g id="line2d_1">
      <defs>
       <path id="m86077a3eb2" d="M 0 0 
L 0 5 
" style="stroke: #262626; stroke-width: 0.75"/>
      </defs>
      <g>
       <use xlink:href="#m86077a3eb2" x="103.104" y="307.584" style="fill: #262626; stroke: #262626; stroke-width: 0.75"/>
      </g>
     </g>
     <g id="text_1">
      <text style="fill: #262626; font: 14.5px 'monospace'; text-anchor: middle" x="103.104" y="328.0965" transform="rotate(-0, 103.104, 328.0965)">0.0</text>
     </g>
    </g>
    <g id="xtick_2">
     <g id="line2d_2">
      <g>
       <use xlink:href="#m86077a3eb2" x="155.282824" y="307.584" style="fill: #262626; stroke: #262626; stroke-width: 0.75"/>
      </g>
     </g>
     <g id="text_2">
      <text style="fill: #262626; font: 14.5px 'monospace'; text-anchor: middle" x="155.282824" y="328.0965" transform="rotate(-0, 155.282824, 328.0965)">0.2</text>
     </g>
    </g>
    <g id="xtick_3">
     <g id="line2d_3">
      <g>
       <use xlink:href="#m86077a3eb2" x="207.461647" y="307.584" style="fill: #262626; stroke: #262626; stroke-width: 0.75"/>
      </g>
     </g>
     <g id="text_3">
      <text style="fill: #262626; font: 14.5px 'monospace'; text-anchor: middle" x="207.461647" y="328.0965" transform="rotate(-0, 207.461647, 328.0965)">0.4</text>
     </g>
    </g>
    <g id="xtick_4">
     <g id="line2d_4">
      <g>
       <use xlink:href="#m86077a3eb2" x="259.640471" y="307.584" style="fill: #262626; stroke: #262626; stroke-width: 0.75"/>
      </g>
     </g>
     <g id="text_4">
      <text style="fill: #262626; font: 14.5px 'monospace'; text-anchor: middle" x="259.640471" y="328.0965" transform="rotate(-0, 259.640471, 328.0965)">0.6</text>
     </g>
    </g>
    <g id="xtick_5">
     <g id="line2d_5">
      <g>
       <use xlink:href="#m86077a3eb2" x="311.819294" y="307.584" style="fill: #262626; stroke: #262626; stroke-width: 0.75"/>
      </g>
     </g>
     <g id="text_5">
      <text style="fill: #262626; font: 14.5px 'monospace'; text-anchor: middle" x="311.819294" y="328.0965" transform="rotate(-0, 311.819294, 328.0965)">0.8</text>
     </g>
    </g>
    <g id="xtick_6">
     <g id="line2d_6">
      <g>
       <use xlink:href="#m86077a3eb2" x="363.998118" y="307.584" style="fill: #262626; stroke: #262626; stroke-width: 0.75"/>
      </g>
     </g>
     <g id="text_6">
      <text style="fill: #262626; font: 14.5px 'monospace'; text-anchor: middle" x="363.998118" y="328.0965" transform="rotate(-0, 363.998118, 328.0965)">1.0</text>
     </g>
    </g>
    <g id="text_7">
     <text style="font: 500 15px &quot;Suisse Int&apos;l&quot;; text-anchor: middle" x="236.16" y="351.509" transform="rotate(-0, 236.16, 351.509)">False positive rate</text>
    </g>
   </g>
   <g id="matplotlib.axis_2">
    <g id="ytick_1">
     <g id="line2d_7">
      <defs>
       <path id="mc72437f157" d="M 0 0 
L -5 0 
" style="stroke: #262626; stroke-width: 0.75"/>
      </defs>
      <g>
       <use xlink:href="#mc72437f157" x="103.104" y="307.584" style="fill: #262626; stroke: #262626; stroke-width: 0.75"/>
      </g>
     </g>
     <g id="text_8">
      <text style="fill: #262626; font: 14.5px 'monospace'; text-anchor: end" x="93.104" y="312.84025" transform="rotate(-0, 93.104, 312.84025)">0.0</text>
     </g>
    </g>
    <g id="ytick_2">
     <g id="line2d_8">
      <g>
       <use xlink:href="#mc72437f157" x="103.104" y="255.405176" style="fill: #262626; stroke: #262626; stroke-width: 0.75"/>
      </g>
     </g>
     <g id="text_9">
      <text style="fill: #262626; font: 14.5px 'monospace'; text-anchor: end" x="93.104" y="260.661426" transform="rotate(-0, 93.104, 260.661426)">0.2</text>
     </g>
    </g>
    <g id="ytick_3">
     <g id="line2d_9">
      <g>
       <use xlink:href="#mc72437f157" x="103.104" y="203.226353" style="fill: #262626; stroke: #262626; stroke-width: 0.75"/>
      </g>
     </g>
     <g id="text_10">
      <text style="fill: #262626; font: 14.5px 'monospace'; text-anchor: end" x="93.104" y="208.482603" transform="rotate(-0, 93.104, 208.482603)">0.4</text>
     </g>
    </g>
    <g id="ytick_4">
     <g id="line2d_10">
      <g>
       <use xlink:href="#mc72437f157" x="103.104" y="151.047529" style="fill: #262626; stroke: #262626; stroke-width: 0.75"/>
      </g>
     </g>
     <g id="text_11">
      <text style="fill: #262626; font: 14.5px 'monospace'; text-anchor: end" x="93.104" y="156.303779" transform="rotate(-0, 93.104, 156.303779)">0.6</text>
     </g>
    </g>
    <g id="ytick_5">
     <g id="line2d_11">
      <g>
       <use xlink:href="#mc72437f157" x="103.104" y="98.868706" style="fill: #262626; stroke: #262626; stroke-width: 0.75"/>
      </g>
     </g>
     <g id="text_12">
      <text style="fill: #262626; font: 14.5px 'monospace'; text-anchor: end" x="93.104" y="104.124956" transform="rotate(-0, 93.104, 104.124956)">0.8</text>
     </g>
    </g>
    <g id="ytick_6">
     <g id="line2d_12">
      <g>
       <use xlink:href="#mc72437f157" x="103.104" y="46.689882" style="fill: #262626; stroke: #262626; stroke-width: 0.75"/>
      </g>
     </g>
     <g id="text_13">
      <text style="fill: #262626; font: 14.5px 'monospace'; text-anchor: end" x="93.104" y="51.946132" transform="rotate(-0, 93.104, 51.946132)">1.0</text>
     </g>
    </g>
    <g id="text_14">
     <text style="font: 500 15px &quot;Suisse Int&apos;l&quot;; text-anchor: middle" x="52.094781" y="174.528" transform="rotate(-90, 52.094781, 174.528)">False negative rate</text>
    </g>
   </g>
   <g id="line2d_13">
    <path d="M 103.104 307.584 
L 363.998118 46.689882 
" clip-path="url(#pfa43324c6d)" style="fill: none; stroke-dasharray: 3.7,1.6; stroke-dashoffset: 0; stroke: #5088c5"/>
   </g>
   <g id="line2d_14">
    <path d="M 103.104 307.584 
L 103.19668 143.996337 
L 103.227573 143.996337 
L 103.320253 134.594747 
L 103.351147 134.594747 
L 103.412933 133.654588 
L 103.505613 133.654588 
L 103.598293 130.364032 
L 103.66008 130.364032 
L 103.75276 127.073475 
L 103.783653 127.073475 
L 103.783653 125.193157 
L 103.907226 125.193157 
L 103.907226 124.723078 
L 104.092586 124.723078 
L 104.092586 123.312839 
L 104.21616 123.312839 
L 104.30884 121.432521 
L 104.432413 121.432521 
L 104.4942 120.492362 
L 104.67956 120.492362 
L 104.67956 120.022283 
L 104.988493 120.022283 
L 105.081173 117.201806 
L 105.266533 117.201806 
L 105.266533 116.731727 
L 105.482786 116.731727 
L 105.575466 115.791568 
L 105.791719 115.791568 
L 105.853506 114.851409 
L 105.946186 114.851409 
L 105.946186 114.381329 
L 106.286012 114.381329 
L 106.286012 113.91125 
L 106.842092 113.91125 
L 106.842092 113.44117 
L 106.965665 113.44117 
L 106.965665 112.971091 
L 107.089239 112.971091 
L 107.120132 112.030932 
L 107.212812 112.030932 
L 107.274599 110.620693 
L 107.459959 110.620693 
L 107.459959 110.150614 
L 107.614425 110.150614 
L 107.707105 109.210455 
L 107.737999 109.210455 
L 107.737999 108.740375 
L 108.077825 108.740375 
L 108.108718 107.800216 
L 108.448545 107.800216 
L 108.541225 106.389978 
L 109.097305 106.389978 
L 109.189985 105.449819 
L 109.313558 105.449819 
L 109.313558 104.979739 
L 110.116784 104.979739 
L 110.116784 104.50966 
L 110.827331 104.50966 
L 110.827331 104.03958 
L 111.352517 104.03958 
L 111.352517 103.569501 
L 111.815917 103.569501 
L 111.815917 103.099421 
L 112.40289 103.099421 
L 112.40289 102.629342 
L 112.526464 102.629342 
L 112.526464 102.159262 
L 112.68093 102.159262 
L 112.77361 101.219103 
L 112.95897 101.219103 
L 112.95897 100.749024 
L 113.576837 100.749024 
L 113.669517 99.808865 
L 113.731303 99.808865 
L 113.731303 99.338785 
L 113.97845 99.338785 
L 113.97845 98.868706 
L 114.102023 98.868706 
L 114.102023 98.398626 
L 114.596316 98.398626 
L 114.596316 97.928547 
L 114.843463 97.928547 
L 114.843463 97.458467 
L 116.295449 97.458467 
L 116.295449 96.988388 
L 116.542596 96.988388 
L 116.542596 96.518308 
L 117.191356 96.518308 
L 117.191356 96.048229 
L 120.033541 96.048229 
L 120.033541 95.578149 
L 120.373368 95.578149 
L 120.373368 95.10807 
L 121.083914 95.10807 
L 121.114808 94.167911 
L 122.690367 94.167911 
L 122.690367 93.697831 
L 122.875727 93.697831 
L 122.875727 93.227752 
L 122.9993 93.227752 
L 122.9993 92.757672 
L 123.246447 92.757672 
L 123.246447 92.287593 
L 124.173247 92.287593 
L 124.173247 91.817514 
L 124.48218 91.817514 
L 124.48218 91.347434 
L 124.976473 91.347434 
L 124.976473 90.877355 
L 126.181313 90.877355 
L 126.181313 90.407275 
L 126.552033 90.407275 
L 126.552033 89.937196 
L 126.675606 89.937196 
L 126.675606 89.467116 
L 126.891859 89.467116 
L 126.891859 88.997037 
L 128.405632 88.997037 
L 128.405632 88.526957 
L 128.652779 88.526957 
L 128.652779 88.056878 
L 130.290125 88.056878 
L 130.290125 87.586798 
L 131.556751 87.586798 
L 131.556751 87.116719 
L 131.865684 87.116719 
L 131.865684 86.646639 
L 132.514444 86.646639 
L 132.514444 86.17656 
L 133.132311 86.17656 
L 133.132311 85.70648 
L 133.59571 85.70648 
L 133.59571 85.236401 
L 134.090004 85.236401 
L 134.090004 84.766321 
L 139.650802 84.766321 
L 139.650802 84.296242 
L 140.052415 84.296242 
L 140.052415 83.826162 
L 144.84088 83.826162 
L 144.84088 83.356083 
L 147.219666 83.356083 
L 147.219666 82.886003 
L 147.744853 82.886003 
L 147.744853 82.415924 
L 149.474879 82.415924 
L 149.474879 81.945844 
L 150.587038 81.945844 
L 150.587038 81.475765 
L 153.120291 81.475765 
L 153.120291 80.535606 
L 153.645477 80.535606 
L 153.645477 80.065526 
L 154.077984 80.065526 
L 154.077984 79.595447 
L 155.25193 79.595447 
L 155.25193 79.125367 
L 157.352676 79.125367 
L 157.352676 78.655288 
L 157.47625 78.655288 
L 157.47625 78.185208 
L 158.711982 78.185208 
L 158.711982 77.715129 
L 160.163969 77.715129 
L 160.163969 77.245049 
L 163.902061 77.245049 
L 163.963847 76.30489 
L 164.489034 76.30489 
L 164.489034 75.834811 
L 169.586432 75.834811 
L 169.586432 75.364731 
L 170.173405 75.364731 
L 170.173405 74.894652 
L 170.914845 74.894652 
L 170.914845 74.424572 
L 172.799338 74.424572 
L 172.799338 73.954493 
L 174.096858 73.954493 
L 174.096858 73.484413 
L 177.64959 73.484413 
L 177.64959 73.014334 
L 178.11299 73.014334 
L 178.11299 72.544254 
L 181.758402 72.544254 
L 181.758402 72.074175 
L 192.262132 72.074175 
L 192.262132 71.604095 
L 193.281612 71.604095 
L 193.281612 71.134016 
L 193.528758 71.134016 
L 193.528758 70.663936 
L 194.640918 70.663936 
L 194.640918 70.193857 
L 196.494517 70.193857 
L 196.494517 69.723777 
L 196.648984 69.723777 
L 196.648984 69.253698 
L 199.02777 69.253698 
L 199.02777 68.783618 
L 199.244023 68.783618 
L 199.244023 68.313539 
L 202.920328 68.313539 
L 202.920328 67.843459 
L 205.855194 67.843459 
L 205.855194 67.37338 
L 207.6779 67.37338 
L 207.6779 66.9033 
L 208.203087 66.9033 
L 208.203087 66.433221 
L 210.767233 66.433221 
L 210.767233 65.963141 
L 212.497259 65.963141 
L 212.497259 65.493062 
L 212.775299 65.493062 
L 212.775299 65.022983 
L 213.331379 65.022983 
L 213.331379 64.552903 
L 230.322707 64.552903 
L 230.322707 64.082824 
L 235.512785 64.082824 
L 235.512785 63.612744 
L 244.039342 63.612744 
L 244.039342 63.142665 
L 245.151502 63.142665 
L 245.151502 62.672585 
L 245.892942 62.672585 
L 245.892942 62.202506 
L 257.076325 62.202506 
L 257.076325 61.732426 
L 261.463177 61.732426 
L 261.463177 61.262347 
L 262.946056 61.262347 
L 262.946056 60.792267 
L 266.251642 60.792267 
L 266.251642 60.322188 
L 275.921252 60.322188 
L 275.921252 59.852108 
L 278.516291 59.852108 
L 278.516291 59.382029 
L 282.007237 59.382029 
L 282.007237 58.911949 
L 284.262449 58.911949 
L 284.262449 58.44187 
L 284.478703 58.44187 
L 284.478703 57.97179 
L 285.281929 57.97179 
L 285.281929 57.501711 
L 288.062328 57.501711 
L 288.062328 57.031631 
L 289.081808 57.031631 
L 289.081808 56.561552 
L 294.086526 56.561552 
L 294.148313 55.621393 
L 294.951539 55.621393 
L 294.951539 55.151313 
L 301.130204 55.151313 
L 301.130204 54.681234 
L 303.447203 54.681234 
L 303.447203 54.211154 
L 309.749441 54.211154 
L 309.749441 53.741075 
L 311.386788 53.741075 
L 311.386788 53.270995 
L 316.329719 53.270995 
L 316.329719 52.800916 
L 320.376745 52.800916 
L 320.376745 52.330836 
L 321.488904 52.330836 
L 321.488904 51.860757 
L 329.212235 51.860757 
L 329.212235 51.390677 
L 330.386182 51.390677 
L 330.386182 50.920598 
L 331.096728 50.920598 
L 331.096728 50.450518 
L 338.881846 50.450518 
L 338.881846 49.980439 
L 343.793884 49.980439 
L 343.793884 49.510359 
L 344.380857 49.510359 
L 344.380857 49.04028 
L 349.292896 49.04028 
L 349.292896 48.5702 
L 349.570936 48.5702 
L 349.570936 48.100121 
L 354.513867 48.100121 
L 354.513867 47.630041 
L 360.970572 47.630041 
L 360.970572 47.159962 
L 361.804692 47.159962 
L 361.804692 46.689882 
L 363.998118 46.689882 
L 363.998118 46.689882 
" clip-path="url(#pfa43324c6d)" style="fill: none; stroke: #f28360; stroke-linecap: round"/>
   </g>
   <g id="patch_3">
    <path d="M 103.104 307.584 
L 103.104 41.472 
" style="fill: none; stroke: #000000; stroke-width: 0.75; stroke-linejoin: miter; stroke-linecap: square"/>
   </g>
   <g id="patch_4">
    <path d="M 103.104 307.584 
L 369.216 307.584 
" style="fill: none; stroke: #000000; stroke-width: 0.75; stroke-linejoin: miter; stroke-linecap: square"/>
   </g>
   <g id="text_15">
    <text style="font: 15px &quot;Suisse Int&apos;l&quot;; text-anchor: start" x="272.685176" y="242.360471" transform="rotate(-0, 272.685176, 242.360471)">AUC = 0.92</text>
   </g>
  </g>
 </g>
 <defs>
  <clipPath id="pfa43324c6d">
   <rect x="103.104" y="41.472" width="266.112" height="266.112"/>
  </clipPath>
 </defs>
</svg>
