<?xml version="1.0" encoding="utf-8" standalone="no"?>
<!DOCTYPE svg PUBLIC "-//W3C//DTD SVG 1.1//EN"
  "http://www.w3.org/Graphics/SVG/1.1/DTD/svg11.dtd">
<svg xmlns:xlink="http://www.w3.org/1999/xlink" width="460.8pt" height="345.6pt" viewBox="0 0 460.8 345.6" xmlns="http://www.w3.org/2000/svg" version="1.1">
 <metadata>
  <rdf:RDF xmlns:dc="http://purl.org/dc/elements/1.1/" xmlns:cc="http://creativecommons.org/ns#" xmlns:rdf="http://www.w3.org/1999/02/22-rdf-syntax-ns#">
   <cc:Work>
    <dc:type rdf:resource="http://purl.org/dc/dcmitype/StillImage"/>
    <dc:date>2024-12-02T14:34:37.635618</dc:date>
    <dc:format>image/svg+xml</dc:format>
    <dc:creator>
     <cc:Agent>
      <dc:title>Matplotlib v3.8.0, https://matplotlib.org/</dc:title>
     </cc:Agent>
    </dc:creator>
   </cc:Work>
  </rdf:RDF>
 </metadata>
 <defs>
  <style type="text/css">*{stroke-linejoin: round; stroke-linecap: butt}</style>
 </defs>
 <g id="figure_1">
  <g id="patch_1">
   <path d="M 0 345.6 
L 460.8 345.6 
L 460.8 0 
L 0 0 
L 0 345.6 
z
" style="fill: none"/>
  </g>
  <g id="axes_1">
   <g id="patch_2">
    <path d="M 57.6 307.584 
L 414.72 307.584 
L 414.72 41.472 
L 57.6 41.472 
L 57.6 307.584 
z
" style="fill: none"/>
   </g>
   <g id="matplotlib.axis_1">
    <g id="xtick_1">
     <g id="line2d_1">
      <defs>
       <path id="ma9f92d097b" d="M 0 0 
L 0 1.2 
" style="stroke: #262626; stroke-width: 0.75"/>
      </defs>
      <g>
       <use xlink:href="#ma9f92d097b" x="57.6" y="307.584" style="fill: #262626; stroke: #262626; stroke-width: 0.75"/>
      </g>
     </g>
     <g id="text_1">
      <!-- 0 -->
      <g style="fill: #262626" transform="translate(54.370313 317.234) scale(0.1 -0.1)">
       <defs>
        <path id="SuisseIntlMono-30" d="M 2061 -83 
C 3232 -83 3686 902 3686 2342 
C 3686 3782 3232 4723 2061 4723 
C 890 4723 442 3782 442 2342 
C 442 902 890 -83 2061 -83 
z
M 1037 2342 
C 1037 3610 1363 4224 2061 4224 
C 2618 4224 2944 3827 3046 3021 
L 1043 2106 
C 1037 2182 1037 2259 1037 2342 
z
M 2061 422 
C 1510 422 1190 826 1082 1619 
L 3085 2547 
C 3091 2477 3091 2413 3091 2342 
C 3091 1075 2758 422 2061 422 
z
" transform="scale(0.015625)"/>
       </defs>
       <use xlink:href="#SuisseIntlMono-30"/>
      </g>
     </g>
    </g>
    <g id="xtick_2">
     <g id="line2d_2">
      <g>
       <use xlink:href="#ma9f92d097b" x="108.617143" y="307.584" style="fill: #262626; stroke: #262626; stroke-width: 0.75"/>
      </g>
     </g>
     <g id="text_2">
      <!-- 1 -->
      <g style="fill: #262626" transform="translate(105.387455 317.234) scale(0.1 -0.1)">
       <defs>
        <path id="SuisseIntlMono-31" d="M 2093 4640 
C 1856 4134 1478 4051 704 4032 
L 704 3629 
L 1888 3629 
L 1888 506 
L 704 506 
L 704 0 
L 3450 0 
L 3450 506 
L 2477 506 
L 2477 4640 
L 2093 4640 
z
" transform="scale(0.015625)"/>
       </defs>
       <use xlink:href="#SuisseIntlMono-31"/>
      </g>
     </g>
    </g>
    <g id="xtick_3">
     <g id="line2d_3">
      <g>
       <use xlink:href="#ma9f92d097b" x="159.634286" y="307.584" style="fill: #262626; stroke: #262626; stroke-width: 0.75"/>
      </g>
     </g>
     <g id="text_3">
      <!-- 2 -->
      <g style="fill: #262626" transform="translate(156.404598 317.234) scale(0.1 -0.1)">
       <defs>
        <path id="SuisseIntlMono-32" d="M 2138 4723 
C 1197 4723 582 4051 595 3168 
L 1197 3168 
C 1210 3930 1651 4224 2131 4224 
C 2656 4224 2931 3878 2931 3398 
C 2931 2586 2067 1715 512 506 
L 512 0 
L 3642 0 
L 3642 506 
L 1338 506 
C 2522 1453 3558 2400 3558 3475 
C 3558 4262 2950 4723 2138 4723 
z
" transform="scale(0.015625)"/>
       </defs>
       <use xlink:href="#SuisseIntlMono-32"/>
      </g>
     </g>
    </g>
    <g id="xtick_4">
     <g id="line2d_4">
      <g>
       <use xlink:href="#ma9f92d097b" x="210.651429" y="307.584" style="fill: #262626; stroke: #262626; stroke-width: 0.75"/>
      </g>
     </g>
     <g id="text_4">
      <!-- 3 -->
      <g style="fill: #262626" transform="translate(207.421741 317.234) scale(0.1 -0.1)">
       <defs>
        <path id="SuisseIntlMono-33" d="M 2048 422 
C 1427 422 1107 819 1043 1382 
L 448 1382 
C 506 627 1011 -83 2042 -83 
C 2861 -83 3667 384 3667 1306 
C 3667 1779 3482 2253 2829 2477 
C 3296 2669 3552 3078 3552 3552 
C 3552 4397 2835 4723 2086 4723 
C 1178 4723 576 4147 512 3328 
L 1114 3328 
C 1158 3846 1478 4224 2067 4224 
C 2541 4224 2925 3962 2925 3494 
C 2925 2957 2515 2707 1754 2707 
L 1683 2707 
L 1683 2189 
L 1773 2189 
C 2483 2189 3040 1952 3040 1299 
C 3040 749 2637 422 2048 422 
z
" transform="scale(0.015625)"/>
       </defs>
       <use xlink:href="#SuisseIntlMono-33"/>
      </g>
     </g>
    </g>
    <g id="xtick_5">
     <g id="line2d_5">
      <g>
       <use xlink:href="#ma9f92d097b" x="261.668571" y="307.584" style="fill: #262626; stroke: #262626; stroke-width: 0.75"/>
      </g>
     </g>
     <g id="text_5">
      <!-- 4 -->
      <g style="fill: #262626" transform="translate(258.438884 317.234) scale(0.1 -0.1)">
       <defs>
        <path id="SuisseIntlMono-34" d="M 2464 3846 
L 2464 1696 
L 890 1696 
L 2464 3846 
z
M 3827 1696 
L 3053 1696 
L 3053 4640 
L 2458 4640 
L 275 1696 
L 275 1146 
L 2464 1146 
L 2464 0 
L 3053 0 
L 3053 1146 
L 3827 1146 
L 3827 1696 
z
" transform="scale(0.015625)"/>
       </defs>
       <use xlink:href="#SuisseIntlMono-34"/>
      </g>
     </g>
    </g>
    <g id="xtick_6">
     <g id="line2d_6">
      <g>
       <use xlink:href="#ma9f92d097b" x="312.685714" y="307.584" style="fill: #262626; stroke: #262626; stroke-width: 0.75"/>
      </g>
     </g>
     <g id="text_6">
      <!-- 5 -->
      <g style="fill: #262626" transform="translate(309.456027 317.234) scale(0.1 -0.1)">
       <defs>
        <path id="SuisseIntlMono-35" d="M 2061 422 
C 1440 422 1120 819 1056 1382 
L 461 1382 
C 518 627 1024 -83 2054 -83 
C 2880 -83 3667 480 3667 1530 
C 3667 2534 2950 3098 2182 3098 
C 1811 3098 1466 2989 1222 2752 
L 1389 4141 
L 3462 4141 
L 3462 4640 
L 890 4640 
L 589 2125 
L 1203 2099 
C 1299 2323 1606 2586 2048 2586 
C 2528 2586 3040 2278 3040 1523 
C 3040 819 2592 422 2061 422 
z
" transform="scale(0.015625)"/>
       </defs>
       <use xlink:href="#SuisseIntlMono-35"/>
      </g>
     </g>
    </g>
    <g id="xtick_7">
     <g id="line2d_7">
      <g>
       <use xlink:href="#ma9f92d097b" x="363.702857" y="307.584" style="fill: #262626; stroke: #262626; stroke-width: 0.75"/>
      </g>
     </g>
     <g id="text_7">
      <!-- 6 -->
      <g style="fill: #262626" transform="translate(360.47317 317.234) scale(0.1 -0.1)">
       <defs>
        <path id="SuisseIntlMono-36" d="M 1126 1485 
C 1126 2106 1517 2560 2093 2560 
C 2656 2560 3053 2106 3053 1485 
C 3053 858 2650 422 2086 422 
C 1504 422 1126 851 1126 1485 
z
M 2176 4224 
C 2598 4224 2899 3987 2970 3578 
L 3603 3578 
C 3514 4154 3072 4723 2208 4723 
C 934 4723 454 3443 454 2138 
C 454 730 992 -83 2093 -83 
C 3040 -83 3680 659 3680 1510 
C 3680 2432 3046 3085 2227 3085 
C 1638 3085 1261 2810 1062 2451 
C 1088 3507 1466 4224 2176 4224 
z
" transform="scale(0.015625)"/>
       </defs>
       <use xlink:href="#SuisseIntlMono-36"/>
      </g>
     </g>
    </g>
    <g id="xtick_8">
     <g id="line2d_8">
      <g>
       <use xlink:href="#ma9f92d097b" x="414.72" y="307.584" style="fill: #262626; stroke: #262626; stroke-width: 0.75"/>
      </g>
     </g>
     <g id="text_8">
      <!-- 7 -->
      <g style="fill: #262626" transform="translate(411.490313 317.234) scale(0.1 -0.1)">
       <defs>
        <path id="SuisseIntlMono-37" d="M 525 4141 
L 3066 4141 
C 1965 3238 1210 1664 1107 0 
L 1779 0 
C 1824 1702 2598 3232 3782 4141 
L 3782 4640 
L 525 4640 
L 525 4141 
z
" transform="scale(0.015625)"/>
       </defs>
       <use xlink:href="#SuisseIntlMono-37"/>
      </g>
     </g>
    </g>
    <g id="text_9">
     <!-- Mean squared error -->
     <g transform="translate(171.315469 332.259) scale(0.15 -0.15)">
      <defs>
       <path id="SuisseIntl-Light-4d" d="M 2554 0 
L 2989 0 
L 4563 4230 
L 4563 0 
L 4992 0 
L 4992 4640 
L 4307 4640 
L 2778 486 
L 1242 4640 
L 550 4640 
L 550 0 
L 979 0 
L 979 4230 
L 2554 0 
z
" transform="scale(0.015625)"/>
       <path id="SuisseIntl-Light-65" d="M 211 1709 
C 211 640 826 -83 1837 -83 
C 2592 -83 3162 320 3328 1030 
L 2912 1030 
C 2778 557 2400 282 1862 282 
C 1158 282 634 774 621 1606 
L 3360 1606 
C 3411 2682 2797 3501 1824 3501 
C 902 3501 211 2822 211 1709 
z
M 634 1971 
C 717 2733 1178 3142 1818 3142 
C 2509 3142 2925 2554 2925 1971 
L 634 1971 
z
" transform="scale(0.015625)"/>
       <path id="SuisseIntl-Light-61" d="M 2643 525 
L 2662 0 
L 3066 0 
C 3046 371 3027 710 3027 1101 
C 3027 1376 3034 1690 3034 2163 
C 3034 3187 2502 3520 1702 3520 
C 934 3520 384 3072 294 2394 
L 710 2394 
C 742 2842 1094 3168 1677 3168 
C 2176 3168 2637 2995 2637 2214 
L 2637 2093 
C 979 1926 211 1638 211 858 
C 211 288 710 -83 1350 -83 
C 1990 -83 2419 160 2643 525 
z
M 1440 269 
C 986 269 653 499 653 864 
C 653 1402 1254 1587 2656 1741 
L 2656 1574 
C 2656 595 2080 269 1440 269 
z
" transform="scale(0.015625)"/>
       <path id="SuisseIntl-Light-6e" d="M 877 2861 
L 877 3443 
L 480 3443 
L 480 0 
L 877 0 
L 877 1914 
C 877 2643 1325 3142 1920 3142 
C 2618 3142 2784 2707 2784 2061 
L 2784 0 
L 3181 0 
L 3181 2170 
C 3181 3014 2835 3501 2022 3501 
C 1382 3501 1043 3187 877 2861 
z
" transform="scale(0.015625)"/>
       <path id="SuisseIntl-Light-20" transform="scale(0.015625)"/>
       <path id="SuisseIntl-Light-73" d="M 2541 2502 
L 2957 2502 
C 2874 3053 2368 3507 1632 3507 
C 858 3507 314 3104 314 2560 
C 314 2022 749 1734 1248 1638 
L 1786 1536 
C 2253 1446 2637 1306 2637 902 
C 2637 442 2118 269 1702 269 
C 1171 269 736 512 659 1056 
L 243 1056 
C 346 269 960 -83 1670 -83 
C 2419 -83 3040 282 3040 966 
C 3040 1619 2413 1811 1850 1914 
L 1363 2003 
C 986 2074 717 2253 717 2592 
C 717 3008 1216 3155 1594 3155 
C 2080 3155 2458 2912 2541 2502 
z
" transform="scale(0.015625)"/>
       <path id="SuisseIntl-Light-71" d="M 1645 3501 
C 851 3501 205 2854 205 1709 
C 205 570 851 -83 1645 -83 
C 2150 -83 2566 154 2810 570 
L 2810 -1120 
L 3206 -1120 
L 3206 3443 
L 2810 3443 
L 2810 2854 
C 2566 3264 2150 3501 1645 3501 
z
M 1728 3142 
C 2246 3142 2835 2726 2835 1709 
C 2835 691 2246 275 1728 275 
C 1088 275 634 794 634 1709 
C 634 2624 1088 3142 1728 3142 
z
" transform="scale(0.015625)"/>
       <path id="SuisseIntl-Light-75" d="M 2605 557 
L 2605 0 
L 3002 0 
L 3002 3443 
L 2605 3443 
L 2605 1504 
C 2605 774 2150 275 1600 275 
C 928 275 774 710 774 1357 
L 774 3443 
L 378 3443 
L 378 1248 
C 378 403 710 -83 1498 -83 
C 2093 -83 2438 230 2605 557 
z
" transform="scale(0.015625)"/>
       <path id="SuisseIntl-Light-72" d="M 1990 3040 
L 1990 3462 
C 1952 3469 1907 3469 1875 3469 
C 1459 3469 1011 3219 858 2816 
L 858 3443 
L 480 3443 
L 480 0 
L 870 0 
L 870 1805 
C 870 2534 1101 3046 1811 3046 
C 1869 3046 1926 3046 1990 3040 
z
" transform="scale(0.015625)"/>
       <path id="SuisseIntl-Light-64" d="M 1645 3501 
C 851 3501 205 2848 205 1709 
C 205 563 851 -83 1645 -83 
C 2150 -83 2566 154 2810 563 
L 2810 0 
L 3206 0 
L 3206 4640 
L 2810 4640 
L 2810 2848 
C 2566 3264 2150 3501 1645 3501 
z
M 1728 3142 
C 2246 3142 2835 2726 2835 1709 
C 2835 691 2246 275 1728 275 
C 1088 275 634 794 634 1709 
C 634 2624 1088 3142 1728 3142 
z
" transform="scale(0.015625)"/>
       <path id="SuisseIntl-Light-6f" d="M 1766 3501 
C 941 3501 211 2963 211 1709 
C 211 454 941 -83 1766 -83 
C 2592 -83 3328 454 3328 1709 
C 3328 2963 2592 3501 1766 3501 
z
M 1766 282 
C 1107 282 634 723 634 1709 
C 634 2694 1107 3136 1766 3136 
C 2426 3136 2906 2694 2906 1709 
C 2906 723 2426 282 1766 282 
z
" transform="scale(0.015625)"/>
      </defs>
      <use xlink:href="#SuisseIntl-Light-4d"/>
      <use xlink:href="#SuisseIntl-Light-65" x="86.599991"/>
      <use xlink:href="#SuisseIntl-Light-61" x="142.399979"/>
      <use xlink:href="#SuisseIntl-Light-6e" x="195.299973"/>
      <use xlink:href="#SuisseIntl-Light-20" x="250.899963"/>
      <use xlink:href="#SuisseIntl-Light-73" x="274.59996"/>
      <use xlink:href="#SuisseIntl-Light-71" x="326.699951"/>
      <use xlink:href="#SuisseIntl-Light-75" x="384.299942"/>
      <use xlink:href="#SuisseIntl-Light-61" x="438.699936"/>
      <use xlink:href="#SuisseIntl-Light-72" x="491.59993"/>
      <use xlink:href="#SuisseIntl-Light-65" x="522.799927"/>
      <use xlink:href="#SuisseIntl-Light-64" x="578.599915"/>
      <use xlink:href="#SuisseIntl-Light-20" x="636.199905"/>
      <use xlink:href="#SuisseIntl-Light-65" x="659.899902"/>
      <use xlink:href="#SuisseIntl-Light-72" x="715.69989"/>
      <use xlink:href="#SuisseIntl-Light-72" x="746.899887"/>
      <use xlink:href="#SuisseIntl-Light-6f" x="778.099884"/>
      <use xlink:href="#SuisseIntl-Light-72" x="833.399872"/>
     </g>
    </g>
   </g>
   <g id="matplotlib.axis_2">
    <g id="ytick_1">
     <g id="line2d_9">
      <defs>
       <path id="mb614802d40" d="M 0 0 
L -1.2 0 
" style="stroke: #262626; stroke-width: 0.75"/>
      </defs>
      <g>
       <use xlink:href="#mb614802d40" x="57.6" y="307.584" style="fill: #262626; stroke: #262626; stroke-width: 0.75"/>
      </g>
     </g>
     <g id="text_10">
      <!-- 0.0 -->
      <g style="fill: #262626" transform="translate(35.821875 311.209) scale(0.1 -0.1)">
       <defs>
        <path id="SuisseIntlMono-2e" d="M 2432 0 
L 2432 736 
L 1696 736 
L 1696 0 
L 2432 0 
z
" transform="scale(0.015625)"/>
       </defs>
       <use xlink:href="#SuisseIntlMono-30"/>
       <use xlink:href="#SuisseIntlMono-2e" x="64.599991"/>
       <use xlink:href="#SuisseIntlMono-30" x="129.199982"/>
      </g>
     </g>
    </g>
    <g id="ytick_2">
     <g id="line2d_10">
      <g>
       <use xlink:href="#mb614802d40" x="57.6" y="257.004086" style="fill: #262626; stroke: #262626; stroke-width: 0.75"/>
      </g>
     </g>
     <g id="text_11">
      <!-- 0.5 -->
      <g style="fill: #262626" transform="translate(35.821875 260.629086) scale(0.1 -0.1)">
       <use xlink:href="#SuisseIntlMono-30"/>
       <use xlink:href="#SuisseIntlMono-2e" x="64.599991"/>
       <use xlink:href="#SuisseIntlMono-35" x="129.199982"/>
      </g>
     </g>
    </g>
    <g id="ytick_3">
     <g id="line2d_11">
      <g>
       <use xlink:href="#mb614802d40" x="57.6" y="206.424172" style="fill: #262626; stroke: #262626; stroke-width: 0.75"/>
      </g>
     </g>
     <g id="text_12">
      <!-- 1.0 -->
      <g style="fill: #262626" transform="translate(35.821875 210.049172) scale(0.1 -0.1)">
       <use xlink:href="#SuisseIntlMono-31"/>
       <use xlink:href="#SuisseIntlMono-2e" x="64.599991"/>
       <use xlink:href="#SuisseIntlMono-30" x="129.199982"/>
      </g>
     </g>
    </g>
    <g id="ytick_4">
     <g id="line2d_12">
      <g>
       <use xlink:href="#mb614802d40" x="57.6" y="155.844257" style="fill: #262626; stroke: #262626; stroke-width: 0.75"/>
      </g>
     </g>
     <g id="text_13">
      <!-- 1.5 -->
      <g style="fill: #262626" transform="translate(35.821875 159.469257) scale(0.1 -0.1)">
       <use xlink:href="#SuisseIntlMono-31"/>
       <use xlink:href="#SuisseIntlMono-2e" x="64.599991"/>
       <use xlink:href="#SuisseIntlMono-35" x="129.199982"/>
      </g>
     </g>
    </g>
    <g id="ytick_5">
     <g id="line2d_13">
      <g>
       <use xlink:href="#mb614802d40" x="57.6" y="105.264343" style="fill: #262626; stroke: #262626; stroke-width: 0.75"/>
      </g>
     </g>
     <g id="text_14">
      <!-- 2.0 -->
      <g style="fill: #262626" transform="translate(35.821875 108.889343) scale(0.1 -0.1)">
       <use xlink:href="#SuisseIntlMono-32"/>
       <use xlink:href="#SuisseIntlMono-2e" x="64.599991"/>
       <use xlink:href="#SuisseIntlMono-30" x="129.199982"/>
      </g>
     </g>
    </g>
    <g id="ytick_6">
     <g id="line2d_14">
      <g>
       <use xlink:href="#mb614802d40" x="57.6" y="54.684429" style="fill: #262626; stroke: #262626; stroke-width: 0.75"/>
      </g>
     </g>
     <g id="text_15">
      <!-- 2.5 -->
      <g style="fill: #262626" transform="translate(35.821875 58.309429) scale(0.1 -0.1)">
       <use xlink:href="#SuisseIntlMono-32"/>
       <use xlink:href="#SuisseIntlMono-2e" x="64.599991"/>
       <use xlink:href="#SuisseIntlMono-35" x="129.199982"/>
      </g>
     </g>
    </g>
    <g id="text_16">
     <!-- Density -->
     <g transform="translate(30.796875 199.343625) rotate(-90) scale(0.15 -0.15)">
      <defs>
       <path id="SuisseIntl-Light-44" d="M 1677 4640 
L 550 4640 
L 550 0 
L 1677 0 
C 3155 0 4192 538 4192 2323 
C 4192 4102 3155 4640 1677 4640 
z
M 1664 4250 
C 2720 4250 3738 4038 3738 2323 
C 3738 608 2720 390 1664 390 
L 979 390 
L 979 4250 
L 1664 4250 
z
" transform="scale(0.015625)"/>
       <path id="SuisseIntl-Light-69" d="M 877 4640 
L 480 4640 
L 480 4006 
L 877 4006 
L 877 4640 
z
M 877 3443 
L 480 3443 
L 480 0 
L 877 0 
L 877 3443 
z
" transform="scale(0.015625)"/>
       <path id="SuisseIntl-Light-74" d="M 640 4218 
L 640 3443 
L 70 3443 
L 70 3098 
L 640 3098 
L 640 819 
C 640 141 781 0 1395 0 
L 1722 0 
L 1722 358 
L 1517 358 
C 1056 358 1043 448 1043 896 
L 1043 3098 
L 1722 3098 
L 1722 3443 
L 1043 3443 
L 1043 4218 
L 640 4218 
z
" transform="scale(0.015625)"/>
       <path id="SuisseIntl-Light-79" d="M 314 -1120 
L 538 -1120 
C 1158 -1120 1325 -1011 1568 -346 
L 2982 3443 
L 2554 3443 
L 1517 550 
L 448 3443 
L 0 3443 
L 1318 0 
L 1210 -275 
C 1030 -755 870 -774 544 -774 
L 314 -774 
L 314 -1120 
z
" transform="scale(0.015625)"/>
      </defs>
      <use xlink:href="#SuisseIntl-Light-44"/>
      <use xlink:href="#SuisseIntl-Light-65" x="69.499985"/>
      <use xlink:href="#SuisseIntl-Light-6e" x="125.299973"/>
      <use xlink:href="#SuisseIntl-Light-73" x="180.899963"/>
      <use xlink:href="#SuisseIntl-Light-69" x="232.999954"/>
      <use xlink:href="#SuisseIntl-Light-74" x="254.199951"/>
      <use xlink:href="#SuisseIntl-Light-79" x="284.299942"/>
     </g>
    </g>
   </g>
   <g id="line2d_15">
    <path d="M 65.771189 307.573701 
L 68.072248 307.473839 
L 69.222777 307.284332 
L 70.373307 306.850261 
L 71.523836 305.94628 
L 72.674366 304.217673 
L 73.824895 301.167499 
L 74.975425 296.193115 
L 76.125954 288.687087 
L 77.276484 278.179364 
L 78.427013 264.466505 
L 79.577543 247.674912 
L 80.728072 228.219989 
L 83.029131 183.391233 
L 87.631249 85.159123 
L 88.781779 66.72562 
L 89.932308 54.144209 
L 91.082838 47.630804 
L 92.233367 46.689882 
L 93.383897 50.848327 
L 94.534426 59.990798 
L 95.684956 74.152856 
L 96.835485 93.056886 
L 99.136544 140.421215 
L 101.437603 187.265235 
L 102.588133 206.021277 
L 103.738662 220.834213 
L 104.889192 232.205547 
L 106.039721 241.20177 
L 110.641839 272.05871 
L 111.792369 279.086038 
L 112.942898 285.015487 
L 114.093428 289.705932 
L 115.243957 293.323014 
L 116.394487 296.165696 
L 117.545016 298.489748 
L 118.695546 300.418294 
L 119.846075 301.957831 
L 120.996605 303.090784 
L 122.147134 303.873327 
L 127.899782 306.771077 
L 129.050311 307.161344 
L 130.200841 307.394743 
L 132.5019 307.55189 
L 134.802959 307.511128 
L 137.104018 307.282864 
L 140.555606 306.855053 
L 142.856665 307.022648 
L 146.308254 307.477233 
L 148.609313 307.55619 
L 150.910372 307.48701 
L 153.211431 307.223755 
L 155.51249 306.899204 
L 156.663019 306.852483 
L 158.964078 307.082964 
L 161.265137 307.410245 
L 163.566196 307.553491 
L 170.469373 307.583997 
L 223.39373 307.500563 
L 225.694789 307.252616 
L 227.995848 306.91761 
L 229.146378 306.851875 
L 231.447437 307.053583 
L 234.899025 307.492702 
L 238.350614 307.580602 
L 278.619146 307.568415 
L 280.920205 307.474581 
L 283.221264 307.195033 
L 285.522323 306.883906 
L 286.672853 306.856326 
L 288.973912 307.112137 
L 291.274971 307.429076 
L 293.57603 307.558246 
L 294.726559 307.575865 
L 294.726559 307.575865 
" clip-path="url(#pd34bb04b86)" style="fill: none; stroke: #5088c5; stroke-width: 1.5; stroke-linecap: round"/>
   </g>
   <g id="line2d_16">
    <path d="M 92.813405 307.584 
L 92.813405 41.472 
" clip-path="url(#pd34bb04b86)" style="fill: none; stroke: #5088c5; stroke-width: 1.5; stroke-linecap: round"/>
   </g>
   <g id="line2d_17">
    <path d="M 92.813405 307.584 
L 92.813405 41.472 
" clip-path="url(#pd34bb04b86)" style="fill: none; stroke: #5088c5; stroke-width: 1.5; stroke-linecap: round"/>
   </g>
   <g id="line2d_18">
    <path d="M -1 307.249899 
L 2.738051 307.051627 
L 7.764975 306.606608 
L 12.7919 305.860797 
L 15.305363 305.33035 
L 17.818825 304.666211 
L 20.332288 303.844245 
L 22.84575 302.838741 
L 25.359213 301.623132 
L 27.872675 300.170935 
L 30.386138 298.456938 
L 32.8996 296.458598 
L 35.413062 294.157624 
L 37.926525 291.541659 
L 40.439987 288.606003 
L 42.95345 285.355248 
L 45.466912 281.804718 
L 47.980375 277.981586 
L 53.0073 269.688899 
L 63.061149 252.375757 
L 65.574612 248.387488 
L 68.088074 244.720964 
L 70.601537 241.465933 
L 73.114999 238.704392 
L 75.628462 236.507027 
L 78.141924 234.930079 
L 80.655387 234.012824 
L 83.168849 233.775848 
L 85.682311 234.220196 
L 88.195774 235.327466 
L 90.709236 237.060815 
L 93.222699 239.366821 
L 95.736161 242.178053 
L 98.249624 245.416189 
L 100.763086 248.99548 
L 105.790011 256.81896 
L 113.330398 268.930327 
L 118.357323 276.419085 
L 120.870786 279.83386 
L 123.384248 282.987383 
L 125.897711 285.862576 
L 128.411173 288.452581 
L 130.924636 290.759529 
L 133.438098 292.79312 
L 135.951561 294.569079 
L 138.465023 296.107616 
L 140.978485 297.431924 
L 143.491948 298.566806 
L 146.00541 299.537457 
L 151.032335 301.082851 
L 156.05926 302.243656 
L 161.086185 303.157264 
L 168.626572 304.259605 
L 178.680422 305.441984 
L 188.734272 306.350628 
L 198.788122 306.966403 
L 208.841972 307.318446 
L 221.409284 307.510013 
L 244.030446 307.580083 
L 359.649719 307.529729 
L 374.730493 307.353653 
L 387.297806 307.009338 
L 407.405505 306.151413 
L 417.459355 305.828583 
L 424.999743 305.754182 
L 435.053592 305.915899 
L 447.620905 306.412408 
L 461.8 307.010341 
L 461.8 307.010341 
" clip-path="url(#pd34bb04b86)" style="fill: none; stroke: #f28360; stroke-width: 1.5; stroke-linecap: round"/>
   </g>
   <g id="line2d_19">
    <path d="M 81.597468 307.584 
L 81.597468 41.472 
" clip-path="url(#pd34bb04b86)" style="fill: none; stroke: #5088c5; stroke-width: 1.5; stroke-linecap: round"/>
   </g>
   <g id="line2d_20">
    <path d="M 81.597468 307.584 
L 81.597468 41.472 
" clip-path="url(#pd34bb04b86)" style="fill: none; stroke: #5088c5; stroke-width: 1.5; stroke-linecap: round"/>
   </g>
   <g id="patch_3">
    <path d="M 57.6 307.584 
L 57.6 41.472 
" style="fill: none; stroke: #000000; stroke-width: 0.75; stroke-linejoin: miter; stroke-linecap: square"/>
   </g>
   <g id="patch_4">
    <path d="M 57.6 307.584 
L 414.72 307.584 
" style="fill: none; stroke: #000000; stroke-width: 0.75; stroke-linejoin: miter; stroke-linecap: square"/>
   </g>
   <g id="legend_1">
    <g id="line2d_21">
     <path d="M 279.995 54.222 
L 289.995 54.222 
L 299.995 54.222 
" style="fill: none; stroke: #5088c5; stroke-width: 1.5; stroke-linecap: round"/>
    </g>
    <g id="text_17">
     <!-- within phenotype error -->
     <g transform="translate(307.995 57.722) scale(0.1 -0.1)">
      <defs>
       <path id="SuisseIntl-Light-77" d="M 2086 3443 
L 1235 627 
L 474 3443 
L 32 3443 
L 1030 0 
L 1395 0 
L 2272 2893 
L 3174 0 
L 3546 0 
L 4544 3443 
L 4102 3443 
L 3366 621 
L 2483 3443 
L 2086 3443 
z
" transform="scale(0.015625)"/>
       <path id="SuisseIntl-Light-68" d="M 877 2861 
L 877 4640 
L 480 4640 
L 480 0 
L 877 0 
L 877 1914 
C 877 2643 1325 3142 1920 3142 
C 2618 3142 2784 2707 2784 2061 
L 2784 0 
L 3181 0 
L 3181 2170 
C 3181 3014 2835 3501 2022 3501 
C 1382 3501 1043 3187 877 2861 
z
" transform="scale(0.015625)"/>
       <path id="SuisseIntl-Light-70" d="M 2042 -83 
C 2835 -83 3482 570 3482 1709 
C 3482 2854 2835 3501 2042 3501 
C 1536 3501 1120 3264 877 2854 
L 877 3443 
L 480 3443 
L 480 -1120 
L 877 -1120 
L 877 570 
C 1120 154 1536 -83 2042 -83 
z
M 1958 275 
C 1440 275 851 691 851 1709 
C 851 2726 1440 3142 1958 3142 
C 2598 3142 3053 2624 3053 1709 
C 3053 794 2598 275 1958 275 
z
" transform="scale(0.015625)"/>
      </defs>
      <use xlink:href="#SuisseIntl-Light-77"/>
      <use xlink:href="#SuisseIntl-Light-69" x="71.499985"/>
      <use xlink:href="#SuisseIntl-Light-74" x="92.699982"/>
      <use xlink:href="#SuisseIntl-Light-68" x="122.799973"/>
      <use xlink:href="#SuisseIntl-Light-69" x="178.399963"/>
      <use xlink:href="#SuisseIntl-Light-6e" x="199.59996"/>
      <use xlink:href="#SuisseIntl-Light-20" x="255.199951"/>
      <use xlink:href="#SuisseIntl-Light-70" x="278.899948"/>
      <use xlink:href="#SuisseIntl-Light-68" x="336.499939"/>
      <use xlink:href="#SuisseIntl-Light-65" x="392.09993"/>
      <use xlink:href="#SuisseIntl-Light-6e" x="447.899918"/>
      <use xlink:href="#SuisseIntl-Light-6f" x="503.499908"/>
      <use xlink:href="#SuisseIntl-Light-74" x="558.799896"/>
      <use xlink:href="#SuisseIntl-Light-79" x="588.899887"/>
      <use xlink:href="#SuisseIntl-Light-70" x="635.499878"/>
      <use xlink:href="#SuisseIntl-Light-65" x="693.099869"/>
      <use xlink:href="#SuisseIntl-Light-20" x="748.899857"/>
      <use xlink:href="#SuisseIntl-Light-65" x="772.599854"/>
      <use xlink:href="#SuisseIntl-Light-72" x="828.399841"/>
      <use xlink:href="#SuisseIntl-Light-72" x="859.599838"/>
      <use xlink:href="#SuisseIntl-Light-6f" x="890.799835"/>
      <use xlink:href="#SuisseIntl-Light-72" x="946.099823"/>
     </g>
    </g>
    <g id="line2d_22">
     <path d="M 279.995 68.222 
L 289.995 68.222 
L 299.995 68.222 
" style="fill: none; stroke: #f28360; stroke-width: 1.5; stroke-linecap: round"/>
    </g>
    <g id="text_18">
     <!-- Within individual error -->
     <g transform="translate(307.995 71.722) scale(0.1 -0.1)">
      <defs>
       <path id="SuisseIntl-Light-57" d="M 4256 563 
L 3213 4640 
L 2733 4640 
L 1722 563 
L 538 4640 
L 64 4640 
L 1459 0 
L 1952 0 
L 2970 3891 
L 3994 0 
L 4486 0 
L 5875 4640 
L 5414 4640 
L 4256 563 
z
" transform="scale(0.015625)"/>
       <path id="SuisseIntl-Light-76" d="M 1517 550 
L 448 3443 
L 0 3443 
L 1318 0 
L 1702 0 
L 2982 3443 
L 2554 3443 
L 1517 550 
z
" transform="scale(0.015625)"/>
       <path id="SuisseIntl-Light-6c" d="M 877 0 
L 877 4640 
L 480 4640 
L 480 0 
L 877 0 
z
" transform="scale(0.015625)"/>
      </defs>
      <use xlink:href="#SuisseIntl-Light-57"/>
      <use xlink:href="#SuisseIntl-Light-69" x="92.799988"/>
      <use xlink:href="#SuisseIntl-Light-74" x="113.999985"/>
      <use xlink:href="#SuisseIntl-Light-68" x="144.099976"/>
      <use xlink:href="#SuisseIntl-Light-69" x="199.699966"/>
      <use xlink:href="#SuisseIntl-Light-6e" x="220.899963"/>
      <use xlink:href="#SuisseIntl-Light-20" x="276.499954"/>
      <use xlink:href="#SuisseIntl-Light-69" x="300.199951"/>
      <use xlink:href="#SuisseIntl-Light-6e" x="321.399948"/>
      <use xlink:href="#SuisseIntl-Light-64" x="376.999939"/>
      <use xlink:href="#SuisseIntl-Light-69" x="434.59993"/>
      <use xlink:href="#SuisseIntl-Light-76" x="455.799927"/>
      <use xlink:href="#SuisseIntl-Light-69" x="502.399918"/>
      <use xlink:href="#SuisseIntl-Light-64" x="523.599915"/>
      <use xlink:href="#SuisseIntl-Light-75" x="581.199905"/>
      <use xlink:href="#SuisseIntl-Light-61" x="635.599899"/>
      <use xlink:href="#SuisseIntl-Light-6c" x="688.499893"/>
      <use xlink:href="#SuisseIntl-Light-20" x="709.69989"/>
      <use xlink:href="#SuisseIntl-Light-65" x="733.399887"/>
      <use xlink:href="#SuisseIntl-Light-72" x="789.199875"/>
      <use xlink:href="#SuisseIntl-Light-72" x="820.399872"/>
      <use xlink:href="#SuisseIntl-Light-6f" x="851.599869"/>
      <use xlink:href="#SuisseIntl-Light-72" x="906.899857"/>
     </g>
    </g>
   </g>
  </g>
 </g>
 <defs>
  <clipPath id="pd34bb04b86">
   <rect x="57.6" y="41.472" width="357.12" height="266.112"/>
  </clipPath>
 </defs>
</svg>
