<?xml version="1.0" encoding="utf-8" standalone="no"?>
<!DOCTYPE svg PUBLIC "-//W3C//DTD SVG 1.1//EN"
  "http://www.w3.org/Graphics/SVG/1.1/DTD/svg11.dtd">
<svg xmlns:xlink="http://www.w3.org/1999/xlink" width="460.8pt" height="345.6pt" viewBox="0 0 460.8 345.6" xmlns="http://www.w3.org/2000/svg" version="1.1">
 <metadata>
  <rdf:RDF xmlns:dc="http://purl.org/dc/elements/1.1/" xmlns:cc="http://creativecommons.org/ns#" xmlns:rdf="http://www.w3.org/1999/02/22-rdf-syntax-ns#">
   <cc:Work>
    <dc:type rdf:resource="http://purl.org/dc/dcmitype/StillImage"/>
    <dc:date>2024-11-13T14:01:03.808514</dc:date>
    <dc:format>image/svg+xml</dc:format>
    <dc:creator>
     <cc:Agent>
      <dc:title>Matplotlib v3.5.1, https://matplotlib.org/</dc:title>
     </cc:Agent>
    </dc:creator>
   </cc:Work>
  </rdf:RDF>
 </metadata>
 <defs>
  <style type="text/css">*{stroke-linejoin: round; stroke-linecap: butt}</style>
 </defs>
 <g id="figure_1">
  <g id="patch_1">
   <path d="M 0 345.6 
L 460.8 345.6 
L 460.8 0 
L 0 0 
L 0 345.6 
z
" style="fill: none"/>
  </g>
  <g id="axes_1">
   <g id="patch_2">
    <path d="M 57.6 307.584 
L 414.72 307.584 
L 414.72 41.472 
L 57.6 41.472 
L 57.6 307.584 
z
" style="fill: none"/>
   </g>
   <g id="matplotlib.axis_1">
    <g id="xtick_1">
     <g id="line2d_1">
      <path d="M 95.896447 307.584 
L 95.896447 41.472 
" clip-path="url(#pa8bd143061)" style="fill: none; stroke: #ffffff; stroke-opacity: 0.5; stroke-linecap: round"/>
     </g>
     <g id="text_1">
      <!-- 1 -->
      <g style="fill: #262626" transform="translate(92.397072 323.142281)scale(0.11 -0.11)">
       <defs>
        <path id="DejaVuSans-31" d="M 794 531 
L 1825 531 
L 1825 4091 
L 703 3866 
L 703 4441 
L 1819 4666 
L 2450 4666 
L 2450 531 
L 3481 531 
L 3481 0 
L 794 0 
L 794 531 
z
" transform="scale(0.015625)"/>
       </defs>
       <use xlink:href="#DejaVuSans-31"/>
      </g>
     </g>
    </g>
    <g id="xtick_2">
     <g id="line2d_2">
      <path d="M 139.541694 307.584 
L 139.541694 41.472 
" clip-path="url(#pa8bd143061)" style="fill: none; stroke: #ffffff; stroke-opacity: 0.5; stroke-linecap: round"/>
     </g>
     <g id="text_2">
      <!-- 2 -->
      <g style="fill: #262626" transform="translate(136.042319 323.142281)scale(0.11 -0.11)">
       <defs>
        <path id="DejaVuSans-32" d="M 1228 531 
L 3431 531 
L 3431 0 
L 469 0 
L 469 531 
Q 828 903 1448 1529 
Q 2069 2156 2228 2338 
Q 2531 2678 2651 2914 
Q 2772 3150 2772 3378 
Q 2772 3750 2511 3984 
Q 2250 4219 1831 4219 
Q 1534 4219 1204 4116 
Q 875 4013 500 3803 
L 500 4441 
Q 881 4594 1212 4672 
Q 1544 4750 1819 4750 
Q 2544 4750 2975 4387 
Q 3406 4025 3406 3419 
Q 3406 3131 3298 2873 
Q 3191 2616 2906 2266 
Q 2828 2175 2409 1742 
Q 1991 1309 1228 531 
z
" transform="scale(0.015625)"/>
       </defs>
       <use xlink:href="#DejaVuSans-32"/>
      </g>
     </g>
    </g>
    <g id="xtick_3">
     <g id="line2d_3">
      <path d="M 183.186941 307.584 
L 183.186941 41.472 
" clip-path="url(#pa8bd143061)" style="fill: none; stroke: #ffffff; stroke-opacity: 0.5; stroke-linecap: round"/>
     </g>
     <g id="text_3">
      <!-- 3 -->
      <g style="fill: #262626" transform="translate(179.687566 323.142281)scale(0.11 -0.11)">
       <defs>
        <path id="DejaVuSans-33" d="M 2597 2516 
Q 3050 2419 3304 2112 
Q 3559 1806 3559 1356 
Q 3559 666 3084 287 
Q 2609 -91 1734 -91 
Q 1441 -91 1130 -33 
Q 819 25 488 141 
L 488 750 
Q 750 597 1062 519 
Q 1375 441 1716 441 
Q 2309 441 2620 675 
Q 2931 909 2931 1356 
Q 2931 1769 2642 2001 
Q 2353 2234 1838 2234 
L 1294 2234 
L 1294 2753 
L 1863 2753 
Q 2328 2753 2575 2939 
Q 2822 3125 2822 3475 
Q 2822 3834 2567 4026 
Q 2313 4219 1838 4219 
Q 1578 4219 1281 4162 
Q 984 4106 628 3988 
L 628 4550 
Q 988 4650 1302 4700 
Q 1616 4750 1894 4750 
Q 2613 4750 3031 4423 
Q 3450 4097 3450 3541 
Q 3450 3153 3228 2886 
Q 3006 2619 2597 2516 
z
" transform="scale(0.015625)"/>
       </defs>
       <use xlink:href="#DejaVuSans-33"/>
      </g>
     </g>
    </g>
    <g id="xtick_4">
     <g id="line2d_4">
      <path d="M 226.832188 307.584 
L 226.832188 41.472 
" clip-path="url(#pa8bd143061)" style="fill: none; stroke: #ffffff; stroke-opacity: 0.5; stroke-linecap: round"/>
     </g>
     <g id="text_4">
      <!-- 4 -->
      <g style="fill: #262626" transform="translate(223.332813 323.142281)scale(0.11 -0.11)">
       <defs>
        <path id="DejaVuSans-34" d="M 2419 4116 
L 825 1625 
L 2419 1625 
L 2419 4116 
z
M 2253 4666 
L 3047 4666 
L 3047 1625 
L 3713 1625 
L 3713 1100 
L 3047 1100 
L 3047 0 
L 2419 0 
L 2419 1100 
L 313 1100 
L 313 1709 
L 2253 4666 
z
" transform="scale(0.015625)"/>
       </defs>
       <use xlink:href="#DejaVuSans-34"/>
      </g>
     </g>
    </g>
    <g id="xtick_5">
     <g id="line2d_5">
      <path d="M 270.477434 307.584 
L 270.477434 41.472 
" clip-path="url(#pa8bd143061)" style="fill: none; stroke: #ffffff; stroke-opacity: 0.5; stroke-linecap: round"/>
     </g>
     <g id="text_5">
      <!-- 5 -->
      <g style="fill: #262626" transform="translate(266.978059 323.142281)scale(0.11 -0.11)">
       <defs>
        <path id="DejaVuSans-35" d="M 691 4666 
L 3169 4666 
L 3169 4134 
L 1269 4134 
L 1269 2991 
Q 1406 3038 1543 3061 
Q 1681 3084 1819 3084 
Q 2600 3084 3056 2656 
Q 3513 2228 3513 1497 
Q 3513 744 3044 326 
Q 2575 -91 1722 -91 
Q 1428 -91 1123 -41 
Q 819 9 494 109 
L 494 744 
Q 775 591 1075 516 
Q 1375 441 1709 441 
Q 2250 441 2565 725 
Q 2881 1009 2881 1497 
Q 2881 1984 2565 2268 
Q 2250 2553 1709 2553 
Q 1456 2553 1204 2497 
Q 953 2441 691 2322 
L 691 4666 
z
" transform="scale(0.015625)"/>
       </defs>
       <use xlink:href="#DejaVuSans-35"/>
      </g>
     </g>
    </g>
    <g id="xtick_6">
     <g id="line2d_6">
      <path d="M 314.122681 307.584 
L 314.122681 41.472 
" clip-path="url(#pa8bd143061)" style="fill: none; stroke: #ffffff; stroke-opacity: 0.5; stroke-linecap: round"/>
     </g>
     <g id="text_6">
      <!-- 6 -->
      <g style="fill: #262626" transform="translate(310.623306 323.142281)scale(0.11 -0.11)">
       <defs>
        <path id="DejaVuSans-36" d="M 2113 2584 
Q 1688 2584 1439 2293 
Q 1191 2003 1191 1497 
Q 1191 994 1439 701 
Q 1688 409 2113 409 
Q 2538 409 2786 701 
Q 3034 994 3034 1497 
Q 3034 2003 2786 2293 
Q 2538 2584 2113 2584 
z
M 3366 4563 
L 3366 3988 
Q 3128 4100 2886 4159 
Q 2644 4219 2406 4219 
Q 1781 4219 1451 3797 
Q 1122 3375 1075 2522 
Q 1259 2794 1537 2939 
Q 1816 3084 2150 3084 
Q 2853 3084 3261 2657 
Q 3669 2231 3669 1497 
Q 3669 778 3244 343 
Q 2819 -91 2113 -91 
Q 1303 -91 875 529 
Q 447 1150 447 2328 
Q 447 3434 972 4092 
Q 1497 4750 2381 4750 
Q 2619 4750 2861 4703 
Q 3103 4656 3366 4563 
z
" transform="scale(0.015625)"/>
       </defs>
       <use xlink:href="#DejaVuSans-36"/>
      </g>
     </g>
    </g>
    <g id="xtick_7">
     <g id="line2d_7">
      <path d="M 357.767928 307.584 
L 357.767928 41.472 
" clip-path="url(#pa8bd143061)" style="fill: none; stroke: #ffffff; stroke-opacity: 0.5; stroke-linecap: round"/>
     </g>
     <g id="text_7">
      <!-- 7 -->
      <g style="fill: #262626" transform="translate(354.268553 323.142281)scale(0.11 -0.11)">
       <defs>
        <path id="DejaVuSans-37" d="M 525 4666 
L 3525 4666 
L 3525 4397 
L 1831 0 
L 1172 0 
L 2766 4134 
L 525 4134 
L 525 4666 
z
" transform="scale(0.015625)"/>
       </defs>
       <use xlink:href="#DejaVuSans-37"/>
      </g>
     </g>
    </g>
    <g id="xtick_8">
     <g id="line2d_8">
      <path d="M 401.413175 307.584 
L 401.413175 41.472 
" clip-path="url(#pa8bd143061)" style="fill: none; stroke: #ffffff; stroke-opacity: 0.5; stroke-linecap: round"/>
     </g>
     <g id="text_8">
      <!-- 8 -->
      <g style="fill: #262626" transform="translate(397.9138 323.142281)scale(0.11 -0.11)">
       <defs>
        <path id="DejaVuSans-38" d="M 2034 2216 
Q 1584 2216 1326 1975 
Q 1069 1734 1069 1313 
Q 1069 891 1326 650 
Q 1584 409 2034 409 
Q 2484 409 2743 651 
Q 3003 894 3003 1313 
Q 3003 1734 2745 1975 
Q 2488 2216 2034 2216 
z
M 1403 2484 
Q 997 2584 770 2862 
Q 544 3141 544 3541 
Q 544 4100 942 4425 
Q 1341 4750 2034 4750 
Q 2731 4750 3128 4425 
Q 3525 4100 3525 3541 
Q 3525 3141 3298 2862 
Q 3072 2584 2669 2484 
Q 3125 2378 3379 2068 
Q 3634 1759 3634 1313 
Q 3634 634 3220 271 
Q 2806 -91 2034 -91 
Q 1263 -91 848 271 
Q 434 634 434 1313 
Q 434 1759 690 2068 
Q 947 2378 1403 2484 
z
M 1172 3481 
Q 1172 3119 1398 2916 
Q 1625 2713 2034 2713 
Q 2441 2713 2670 2916 
Q 2900 3119 2900 3481 
Q 2900 3844 2670 4047 
Q 2441 4250 2034 4250 
Q 1625 4250 1398 4047 
Q 1172 3844 1172 3481 
z
" transform="scale(0.015625)"/>
       </defs>
       <use xlink:href="#DejaVuSans-38"/>
      </g>
     </g>
    </g>
   </g>
   <g id="matplotlib.axis_2">
    <g id="ytick_1">
     <g id="line2d_9">
      <path d="M 57.6 307.584 
L 414.72 307.584 
" clip-path="url(#pa8bd143061)" style="fill: none; stroke: #ffffff; stroke-opacity: 0.5; stroke-linecap: round"/>
     </g>
     <g id="text_9">
      <!-- 0.0 -->
      <g style="fill: #262626" transform="translate(32.906562 311.763141)scale(0.11 -0.11)">
       <defs>
        <path id="DejaVuSans-30" d="M 2034 4250 
Q 1547 4250 1301 3770 
Q 1056 3291 1056 2328 
Q 1056 1369 1301 889 
Q 1547 409 2034 409 
Q 2525 409 2770 889 
Q 3016 1369 3016 2328 
Q 3016 3291 2770 3770 
Q 2525 4250 2034 4250 
z
M 2034 4750 
Q 2819 4750 3233 4129 
Q 3647 3509 3647 2328 
Q 3647 1150 3233 529 
Q 2819 -91 2034 -91 
Q 1250 -91 836 529 
Q 422 1150 422 2328 
Q 422 3509 836 4129 
Q 1250 4750 2034 4750 
z
" transform="scale(0.015625)"/>
        <path id="DejaVuSans-2e" d="M 684 794 
L 1344 794 
L 1344 0 
L 684 0 
L 684 794 
z
" transform="scale(0.015625)"/>
       </defs>
       <use xlink:href="#DejaVuSans-30"/>
       <use xlink:href="#DejaVuSans-2e" x="63.623047"/>
       <use xlink:href="#DejaVuSans-30" x="95.410156"/>
      </g>
     </g>
    </g>
    <g id="ytick_2">
     <g id="line2d_10">
      <path d="M 57.6 271.348706 
L 414.72 271.348706 
" clip-path="url(#pa8bd143061)" style="fill: none; stroke: #ffffff; stroke-opacity: 0.5; stroke-linecap: round"/>
     </g>
     <g id="text_10">
      <!-- 2.5 -->
      <g style="fill: #262626" transform="translate(32.906562 275.527847)scale(0.11 -0.11)">
       <use xlink:href="#DejaVuSans-32"/>
       <use xlink:href="#DejaVuSans-2e" x="63.623047"/>
       <use xlink:href="#DejaVuSans-35" x="95.410156"/>
      </g>
     </g>
    </g>
    <g id="ytick_3">
     <g id="line2d_11">
      <path d="M 57.6 235.113412 
L 414.72 235.113412 
" clip-path="url(#pa8bd143061)" style="fill: none; stroke: #ffffff; stroke-opacity: 0.5; stroke-linecap: round"/>
     </g>
     <g id="text_11">
      <!-- 5.0 -->
      <g style="fill: #262626" transform="translate(32.906562 239.292552)scale(0.11 -0.11)">
       <use xlink:href="#DejaVuSans-35"/>
       <use xlink:href="#DejaVuSans-2e" x="63.623047"/>
       <use xlink:href="#DejaVuSans-30" x="95.410156"/>
      </g>
     </g>
    </g>
    <g id="ytick_4">
     <g id="line2d_12">
      <path d="M 57.6 198.878118 
L 414.72 198.878118 
" clip-path="url(#pa8bd143061)" style="fill: none; stroke: #ffffff; stroke-opacity: 0.5; stroke-linecap: round"/>
     </g>
     <g id="text_12">
      <!-- 7.5 -->
      <g style="fill: #262626" transform="translate(32.906562 203.057258)scale(0.11 -0.11)">
       <use xlink:href="#DejaVuSans-37"/>
       <use xlink:href="#DejaVuSans-2e" x="63.623047"/>
       <use xlink:href="#DejaVuSans-35" x="95.410156"/>
      </g>
     </g>
    </g>
    <g id="ytick_5">
     <g id="line2d_13">
      <path d="M 57.6 162.642824 
L 414.72 162.642824 
" clip-path="url(#pa8bd143061)" style="fill: none; stroke: #ffffff; stroke-opacity: 0.5; stroke-linecap: round"/>
     </g>
     <g id="text_13">
      <!-- 10.0 -->
      <g style="fill: #262626" transform="translate(25.907812 166.821964)scale(0.11 -0.11)">
       <use xlink:href="#DejaVuSans-31"/>
       <use xlink:href="#DejaVuSans-30" x="63.623047"/>
       <use xlink:href="#DejaVuSans-2e" x="127.246094"/>
       <use xlink:href="#DejaVuSans-30" x="159.033203"/>
      </g>
     </g>
    </g>
    <g id="ytick_6">
     <g id="line2d_14">
      <path d="M 57.6 126.407529 
L 414.72 126.407529 
" clip-path="url(#pa8bd143061)" style="fill: none; stroke: #ffffff; stroke-opacity: 0.5; stroke-linecap: round"/>
     </g>
     <g id="text_14">
      <!-- 12.5 -->
      <g style="fill: #262626" transform="translate(25.907812 130.58667)scale(0.11 -0.11)">
       <use xlink:href="#DejaVuSans-31"/>
       <use xlink:href="#DejaVuSans-32" x="63.623047"/>
       <use xlink:href="#DejaVuSans-2e" x="127.246094"/>
       <use xlink:href="#DejaVuSans-35" x="159.033203"/>
      </g>
     </g>
    </g>
    <g id="ytick_7">
     <g id="line2d_15">
      <path d="M 57.6 90.172235 
L 414.72 90.172235 
" clip-path="url(#pa8bd143061)" style="fill: none; stroke: #ffffff; stroke-opacity: 0.5; stroke-linecap: round"/>
     </g>
     <g id="text_15">
      <!-- 15.0 -->
      <g style="fill: #262626" transform="translate(25.907812 94.351376)scale(0.11 -0.11)">
       <use xlink:href="#DejaVuSans-31"/>
       <use xlink:href="#DejaVuSans-35" x="63.623047"/>
       <use xlink:href="#DejaVuSans-2e" x="127.246094"/>
       <use xlink:href="#DejaVuSans-30" x="159.033203"/>
      </g>
     </g>
    </g>
    <g id="ytick_8">
     <g id="line2d_16">
      <path d="M 57.6 53.936941 
L 414.72 53.936941 
" clip-path="url(#pa8bd143061)" style="fill: none; stroke: #ffffff; stroke-opacity: 0.5; stroke-linecap: round"/>
     </g>
     <g id="text_16">
      <!-- 17.5 -->
      <g style="fill: #262626" transform="translate(25.907812 58.116082)scale(0.11 -0.11)">
       <use xlink:href="#DejaVuSans-31"/>
       <use xlink:href="#DejaVuSans-37" x="63.623047"/>
       <use xlink:href="#DejaVuSans-2e" x="127.246094"/>
       <use xlink:href="#DejaVuSans-35" x="159.033203"/>
      </g>
     </g>
    </g>
   </g>
   <g id="patch_3">
    <path d="M 64.467692 307.584 
L 81.636924 307.584 
L 81.636924 104.666353 
L 64.467692 104.666353 
z
" clip-path="url(#pa8bd143061)" style="fill: #4c72b0; stroke: #ffffff; stroke-linejoin: miter"/>
   </g>
   <g id="patch_4">
    <path d="M 81.636927 307.584 
L 98.806158 307.584 
L 98.806158 46.689882 
L 81.636927 46.689882 
z
" clip-path="url(#pa8bd143061)" style="fill: #4c72b0; stroke: #ffffff; stroke-linejoin: miter"/>
   </g>
   <g id="patch_5">
    <path d="M 98.806148 307.584 
L 115.97538 307.584 
L 115.97538 249.607529 
L 98.806148 249.607529 
z
" clip-path="url(#pa8bd143061)" style="fill: #4c72b0; stroke: #ffffff; stroke-linejoin: miter"/>
   </g>
   <g id="patch_6">
    <path d="M 115.975385 307.584 
L 133.144616 307.584 
L 133.144616 264.101647 
L 115.975385 264.101647 
z
" clip-path="url(#pa8bd143061)" style="fill: #4c72b0; stroke: #ffffff; stroke-linejoin: miter"/>
   </g>
   <g id="patch_7">
    <path d="M 133.144611 307.584 
L 150.313838 307.584 
L 150.313838 307.584 
L 133.144611 307.584 
z
" clip-path="url(#pa8bd143061)" style="fill: #4c72b0; stroke: #ffffff; stroke-linejoin: miter"/>
   </g>
   <g id="patch_8">
    <path d="M 150.313859 307.584 
L 167.483085 307.584 
L 167.483085 293.089882 
L 150.313859 293.089882 
z
" clip-path="url(#pa8bd143061)" style="fill: #4c72b0; stroke: #ffffff; stroke-linejoin: miter"/>
   </g>
   <g id="patch_9">
    <path d="M 167.483075 307.584 
L 184.652311 307.584 
L 184.652311 278.595765 
L 167.483075 278.595765 
z
" clip-path="url(#pa8bd143061)" style="fill: #4c72b0; stroke: #ffffff; stroke-linejoin: miter"/>
   </g>
   <g id="patch_10">
    <path d="M 184.652311 307.584 
L 201.821538 307.584 
L 201.821538 307.584 
L 184.652311 307.584 
z
" clip-path="url(#pa8bd143061)" style="fill: #4c72b0; stroke: #ffffff; stroke-linejoin: miter"/>
   </g>
   <g id="patch_11">
    <path d="M 201.821548 307.584 
L 218.990775 307.584 
L 218.990775 293.089882 
L 201.821548 293.089882 
z
" clip-path="url(#pa8bd143061)" style="fill: #4c72b0; stroke: #ffffff; stroke-linejoin: miter"/>
   </g>
   <g id="patch_12">
    <path d="M 218.990754 307.584 
L 236.15998 307.584 
L 236.15998 307.584 
L 218.990754 307.584 
z
" clip-path="url(#pa8bd143061)" style="fill: #4c72b0; stroke: #ffffff; stroke-linejoin: miter"/>
   </g>
   <g id="patch_13">
    <path d="M 236.160022 307.584 
L 253.329259 307.584 
L 253.329259 307.584 
L 236.160022 307.584 
z
" clip-path="url(#pa8bd143061)" style="fill: #4c72b0; stroke: #ffffff; stroke-linejoin: miter"/>
   </g>
   <g id="patch_14">
    <path d="M 253.329238 307.584 
L 270.498454 307.584 
L 270.498454 293.089882 
L 253.329238 293.089882 
z
" clip-path="url(#pa8bd143061)" style="fill: #4c72b0; stroke: #ffffff; stroke-linejoin: miter"/>
   </g>
   <g id="patch_15">
    <path d="M 270.498454 307.584 
L 287.667691 307.584 
L 287.667691 307.584 
L 270.498454 307.584 
z
" clip-path="url(#pa8bd143061)" style="fill: #4c72b0; stroke: #ffffff; stroke-linejoin: miter"/>
   </g>
   <g id="patch_16">
    <path d="M 287.667712 307.584 
L 304.836949 307.584 
L 304.836949 307.584 
L 287.667712 307.584 
z
" clip-path="url(#pa8bd143061)" style="fill: #4c72b0; stroke: #ffffff; stroke-linejoin: miter"/>
   </g>
   <g id="patch_17">
    <path d="M 304.836928 307.584 
L 322.006144 307.584 
L 322.006144 307.584 
L 304.836928 307.584 
z
" clip-path="url(#pa8bd143061)" style="fill: #4c72b0; stroke: #ffffff; stroke-linejoin: miter"/>
   </g>
   <g id="patch_18">
    <path d="M 322.006144 307.584 
L 339.175381 307.584 
L 339.175381 293.089882 
L 322.006144 293.089882 
z
" clip-path="url(#pa8bd143061)" style="fill: #4c72b0; stroke: #ffffff; stroke-linejoin: miter"/>
   </g>
   <g id="patch_19">
    <path d="M 339.175402 307.584 
L 356.344639 307.584 
L 356.344639 307.584 
L 339.175402 307.584 
z
" clip-path="url(#pa8bd143061)" style="fill: #4c72b0; stroke: #ffffff; stroke-linejoin: miter"/>
   </g>
   <g id="patch_20">
    <path d="M 356.344618 307.584 
L 373.513855 307.584 
L 373.513855 307.584 
L 356.344618 307.584 
z
" clip-path="url(#pa8bd143061)" style="fill: #4c72b0; stroke: #ffffff; stroke-linejoin: miter"/>
   </g>
   <g id="patch_21">
    <path d="M 373.513855 307.584 
L 390.683071 307.584 
L 390.683071 307.584 
L 373.513855 307.584 
z
" clip-path="url(#pa8bd143061)" style="fill: #4c72b0; stroke: #ffffff; stroke-linejoin: miter"/>
   </g>
   <g id="patch_22">
    <path d="M 390.683092 307.584 
L 407.852308 307.584 
L 407.852308 293.089882 
L 390.683092 293.089882 
z
" clip-path="url(#pa8bd143061)" style="fill: #4c72b0; stroke: #ffffff; stroke-linejoin: miter"/>
   </g>
   <g id="patch_23">
    <path d="M 57.6 307.584 
L 57.6 41.472 
" style="fill: none; stroke: #ffffff; stroke-width: 1.25; stroke-linejoin: miter; stroke-linecap: square"/>
   </g>
   <g id="patch_24">
    <path d="M 414.72 307.584 
L 414.72 41.472 
" style="fill: none; stroke: #ffffff; stroke-width: 1.25; stroke-linejoin: miter; stroke-linecap: square"/>
   </g>
   <g id="patch_25">
    <path d="M 57.6 307.584 
L 414.72 307.584 
" style="fill: none; stroke: #ffffff; stroke-width: 1.25; stroke-linejoin: miter; stroke-linecap: square"/>
   </g>
   <g id="patch_26">
    <path d="M 57.6 41.472 
L 414.72 41.472 
" style="fill: none; stroke: #ffffff; stroke-width: 1.25; stroke-linejoin: miter; stroke-linecap: square"/>
   </g>
  </g>
 </g>
 <defs>
  <clipPath id="pa8bd143061">
   <rect x="57.6" y="41.472" width="357.12" height="266.112"/>
  </clipPath>
 </defs>
</svg>
