<?xml version="1.0" encoding="utf-8" standalone="no"?>
<!DOCTYPE svg PUBLIC "-//W3C//DTD SVG 1.1//EN"
  "http://www.w3.org/Graphics/SVG/1.1/DTD/svg11.dtd">
<svg xmlns:xlink="http://www.w3.org/1999/xlink" width="460.8pt" height="345.6pt" viewBox="0 0 460.8 345.6" xmlns="http://www.w3.org/2000/svg" version="1.1">
 <metadata>
  <rdf:RDF xmlns:dc="http://purl.org/dc/elements/1.1/" xmlns:cc="http://creativecommons.org/ns#" xmlns:rdf="http://www.w3.org/1999/02/22-rdf-syntax-ns#">
   <cc:Work>
    <dc:type rdf:resource="http://purl.org/dc/dcmitype/StillImage"/>
    <dc:date>2024-12-02T14:34:38.824375</dc:date>
    <dc:format>image/svg+xml</dc:format>
    <dc:creator>
     <cc:Agent>
      <dc:title>Matplotlib v3.8.0, https://matplotlib.org/</dc:title>
     </cc:Agent>
    </dc:creator>
   </cc:Work>
  </rdf:RDF>
 </metadata>
 <defs>
  <style type="text/css">*{stroke-linejoin: round; stroke-linecap: butt}</style>
 </defs>
 <g id="figure_1">
  <g id="patch_1">
   <path d="M 0 345.6 
L 460.8 345.6 
L 460.8 0 
L 0 0 
L 0 345.6 
z
" style="fill: none"/>
  </g>
  <g id="axes_1">
   <g id="patch_2">
    <path d="M 103.104 307.584 
L 369.216 307.584 
L 369.216 41.472 
L 103.104 41.472 
L 103.104 307.584 
z
" style="fill: none"/>
   </g>
   <g id="matplotlib.axis_1">
    <g id="xtick_1">
     <g id="line2d_1">
      <defs>
       <path id="m240f349b8f" d="M 0 0 
L 0 1.2 
" style="stroke: #262626; stroke-width: 0.75"/>
      </defs>
      <g>
       <use xlink:href="#m240f349b8f" x="103.104" y="307.584" style="fill: #262626; stroke: #262626; stroke-width: 0.75"/>
      </g>
     </g>
     <g id="text_1">
      <!-- 0.0 -->
      <g style="fill: #262626" transform="translate(93.414938 317.234) scale(0.1 -0.1)">
       <defs>
        <path id="SuisseIntlMono-30" d="M 2061 -83 
C 3232 -83 3686 902 3686 2342 
C 3686 3782 3232 4723 2061 4723 
C 890 4723 442 3782 442 2342 
C 442 902 890 -83 2061 -83 
z
M 1037 2342 
C 1037 3610 1363 4224 2061 4224 
C 2618 4224 2944 3827 3046 3021 
L 1043 2106 
C 1037 2182 1037 2259 1037 2342 
z
M 2061 422 
C 1510 422 1190 826 1082 1619 
L 3085 2547 
C 3091 2477 3091 2413 3091 2342 
C 3091 1075 2758 422 2061 422 
z
" transform="scale(0.015625)"/>
        <path id="SuisseIntlMono-2e" d="M 2432 0 
L 2432 736 
L 1696 736 
L 1696 0 
L 2432 0 
z
" transform="scale(0.015625)"/>
       </defs>
       <use xlink:href="#SuisseIntlMono-30"/>
       <use xlink:href="#SuisseIntlMono-2e" x="64.599991"/>
       <use xlink:href="#SuisseIntlMono-30" x="129.199982"/>
      </g>
     </g>
    </g>
    <g id="xtick_2">
     <g id="line2d_2">
      <g>
       <use xlink:href="#m240f349b8f" x="156.3264" y="307.584" style="fill: #262626; stroke: #262626; stroke-width: 0.75"/>
      </g>
     </g>
     <g id="text_2">
      <!-- 0.2 -->
      <g style="fill: #262626" transform="translate(146.637338 317.234) scale(0.1 -0.1)">
       <defs>
        <path id="SuisseIntlMono-32" d="M 2138 4723 
C 1197 4723 582 4051 595 3168 
L 1197 3168 
C 1210 3930 1651 4224 2131 4224 
C 2656 4224 2931 3878 2931 3398 
C 2931 2586 2067 1715 512 506 
L 512 0 
L 3642 0 
L 3642 506 
L 1338 506 
C 2522 1453 3558 2400 3558 3475 
C 3558 4262 2950 4723 2138 4723 
z
" transform="scale(0.015625)"/>
       </defs>
       <use xlink:href="#SuisseIntlMono-30"/>
       <use xlink:href="#SuisseIntlMono-2e" x="64.599991"/>
       <use xlink:href="#SuisseIntlMono-32" x="129.199982"/>
      </g>
     </g>
    </g>
    <g id="xtick_3">
     <g id="line2d_3">
      <g>
       <use xlink:href="#m240f349b8f" x="209.5488" y="307.584" style="fill: #262626; stroke: #262626; stroke-width: 0.75"/>
      </g>
     </g>
     <g id="text_3">
      <!-- 0.4 -->
      <g style="fill: #262626" transform="translate(199.859738 317.234) scale(0.1 -0.1)">
       <defs>
        <path id="SuisseIntlMono-34" d="M 2464 3846 
L 2464 1696 
L 890 1696 
L 2464 3846 
z
M 3827 1696 
L 3053 1696 
L 3053 4640 
L 2458 4640 
L 275 1696 
L 275 1146 
L 2464 1146 
L 2464 0 
L 3053 0 
L 3053 1146 
L 3827 1146 
L 3827 1696 
z
" transform="scale(0.015625)"/>
       </defs>
       <use xlink:href="#SuisseIntlMono-30"/>
       <use xlink:href="#SuisseIntlMono-2e" x="64.599991"/>
       <use xlink:href="#SuisseIntlMono-34" x="129.199982"/>
      </g>
     </g>
    </g>
    <g id="xtick_4">
     <g id="line2d_4">
      <g>
       <use xlink:href="#m240f349b8f" x="262.7712" y="307.584" style="fill: #262626; stroke: #262626; stroke-width: 0.75"/>
      </g>
     </g>
     <g id="text_4">
      <!-- 0.6 -->
      <g style="fill: #262626" transform="translate(253.082138 317.234) scale(0.1 -0.1)">
       <defs>
        <path id="SuisseIntlMono-36" d="M 1126 1485 
C 1126 2106 1517 2560 2093 2560 
C 2656 2560 3053 2106 3053 1485 
C 3053 858 2650 422 2086 422 
C 1504 422 1126 851 1126 1485 
z
M 2176 4224 
C 2598 4224 2899 3987 2970 3578 
L 3603 3578 
C 3514 4154 3072 4723 2208 4723 
C 934 4723 454 3443 454 2138 
C 454 730 992 -83 2093 -83 
C 3040 -83 3680 659 3680 1510 
C 3680 2432 3046 3085 2227 3085 
C 1638 3085 1261 2810 1062 2451 
C 1088 3507 1466 4224 2176 4224 
z
" transform="scale(0.015625)"/>
       </defs>
       <use xlink:href="#SuisseIntlMono-30"/>
       <use xlink:href="#SuisseIntlMono-2e" x="64.599991"/>
       <use xlink:href="#SuisseIntlMono-36" x="129.199982"/>
      </g>
     </g>
    </g>
    <g id="xtick_5">
     <g id="line2d_5">
      <g>
       <use xlink:href="#m240f349b8f" x="315.9936" y="307.584" style="fill: #262626; stroke: #262626; stroke-width: 0.75"/>
      </g>
     </g>
     <g id="text_5">
      <!-- 0.8 -->
      <g style="fill: #262626" transform="translate(306.304538 317.234) scale(0.1 -0.1)">
       <defs>
        <path id="SuisseIntlMono-38" d="M 2067 4723 
C 1165 4723 557 4218 557 3539 
C 557 3168 730 2720 1171 2477 
C 589 2227 422 1722 422 1306 
C 422 435 1158 -83 2067 -83 
C 2976 -83 3712 435 3712 1306 
C 3712 1722 3539 2227 2963 2477 
C 3398 2720 3571 3168 3571 3539 
C 3571 4218 2970 4723 2067 4723 
z
M 2067 2214 
C 2688 2214 3085 1843 3085 1306 
C 3085 768 2688 422 2067 422 
C 1446 422 1043 768 1043 1306 
C 1043 1843 1446 2214 2067 2214 
z
M 2982 3482 
C 2982 3021 2618 2669 2067 2669 
C 1517 2669 1152 3021 1152 3482 
C 1152 3936 1517 4218 2067 4218 
C 2618 4218 2982 3955 2982 3482 
z
" transform="scale(0.015625)"/>
       </defs>
       <use xlink:href="#SuisseIntlMono-30"/>
       <use xlink:href="#SuisseIntlMono-2e" x="64.599991"/>
       <use xlink:href="#SuisseIntlMono-38" x="129.199982"/>
      </g>
     </g>
    </g>
    <g id="xtick_6">
     <g id="line2d_6">
      <g>
       <use xlink:href="#m240f349b8f" x="369.216" y="307.584" style="fill: #262626; stroke: #262626; stroke-width: 0.75"/>
      </g>
     </g>
     <g id="text_6">
      <!-- 1.0 -->
      <g style="fill: #262626" transform="translate(359.526938 317.234) scale(0.1 -0.1)">
       <defs>
        <path id="SuisseIntlMono-31" d="M 2093 4640 
C 1856 4134 1478 4051 704 4032 
L 704 3629 
L 1888 3629 
L 1888 506 
L 704 506 
L 704 0 
L 3450 0 
L 3450 506 
L 2477 506 
L 2477 4640 
L 2093 4640 
z
" transform="scale(0.015625)"/>
       </defs>
       <use xlink:href="#SuisseIntlMono-31"/>
       <use xlink:href="#SuisseIntlMono-2e" x="64.599991"/>
       <use xlink:href="#SuisseIntlMono-30" x="129.199982"/>
      </g>
     </g>
    </g>
    <g id="text_7">
     <!-- Narrow sense heritability -->
     <g transform="translate(155.244375 332.259) scale(0.15 -0.15)">
      <defs>
       <path id="SuisseIntl-Light-4e" d="M 3520 0 
L 4141 0 
L 4141 4640 
L 3712 4640 
L 3712 454 
L 1171 4640 
L 550 4640 
L 550 0 
L 979 0 
L 979 4179 
L 3520 0 
z
" transform="scale(0.015625)"/>
       <path id="SuisseIntl-Light-61" d="M 2643 525 
L 2662 0 
L 3066 0 
C 3046 371 3027 710 3027 1101 
C 3027 1376 3034 1690 3034 2163 
C 3034 3187 2502 3520 1702 3520 
C 934 3520 384 3072 294 2394 
L 710 2394 
C 742 2842 1094 3168 1677 3168 
C 2176 3168 2637 2995 2637 2214 
L 2637 2093 
C 979 1926 211 1638 211 858 
C 211 288 710 -83 1350 -83 
C 1990 -83 2419 160 2643 525 
z
M 1440 269 
C 986 269 653 499 653 864 
C 653 1402 1254 1587 2656 1741 
L 2656 1574 
C 2656 595 2080 269 1440 269 
z
" transform="scale(0.015625)"/>
       <path id="SuisseIntl-Light-72" d="M 1990 3040 
L 1990 3462 
C 1952 3469 1907 3469 1875 3469 
C 1459 3469 1011 3219 858 2816 
L 858 3443 
L 480 3443 
L 480 0 
L 870 0 
L 870 1805 
C 870 2534 1101 3046 1811 3046 
C 1869 3046 1926 3046 1990 3040 
z
" transform="scale(0.015625)"/>
       <path id="SuisseIntl-Light-6f" d="M 1766 3501 
C 941 3501 211 2963 211 1709 
C 211 454 941 -83 1766 -83 
C 2592 -83 3328 454 3328 1709 
C 3328 2963 2592 3501 1766 3501 
z
M 1766 282 
C 1107 282 634 723 634 1709 
C 634 2694 1107 3136 1766 3136 
C 2426 3136 2906 2694 2906 1709 
C 2906 723 2426 282 1766 282 
z
" transform="scale(0.015625)"/>
       <path id="SuisseIntl-Light-77" d="M 2086 3443 
L 1235 627 
L 474 3443 
L 32 3443 
L 1030 0 
L 1395 0 
L 2272 2893 
L 3174 0 
L 3546 0 
L 4544 3443 
L 4102 3443 
L 3366 621 
L 2483 3443 
L 2086 3443 
z
" transform="scale(0.015625)"/>
       <path id="SuisseIntl-Light-20" transform="scale(0.015625)"/>
       <path id="SuisseIntl-Light-73" d="M 2541 2502 
L 2957 2502 
C 2874 3053 2368 3507 1632 3507 
C 858 3507 314 3104 314 2560 
C 314 2022 749 1734 1248 1638 
L 1786 1536 
C 2253 1446 2637 1306 2637 902 
C 2637 442 2118 269 1702 269 
C 1171 269 736 512 659 1056 
L 243 1056 
C 346 269 960 -83 1670 -83 
C 2419 -83 3040 282 3040 966 
C 3040 1619 2413 1811 1850 1914 
L 1363 2003 
C 986 2074 717 2253 717 2592 
C 717 3008 1216 3155 1594 3155 
C 2080 3155 2458 2912 2541 2502 
z
" transform="scale(0.015625)"/>
       <path id="SuisseIntl-Light-65" d="M 211 1709 
C 211 640 826 -83 1837 -83 
C 2592 -83 3162 320 3328 1030 
L 2912 1030 
C 2778 557 2400 282 1862 282 
C 1158 282 634 774 621 1606 
L 3360 1606 
C 3411 2682 2797 3501 1824 3501 
C 902 3501 211 2822 211 1709 
z
M 634 1971 
C 717 2733 1178 3142 1818 3142 
C 2509 3142 2925 2554 2925 1971 
L 634 1971 
z
" transform="scale(0.015625)"/>
       <path id="SuisseIntl-Light-6e" d="M 877 2861 
L 877 3443 
L 480 3443 
L 480 0 
L 877 0 
L 877 1914 
C 877 2643 1325 3142 1920 3142 
C 2618 3142 2784 2707 2784 2061 
L 2784 0 
L 3181 0 
L 3181 2170 
C 3181 3014 2835 3501 2022 3501 
C 1382 3501 1043 3187 877 2861 
z
" transform="scale(0.015625)"/>
       <path id="SuisseIntl-Light-68" d="M 877 2861 
L 877 4640 
L 480 4640 
L 480 0 
L 877 0 
L 877 1914 
C 877 2643 1325 3142 1920 3142 
C 2618 3142 2784 2707 2784 2061 
L 2784 0 
L 3181 0 
L 3181 2170 
C 3181 3014 2835 3501 2022 3501 
C 1382 3501 1043 3187 877 2861 
z
" transform="scale(0.015625)"/>
       <path id="SuisseIntl-Light-69" d="M 877 4640 
L 480 4640 
L 480 4006 
L 877 4006 
L 877 4640 
z
M 877 3443 
L 480 3443 
L 480 0 
L 877 0 
L 877 3443 
z
" transform="scale(0.015625)"/>
       <path id="SuisseIntl-Light-74" d="M 640 4218 
L 640 3443 
L 70 3443 
L 70 3098 
L 640 3098 
L 640 819 
C 640 141 781 0 1395 0 
L 1722 0 
L 1722 358 
L 1517 358 
C 1056 358 1043 448 1043 896 
L 1043 3098 
L 1722 3098 
L 1722 3443 
L 1043 3443 
L 1043 4218 
L 640 4218 
z
" transform="scale(0.015625)"/>
       <path id="SuisseIntl-Light-62" d="M 2042 -83 
C 2835 -83 3482 563 3482 1709 
C 3482 2848 2835 3501 2042 3501 
C 1536 3501 1120 3264 877 2848 
L 877 4640 
L 480 4640 
L 480 0 
L 877 0 
L 877 563 
C 1120 154 1536 -83 2042 -83 
z
M 1958 275 
C 1440 275 851 691 851 1709 
C 851 2726 1440 3142 1958 3142 
C 2598 3142 3053 2624 3053 1709 
C 3053 794 2598 275 1958 275 
z
" transform="scale(0.015625)"/>
       <path id="SuisseIntl-Light-6c" d="M 877 0 
L 877 4640 
L 480 4640 
L 480 0 
L 877 0 
z
" transform="scale(0.015625)"/>
       <path id="SuisseIntl-Light-79" d="M 314 -1120 
L 538 -1120 
C 1158 -1120 1325 -1011 1568 -346 
L 2982 3443 
L 2554 3443 
L 1517 550 
L 448 3443 
L 0 3443 
L 1318 0 
L 1210 -275 
C 1030 -755 870 -774 544 -774 
L 314 -774 
L 314 -1120 
z
" transform="scale(0.015625)"/>
      </defs>
      <use xlink:href="#SuisseIntl-Light-4e"/>
      <use xlink:href="#SuisseIntl-Light-61" x="73.299988"/>
      <use xlink:href="#SuisseIntl-Light-72" x="126.199982"/>
      <use xlink:href="#SuisseIntl-Light-72" x="157.399979"/>
      <use xlink:href="#SuisseIntl-Light-6f" x="188.599976"/>
      <use xlink:href="#SuisseIntl-Light-77" x="243.899963"/>
      <use xlink:href="#SuisseIntl-Light-20" x="315.399948"/>
      <use xlink:href="#SuisseIntl-Light-73" x="339.099945"/>
      <use xlink:href="#SuisseIntl-Light-65" x="391.199936"/>
      <use xlink:href="#SuisseIntl-Light-6e" x="446.999924"/>
      <use xlink:href="#SuisseIntl-Light-73" x="502.599915"/>
      <use xlink:href="#SuisseIntl-Light-65" x="554.699905"/>
      <use xlink:href="#SuisseIntl-Light-20" x="610.499893"/>
      <use xlink:href="#SuisseIntl-Light-68" x="634.19989"/>
      <use xlink:href="#SuisseIntl-Light-65" x="689.799881"/>
      <use xlink:href="#SuisseIntl-Light-72" x="745.599869"/>
      <use xlink:href="#SuisseIntl-Light-69" x="776.799866"/>
      <use xlink:href="#SuisseIntl-Light-74" x="797.999863"/>
      <use xlink:href="#SuisseIntl-Light-61" x="828.099854"/>
      <use xlink:href="#SuisseIntl-Light-62" x="880.999847"/>
      <use xlink:href="#SuisseIntl-Light-69" x="938.599838"/>
      <use xlink:href="#SuisseIntl-Light-6c" x="959.799835"/>
      <use xlink:href="#SuisseIntl-Light-69" x="980.999832"/>
      <use xlink:href="#SuisseIntl-Light-74" x="1002.199829"/>
      <use xlink:href="#SuisseIntl-Light-79" x="1032.29982"/>
     </g>
    </g>
   </g>
   <g id="matplotlib.axis_2">
    <g id="ytick_1">
     <g id="line2d_7">
      <defs>
       <path id="mdaf0dc91f1" d="M 0 0 
L -1.2 0 
" style="stroke: #262626; stroke-width: 0.75"/>
      </defs>
      <g>
       <use xlink:href="#mdaf0dc91f1" x="103.104" y="307.584" style="fill: #262626; stroke: #262626; stroke-width: 0.75"/>
      </g>
     </g>
     <g id="text_8">
      <!-- 0.0 -->
      <g style="fill: #262626" transform="translate(81.325875 311.209) scale(0.1 -0.1)">
       <use xlink:href="#SuisseIntlMono-30"/>
       <use xlink:href="#SuisseIntlMono-2e" x="64.599991"/>
       <use xlink:href="#SuisseIntlMono-30" x="129.199982"/>
      </g>
     </g>
    </g>
    <g id="ytick_2">
     <g id="line2d_8">
      <g>
       <use xlink:href="#mdaf0dc91f1" x="103.104" y="254.3616" style="fill: #262626; stroke: #262626; stroke-width: 0.75"/>
      </g>
     </g>
     <g id="text_9">
      <!-- 0.2 -->
      <g style="fill: #262626" transform="translate(81.325875 257.9866) scale(0.1 -0.1)">
       <use xlink:href="#SuisseIntlMono-30"/>
       <use xlink:href="#SuisseIntlMono-2e" x="64.599991"/>
       <use xlink:href="#SuisseIntlMono-32" x="129.199982"/>
      </g>
     </g>
    </g>
    <g id="ytick_3">
     <g id="line2d_9">
      <g>
       <use xlink:href="#mdaf0dc91f1" x="103.104" y="201.1392" style="fill: #262626; stroke: #262626; stroke-width: 0.75"/>
      </g>
     </g>
     <g id="text_10">
      <!-- 0.4 -->
      <g style="fill: #262626" transform="translate(81.325875 204.7642) scale(0.1 -0.1)">
       <use xlink:href="#SuisseIntlMono-30"/>
       <use xlink:href="#SuisseIntlMono-2e" x="64.599991"/>
       <use xlink:href="#SuisseIntlMono-34" x="129.199982"/>
      </g>
     </g>
    </g>
    <g id="ytick_4">
     <g id="line2d_10">
      <g>
       <use xlink:href="#mdaf0dc91f1" x="103.104" y="147.9168" style="fill: #262626; stroke: #262626; stroke-width: 0.75"/>
      </g>
     </g>
     <g id="text_11">
      <!-- 0.6 -->
      <g style="fill: #262626" transform="translate(81.325875 151.5418) scale(0.1 -0.1)">
       <use xlink:href="#SuisseIntlMono-30"/>
       <use xlink:href="#SuisseIntlMono-2e" x="64.599991"/>
       <use xlink:href="#SuisseIntlMono-36" x="129.199982"/>
      </g>
     </g>
    </g>
    <g id="ytick_5">
     <g id="line2d_11">
      <g>
       <use xlink:href="#mdaf0dc91f1" x="103.104" y="94.6944" style="fill: #262626; stroke: #262626; stroke-width: 0.75"/>
      </g>
     </g>
     <g id="text_12">
      <!-- 0.8 -->
      <g style="fill: #262626" transform="translate(81.325875 98.3194) scale(0.1 -0.1)">
       <use xlink:href="#SuisseIntlMono-30"/>
       <use xlink:href="#SuisseIntlMono-2e" x="64.599991"/>
       <use xlink:href="#SuisseIntlMono-38" x="129.199982"/>
      </g>
     </g>
    </g>
    <g id="ytick_6">
     <g id="line2d_12">
      <g>
       <use xlink:href="#mdaf0dc91f1" x="103.104" y="41.472" style="fill: #262626; stroke: #262626; stroke-width: 0.75"/>
      </g>
     </g>
     <g id="text_13">
      <!-- 1.0 -->
      <g style="fill: #262626" transform="translate(81.325875 45.097) scale(0.1 -0.1)">
       <use xlink:href="#SuisseIntlMono-31"/>
       <use xlink:href="#SuisseIntlMono-2e" x="64.599991"/>
       <use xlink:href="#SuisseIntlMono-30" x="129.199982"/>
      </g>
     </g>
    </g>
    <g id="text_14">
     <!-- Variance explained by G-P atlas -->
     <g transform="translate(76.300875 278.793234) rotate(-90) scale(0.15 -0.15)">
      <defs>
       <path id="SuisseIntl-Light-56" d="M 506 4640 
L 32 4640 
L 1702 0 
L 2195 0 
L 3859 4640 
L 3398 4640 
L 1965 531 
L 506 4640 
z
" transform="scale(0.015625)"/>
       <path id="SuisseIntl-Light-63" d="M 3206 2336 
C 3104 2957 2573 3501 1792 3501 
C 787 3501 211 2778 211 1709 
C 211 646 781 -83 1760 -83 
C 2522 -83 3098 378 3238 1088 
L 2816 1088 
C 2720 659 2349 282 1760 282 
C 1158 282 634 736 634 1715 
C 634 2662 1158 3136 1754 3136 
C 2253 3136 2662 2854 2790 2336 
L 3206 2336 
z
" transform="scale(0.015625)"/>
       <path id="SuisseIntl-Light-78" d="M 1754 1786 
L 2931 3443 
L 2483 3443 
L 1530 2106 
L 576 3443 
L 102 3443 
L 1293 1773 
L 32 0 
L 493 0 
L 1517 1453 
L 2560 0 
L 3027 0 
L 1754 1786 
z
" transform="scale(0.015625)"/>
       <path id="SuisseIntl-Light-70" d="M 2042 -83 
C 2835 -83 3482 570 3482 1709 
C 3482 2854 2835 3501 2042 3501 
C 1536 3501 1120 3264 877 2854 
L 877 3443 
L 480 3443 
L 480 -1120 
L 877 -1120 
L 877 570 
C 1120 154 1536 -83 2042 -83 
z
M 1958 275 
C 1440 275 851 691 851 1709 
C 851 2726 1440 3142 1958 3142 
C 2598 3142 3053 2624 3053 1709 
C 3053 794 2598 275 1958 275 
z
" transform="scale(0.015625)"/>
       <path id="SuisseIntl-Light-64" d="M 1645 3501 
C 851 3501 205 2848 205 1709 
C 205 563 851 -83 1645 -83 
C 2150 -83 2566 154 2810 563 
L 2810 0 
L 3206 0 
L 3206 4640 
L 2810 4640 
L 2810 2848 
C 2566 3264 2150 3501 1645 3501 
z
M 1728 3142 
C 2246 3142 2835 2726 2835 1709 
C 2835 691 2246 275 1728 275 
C 1088 275 634 794 634 1709 
C 634 2624 1088 3142 1728 3142 
z
" transform="scale(0.015625)"/>
       <path id="SuisseIntl-Light-47" d="M 4288 3245 
C 4083 4211 3354 4723 2368 4723 
C 1043 4723 256 3744 256 2323 
C 256 922 986 -83 2317 -83 
C 3117 -83 3616 211 3898 653 
L 3904 0 
L 4282 0 
L 4282 2285 
L 2573 2285 
L 2573 1888 
L 3872 1888 
L 3872 1715 
C 3872 595 3008 326 2323 326 
C 1370 326 710 1088 710 2323 
C 710 3603 1427 4314 2355 4314 
C 3002 4314 3648 4019 3840 3245 
L 4288 3245 
z
" transform="scale(0.015625)"/>
       <path id="SuisseIntl-Light-2d" d="M 275 1530 
L 2067 1530 
L 2067 1978 
L 275 1978 
L 275 1530 
z
" transform="scale(0.015625)"/>
       <path id="SuisseIntl-Light-50" d="M 1939 4640 
L 550 4640 
L 550 0 
L 979 0 
L 979 1920 
L 1939 1920 
C 3053 1920 3840 2150 3840 3270 
C 3840 4384 3053 4640 1939 4640 
z
M 979 4250 
L 1997 4250 
C 2758 4250 3392 4134 3392 3270 
C 3392 2406 2758 2317 1997 2317 
L 979 2317 
L 979 4250 
z
" transform="scale(0.015625)"/>
      </defs>
      <use xlink:href="#SuisseIntl-Light-56"/>
      <use xlink:href="#SuisseIntl-Light-61" x="60.899994"/>
      <use xlink:href="#SuisseIntl-Light-72" x="113.799988"/>
      <use xlink:href="#SuisseIntl-Light-69" x="144.999985"/>
      <use xlink:href="#SuisseIntl-Light-61" x="166.199982"/>
      <use xlink:href="#SuisseIntl-Light-6e" x="219.099976"/>
      <use xlink:href="#SuisseIntl-Light-63" x="274.699966"/>
      <use xlink:href="#SuisseIntl-Light-65" x="327.799957"/>
      <use xlink:href="#SuisseIntl-Light-20" x="383.599945"/>
      <use xlink:href="#SuisseIntl-Light-65" x="407.299942"/>
      <use xlink:href="#SuisseIntl-Light-78" x="463.09993"/>
      <use xlink:href="#SuisseIntl-Light-70" x="510.999924"/>
      <use xlink:href="#SuisseIntl-Light-6c" x="568.599915"/>
      <use xlink:href="#SuisseIntl-Light-61" x="589.799911"/>
      <use xlink:href="#SuisseIntl-Light-69" x="642.699905"/>
      <use xlink:href="#SuisseIntl-Light-6e" x="663.899902"/>
      <use xlink:href="#SuisseIntl-Light-65" x="719.499893"/>
      <use xlink:href="#SuisseIntl-Light-64" x="775.299881"/>
      <use xlink:href="#SuisseIntl-Light-20" x="832.899872"/>
      <use xlink:href="#SuisseIntl-Light-62" x="856.599869"/>
      <use xlink:href="#SuisseIntl-Light-79" x="914.19986"/>
      <use xlink:href="#SuisseIntl-Light-20" x="960.79985"/>
      <use xlink:href="#SuisseIntl-Light-47" x="984.499847"/>
      <use xlink:href="#SuisseIntl-Light-2d" x="1058.999832"/>
      <use xlink:href="#SuisseIntl-Light-50" x="1095.599823"/>
      <use xlink:href="#SuisseIntl-Light-20" x="1157.29982"/>
      <use xlink:href="#SuisseIntl-Light-61" x="1180.999817"/>
      <use xlink:href="#SuisseIntl-Light-74" x="1233.899811"/>
      <use xlink:href="#SuisseIntl-Light-6c" x="1263.999802"/>
      <use xlink:href="#SuisseIntl-Light-61" x="1285.199799"/>
      <use xlink:href="#SuisseIntl-Light-73" x="1338.099792"/>
     </g>
    </g>
   </g>
   <g id="line2d_13">
    <defs>
     <path id="m8d1de74f3c" d="M 0 3 
C 0.795609 3 1.55874 2.683901 2.12132 2.12132 
C 2.683901 1.55874 3 0.795609 3 0 
C 3 -0.795609 2.683901 -1.55874 2.12132 -2.12132 
C 1.55874 -2.683901 0.795609 -3 0 -3 
C -0.795609 -3 -1.55874 -2.683901 -2.12132 -2.12132 
C -2.683901 -1.55874 -3 -0.795609 -3 0 
C -3 0.795609 -2.683901 1.55874 -2.12132 2.12132 
C -1.55874 2.683901 -0.795609 3 0 3 
z
"/>
    </defs>
    <g clip-path="url(#pd123120771)">
     <use xlink:href="#m8d1de74f3c" x="329.2992" y="60.697492" style="fill: #5088c5"/>
     <use xlink:href="#m8d1de74f3c" x="190.92096" y="255.46807" style="fill: #5088c5"/>
     <use xlink:href="#m8d1de74f3c" x="204.22656" y="206.40047" style="fill: #5088c5"/>
     <use xlink:href="#m8d1de74f3c" x="209.5488" y="206.221171" style="fill: #5088c5"/>
     <use xlink:href="#m8d1de74f3c" x="260.11008" y="75.280232" style="fill: #5088c5"/>
     <use xlink:href="#m8d1de74f3c" x="276.0768" y="66.207133" style="fill: #5088c5"/>
     <use xlink:href="#m8d1de74f3c" x="220.19328" y="111.175245" style="fill: #5088c5"/>
     <use xlink:href="#m8d1de74f3c" x="278.73792" y="128.530656" style="fill: #5088c5"/>
     <use xlink:href="#m8d1de74f3c" x="262.7712" y="63.413236" style="fill: #5088c5"/>
     <use xlink:href="#m8d1de74f3c" x="260.11008" y="84.859435" style="fill: #5088c5"/>
     <use xlink:href="#m8d1de74f3c" x="252.12672" y="86.765124" style="fill: #5088c5"/>
     <use xlink:href="#m8d1de74f3c" x="212.20992" y="138.200952" style="fill: #5088c5"/>
     <use xlink:href="#m8d1de74f3c" x="188.25984" y="175.466034" style="fill: #5088c5"/>
     <use xlink:href="#m8d1de74f3c" x="252.12672" y="74.19614" style="fill: #5088c5"/>
     <use xlink:href="#m8d1de74f3c" x="196.2432" y="98.317618" style="fill: #5088c5"/>
     <use xlink:href="#m8d1de74f3c" x="230.83776" y="108.151477" style="fill: #5088c5"/>
     <use xlink:href="#m8d1de74f3c" x="220.19328" y="170.264212" style="fill: #5088c5"/>
     <use xlink:href="#m8d1de74f3c" x="270.75456" y="109.008863" style="fill: #5088c5"/>
     <use xlink:href="#m8d1de74f3c" x="273.41568" y="96.04617" style="fill: #5088c5"/>
     <use xlink:href="#m8d1de74f3c" x="315.9936" y="64.697757" style="fill: #5088c5"/>
     <use xlink:href="#m8d1de74f3c" x="190.92096" y="221.679974" style="fill: #5088c5"/>
     <use xlink:href="#m8d1de74f3c" x="217.53216" y="98.687842" style="fill: #5088c5"/>
     <use xlink:href="#m8d1de74f3c" x="300.02688" y="110.244023" style="fill: #5088c5"/>
     <use xlink:href="#m8d1de74f3c" x="174.95424" y="218.901291" style="fill: #5088c5"/>
     <use xlink:href="#m8d1de74f3c" x="236.16" y="158.394289" style="fill: #5088c5"/>
     <use xlink:href="#m8d1de74f3c" x="294.70464" y="75.059055" style="fill: #5088c5"/>
     <use xlink:href="#m8d1de74f3c" x="273.41568" y="97.590166" style="fill: #5088c5"/>
     <use xlink:href="#m8d1de74f3c" x="230.83776" y="226.987331" style="fill: #5088c5"/>
     <use xlink:href="#m8d1de74f3c" x="246.80448" y="173.46033" style="fill: #5088c5"/>
     <use xlink:href="#m8d1de74f3c" x="233.49888" y="207.995757" style="fill: #5088c5"/>
     <use xlink:href="#m8d1de74f3c" x="254.78784" y="122.462811" style="fill: #5088c5"/>
     <use xlink:href="#m8d1de74f3c" x="300.02688" y="57.334135" style="fill: #5088c5"/>
     <use xlink:href="#m8d1de74f3c" x="244.14336" y="116.877577" style="fill: #5088c5"/>
     <use xlink:href="#m8d1de74f3c" x="310.67136" y="73.778476" style="fill: #5088c5"/>
     <use xlink:href="#m8d1de74f3c" x="257.44896" y="92.102713" style="fill: #5088c5"/>
     <use xlink:href="#m8d1de74f3c" x="292.04352" y="87.182171" style="fill: #5088c5"/>
     <use xlink:href="#m8d1de74f3c" x="217.53216" y="193.745268" style="fill: #5088c5"/>
     <use xlink:href="#m8d1de74f3c" x="249.4656" y="129.616956" style="fill: #5088c5"/>
     <use xlink:href="#m8d1de74f3c" x="297.36576" y="171.249394" style="fill: #5088c5"/>
     <use xlink:href="#m8d1de74f3c" x="180.27648" y="245.65246" style="fill: #5088c5"/>
     <use xlink:href="#m8d1de74f3c" x="236.16" y="244.316619" style="fill: #5088c5"/>
     <use xlink:href="#m8d1de74f3c" x="297.36576" y="95.996088" style="fill: #5088c5"/>
     <use xlink:href="#m8d1de74f3c" x="244.14336" y="75.891452" style="fill: #5088c5"/>
     <use xlink:href="#m8d1de74f3c" x="286.72128" y="68.982391" style="fill: #5088c5"/>
     <use xlink:href="#m8d1de74f3c" x="246.80448" y="67.813261" style="fill: #5088c5"/>
     <use xlink:href="#m8d1de74f3c" x="249.4656" y="85.306591" style="fill: #5088c5"/>
    </g>
   </g>
   <g id="line2d_14">
    <path d="M 103.104 307.584 
L 369.216 41.472 
" clip-path="url(#pd123120771)" style="fill: none; stroke-dasharray: 0.75,1.2375; stroke-dashoffset: 0; stroke: #000000; stroke-width: 0.75"/>
   </g>
   <g id="patch_3">
    <path d="M 103.104 307.584 
L 103.104 41.472 
" style="fill: none; stroke: #000000; stroke-width: 0.75; stroke-linejoin: miter; stroke-linecap: square"/>
   </g>
   <g id="patch_4">
    <path d="M 103.104 307.584 
L 369.216 307.584 
" style="fill: none; stroke: #000000; stroke-width: 0.75; stroke-linejoin: miter; stroke-linecap: square"/>
   </g>
  </g>
 </g>
 <defs>
  <clipPath id="pd123120771">
   <rect x="103.104" y="41.472" width="266.112" height="266.112"/>
  </clipPath>
 </defs>
</svg>
