<?xml version="1.0" encoding="utf-8" standalone="no"?>
<!DOCTYPE svg PUBLIC "-//W3C//DTD SVG 1.1//EN"
  "http://www.w3.org/Graphics/SVG/1.1/DTD/svg11.dtd">
<svg xmlns:xlink="http://www.w3.org/1999/xlink" width="460.8pt" height="345.6pt" viewBox="0 0 460.8 345.6" xmlns="http://www.w3.org/2000/svg" version="1.1">
 <metadata>
  <rdf:RDF xmlns:dc="http://purl.org/dc/elements/1.1/" xmlns:cc="http://creativecommons.org/ns#" xmlns:rdf="http://www.w3.org/1999/02/22-rdf-syntax-ns#">
   <cc:Work>
    <dc:type rdf:resource="http://purl.org/dc/dcmitype/StillImage"/>
    <dc:date>2024-12-02T14:21:52.111928</dc:date>
    <dc:format>image/svg+xml</dc:format>
    <dc:creator>
     <cc:Agent>
      <dc:title>Matplotlib v3.8.0, https://matplotlib.org/</dc:title>
     </cc:Agent>
    </dc:creator>
   </cc:Work>
  </rdf:RDF>
 </metadata>
 <defs>
  <style type="text/css">*{stroke-linejoin: round; stroke-linecap: butt}</style>
 </defs>
 <g id="figure_1">
  <g id="patch_1">
   <path d="M 0 345.6 
L 460.8 345.6 
L 460.8 0 
L 0 0 
L 0 345.6 
z
" style="fill: none"/>
  </g>
  <g id="axes_1">
   <g id="patch_2">
    <path d="M 103.104 307.584 
L 369.216 307.584 
L 369.216 41.472 
L 103.104 41.472 
L 103.104 307.584 
z
" style="fill: none"/>
   </g>
   <g id="matplotlib.axis_1">
    <g id="xtick_1">
     <g id="line2d_1">
      <defs>
       <path id="mc7d111ccb0" d="M 0 0 
L 0 1.2 
" style="stroke: #262626; stroke-width: 0.75"/>
      </defs>
      <g>
       <use xlink:href="#mc7d111ccb0" x="108.221538" y="307.584" style="fill: #262626; stroke: #262626; stroke-width: 0.75"/>
      </g>
     </g>
     <g id="text_1">
      <!-- 0.0 -->
      <g style="fill: #262626" transform="translate(98.532476 317.234) scale(0.1 -0.1)">
       <defs>
        <path id="SuisseIntlMono-30" d="M 2061 -83 
C 3232 -83 3686 902 3686 2342 
C 3686 3782 3232 4723 2061 4723 
C 890 4723 442 3782 442 2342 
C 442 902 890 -83 2061 -83 
z
M 1037 2342 
C 1037 3610 1363 4224 2061 4224 
C 2618 4224 2944 3827 3046 3021 
L 1043 2106 
C 1037 2182 1037 2259 1037 2342 
z
M 2061 422 
C 1510 422 1190 826 1082 1619 
L 3085 2547 
C 3091 2477 3091 2413 3091 2342 
C 3091 1075 2758 422 2061 422 
z
" transform="scale(0.015625)"/>
        <path id="SuisseIntlMono-2e" d="M 2432 0 
L 2432 736 
L 1696 736 
L 1696 0 
L 2432 0 
z
" transform="scale(0.015625)"/>
       </defs>
       <use xlink:href="#SuisseIntlMono-30"/>
       <use xlink:href="#SuisseIntlMono-2e" x="64.599991"/>
       <use xlink:href="#SuisseIntlMono-30" x="129.199982"/>
      </g>
     </g>
    </g>
    <g id="xtick_2">
     <g id="line2d_2">
      <g>
       <use xlink:href="#mc7d111ccb0" x="159.396923" y="307.584" style="fill: #262626; stroke: #262626; stroke-width: 0.75"/>
      </g>
     </g>
     <g id="text_2">
      <!-- 0.2 -->
      <g style="fill: #262626" transform="translate(149.707861 317.234) scale(0.1 -0.1)">
       <defs>
        <path id="SuisseIntlMono-32" d="M 2138 4723 
C 1197 4723 582 4051 595 3168 
L 1197 3168 
C 1210 3930 1651 4224 2131 4224 
C 2656 4224 2931 3878 2931 3398 
C 2931 2586 2067 1715 512 506 
L 512 0 
L 3642 0 
L 3642 506 
L 1338 506 
C 2522 1453 3558 2400 3558 3475 
C 3558 4262 2950 4723 2138 4723 
z
" transform="scale(0.015625)"/>
       </defs>
       <use xlink:href="#SuisseIntlMono-30"/>
       <use xlink:href="#SuisseIntlMono-2e" x="64.599991"/>
       <use xlink:href="#SuisseIntlMono-32" x="129.199982"/>
      </g>
     </g>
    </g>
    <g id="xtick_3">
     <g id="line2d_3">
      <g>
       <use xlink:href="#mc7d111ccb0" x="210.572308" y="307.584" style="fill: #262626; stroke: #262626; stroke-width: 0.75"/>
      </g>
     </g>
     <g id="text_3">
      <!-- 0.4 -->
      <g style="fill: #262626" transform="translate(200.883245 317.234) scale(0.1 -0.1)">
       <defs>
        <path id="SuisseIntlMono-34" d="M 2464 3846 
L 2464 1696 
L 890 1696 
L 2464 3846 
z
M 3827 1696 
L 3053 1696 
L 3053 4640 
L 2458 4640 
L 275 1696 
L 275 1146 
L 2464 1146 
L 2464 0 
L 3053 0 
L 3053 1146 
L 3827 1146 
L 3827 1696 
z
" transform="scale(0.015625)"/>
       </defs>
       <use xlink:href="#SuisseIntlMono-30"/>
       <use xlink:href="#SuisseIntlMono-2e" x="64.599991"/>
       <use xlink:href="#SuisseIntlMono-34" x="129.199982"/>
      </g>
     </g>
    </g>
    <g id="xtick_4">
     <g id="line2d_4">
      <g>
       <use xlink:href="#mc7d111ccb0" x="261.747692" y="307.584" style="fill: #262626; stroke: #262626; stroke-width: 0.75"/>
      </g>
     </g>
     <g id="text_4">
      <!-- 0.6 -->
      <g style="fill: #262626" transform="translate(252.05863 317.234) scale(0.1 -0.1)">
       <defs>
        <path id="SuisseIntlMono-36" d="M 1126 1485 
C 1126 2106 1517 2560 2093 2560 
C 2656 2560 3053 2106 3053 1485 
C 3053 858 2650 422 2086 422 
C 1504 422 1126 851 1126 1485 
z
M 2176 4224 
C 2598 4224 2899 3987 2970 3578 
L 3603 3578 
C 3514 4154 3072 4723 2208 4723 
C 934 4723 454 3443 454 2138 
C 454 730 992 -83 2093 -83 
C 3040 -83 3680 659 3680 1510 
C 3680 2432 3046 3085 2227 3085 
C 1638 3085 1261 2810 1062 2451 
C 1088 3507 1466 4224 2176 4224 
z
" transform="scale(0.015625)"/>
       </defs>
       <use xlink:href="#SuisseIntlMono-30"/>
       <use xlink:href="#SuisseIntlMono-2e" x="64.599991"/>
       <use xlink:href="#SuisseIntlMono-36" x="129.199982"/>
      </g>
     </g>
    </g>
    <g id="xtick_5">
     <g id="line2d_5">
      <g>
       <use xlink:href="#mc7d111ccb0" x="312.923077" y="307.584" style="fill: #262626; stroke: #262626; stroke-width: 0.75"/>
      </g>
     </g>
     <g id="text_5">
      <!-- 0.8 -->
      <g style="fill: #262626" transform="translate(303.234014 317.234) scale(0.1 -0.1)">
       <defs>
        <path id="SuisseIntlMono-38" d="M 2067 4723 
C 1165 4723 557 4218 557 3539 
C 557 3168 730 2720 1171 2477 
C 589 2227 422 1722 422 1306 
C 422 435 1158 -83 2067 -83 
C 2976 -83 3712 435 3712 1306 
C 3712 1722 3539 2227 2963 2477 
C 3398 2720 3571 3168 3571 3539 
C 3571 4218 2970 4723 2067 4723 
z
M 2067 2214 
C 2688 2214 3085 1843 3085 1306 
C 3085 768 2688 422 2067 422 
C 1446 422 1043 768 1043 1306 
C 1043 1843 1446 2214 2067 2214 
z
M 2982 3482 
C 2982 3021 2618 2669 2067 2669 
C 1517 2669 1152 3021 1152 3482 
C 1152 3936 1517 4218 2067 4218 
C 2618 4218 2982 3955 2982 3482 
z
" transform="scale(0.015625)"/>
       </defs>
       <use xlink:href="#SuisseIntlMono-30"/>
       <use xlink:href="#SuisseIntlMono-2e" x="64.599991"/>
       <use xlink:href="#SuisseIntlMono-38" x="129.199982"/>
      </g>
     </g>
    </g>
    <g id="xtick_6">
     <g id="line2d_6">
      <g>
       <use xlink:href="#mc7d111ccb0" x="364.098462" y="307.584" style="fill: #262626; stroke: #262626; stroke-width: 0.75"/>
      </g>
     </g>
     <g id="text_6">
      <!-- 1.0 -->
      <g style="fill: #262626" transform="translate(354.409399 317.234) scale(0.1 -0.1)">
       <defs>
        <path id="SuisseIntlMono-31" d="M 2093 4640 
C 1856 4134 1478 4051 704 4032 
L 704 3629 
L 1888 3629 
L 1888 506 
L 704 506 
L 704 0 
L 3450 0 
L 3450 506 
L 2477 506 
L 2477 4640 
L 2093 4640 
z
" transform="scale(0.015625)"/>
       </defs>
       <use xlink:href="#SuisseIntlMono-31"/>
       <use xlink:href="#SuisseIntlMono-2e" x="64.599991"/>
       <use xlink:href="#SuisseIntlMono-30" x="129.199982"/>
      </g>
     </g>
    </g>
    <g id="text_7">
     <!-- False positive rate -->
     <g transform="translate(176.745938 332.259) scale(0.15 -0.15)">
      <defs>
       <path id="SuisseIntl-Light-46" d="M 550 4640 
L 550 0 
L 979 0 
L 979 2202 
L 3238 2202 
L 3238 2605 
L 979 2605 
L 979 4243 
L 3386 4243 
L 3386 4640 
L 550 4640 
z
" transform="scale(0.015625)"/>
       <path id="SuisseIntl-Light-61" d="M 2643 525 
L 2662 0 
L 3066 0 
C 3046 371 3027 710 3027 1101 
C 3027 1376 3034 1690 3034 2163 
C 3034 3187 2502 3520 1702 3520 
C 934 3520 384 3072 294 2394 
L 710 2394 
C 742 2842 1094 3168 1677 3168 
C 2176 3168 2637 2995 2637 2214 
L 2637 2093 
C 979 1926 211 1638 211 858 
C 211 288 710 -83 1350 -83 
C 1990 -83 2419 160 2643 525 
z
M 1440 269 
C 986 269 653 499 653 864 
C 653 1402 1254 1587 2656 1741 
L 2656 1574 
C 2656 595 2080 269 1440 269 
z
" transform="scale(0.015625)"/>
       <path id="SuisseIntl-Light-6c" d="M 877 0 
L 877 4640 
L 480 4640 
L 480 0 
L 877 0 
z
" transform="scale(0.015625)"/>
       <path id="SuisseIntl-Light-73" d="M 2541 2502 
L 2957 2502 
C 2874 3053 2368 3507 1632 3507 
C 858 3507 314 3104 314 2560 
C 314 2022 749 1734 1248 1638 
L 1786 1536 
C 2253 1446 2637 1306 2637 902 
C 2637 442 2118 269 1702 269 
C 1171 269 736 512 659 1056 
L 243 1056 
C 346 269 960 -83 1670 -83 
C 2419 -83 3040 282 3040 966 
C 3040 1619 2413 1811 1850 1914 
L 1363 2003 
C 986 2074 717 2253 717 2592 
C 717 3008 1216 3155 1594 3155 
C 2080 3155 2458 2912 2541 2502 
z
" transform="scale(0.015625)"/>
       <path id="SuisseIntl-Light-65" d="M 211 1709 
C 211 640 826 -83 1837 -83 
C 2592 -83 3162 320 3328 1030 
L 2912 1030 
C 2778 557 2400 282 1862 282 
C 1158 282 634 774 621 1606 
L 3360 1606 
C 3411 2682 2797 3501 1824 3501 
C 902 3501 211 2822 211 1709 
z
M 634 1971 
C 717 2733 1178 3142 1818 3142 
C 2509 3142 2925 2554 2925 1971 
L 634 1971 
z
" transform="scale(0.015625)"/>
       <path id="SuisseIntl-Light-20" transform="scale(0.015625)"/>
       <path id="SuisseIntl-Light-70" d="M 2042 -83 
C 2835 -83 3482 570 3482 1709 
C 3482 2854 2835 3501 2042 3501 
C 1536 3501 1120 3264 877 2854 
L 877 3443 
L 480 3443 
L 480 -1120 
L 877 -1120 
L 877 570 
C 1120 154 1536 -83 2042 -83 
z
M 1958 275 
C 1440 275 851 691 851 1709 
C 851 2726 1440 3142 1958 3142 
C 2598 3142 3053 2624 3053 1709 
C 3053 794 2598 275 1958 275 
z
" transform="scale(0.015625)"/>
       <path id="SuisseIntl-Light-6f" d="M 1766 3501 
C 941 3501 211 2963 211 1709 
C 211 454 941 -83 1766 -83 
C 2592 -83 3328 454 3328 1709 
C 3328 2963 2592 3501 1766 3501 
z
M 1766 282 
C 1107 282 634 723 634 1709 
C 634 2694 1107 3136 1766 3136 
C 2426 3136 2906 2694 2906 1709 
C 2906 723 2426 282 1766 282 
z
" transform="scale(0.015625)"/>
       <path id="SuisseIntl-Light-69" d="M 877 4640 
L 480 4640 
L 480 4006 
L 877 4006 
L 877 4640 
z
M 877 3443 
L 480 3443 
L 480 0 
L 877 0 
L 877 3443 
z
" transform="scale(0.015625)"/>
       <path id="SuisseIntl-Light-74" d="M 640 4218 
L 640 3443 
L 70 3443 
L 70 3098 
L 640 3098 
L 640 819 
C 640 141 781 0 1395 0 
L 1722 0 
L 1722 358 
L 1517 358 
C 1056 358 1043 448 1043 896 
L 1043 3098 
L 1722 3098 
L 1722 3443 
L 1043 3443 
L 1043 4218 
L 640 4218 
z
" transform="scale(0.015625)"/>
       <path id="SuisseIntl-Light-76" d="M 1517 550 
L 448 3443 
L 0 3443 
L 1318 0 
L 1702 0 
L 2982 3443 
L 2554 3443 
L 1517 550 
z
" transform="scale(0.015625)"/>
       <path id="SuisseIntl-Light-72" d="M 1990 3040 
L 1990 3462 
C 1952 3469 1907 3469 1875 3469 
C 1459 3469 1011 3219 858 2816 
L 858 3443 
L 480 3443 
L 480 0 
L 870 0 
L 870 1805 
C 870 2534 1101 3046 1811 3046 
C 1869 3046 1926 3046 1990 3040 
z
" transform="scale(0.015625)"/>
      </defs>
      <use xlink:href="#SuisseIntl-Light-46"/>
      <use xlink:href="#SuisseIntl-Light-61" x="52.899994"/>
      <use xlink:href="#SuisseIntl-Light-6c" x="105.799988"/>
      <use xlink:href="#SuisseIntl-Light-73" x="126.999985"/>
      <use xlink:href="#SuisseIntl-Light-65" x="179.099976"/>
      <use xlink:href="#SuisseIntl-Light-20" x="234.899963"/>
      <use xlink:href="#SuisseIntl-Light-70" x="258.59996"/>
      <use xlink:href="#SuisseIntl-Light-6f" x="316.199951"/>
      <use xlink:href="#SuisseIntl-Light-73" x="371.499939"/>
      <use xlink:href="#SuisseIntl-Light-69" x="423.59993"/>
      <use xlink:href="#SuisseIntl-Light-74" x="444.799927"/>
      <use xlink:href="#SuisseIntl-Light-69" x="474.899918"/>
      <use xlink:href="#SuisseIntl-Light-76" x="496.099915"/>
      <use xlink:href="#SuisseIntl-Light-65" x="542.699905"/>
      <use xlink:href="#SuisseIntl-Light-20" x="598.499893"/>
      <use xlink:href="#SuisseIntl-Light-72" x="622.19989"/>
      <use xlink:href="#SuisseIntl-Light-61" x="653.399887"/>
      <use xlink:href="#SuisseIntl-Light-74" x="706.299881"/>
      <use xlink:href="#SuisseIntl-Light-65" x="736.399872"/>
     </g>
    </g>
   </g>
   <g id="matplotlib.axis_2">
    <g id="ytick_1">
     <g id="line2d_7">
      <defs>
       <path id="m129c4c0d0c" d="M 0 0 
L -1.2 0 
" style="stroke: #262626; stroke-width: 0.75"/>
      </defs>
      <g>
       <use xlink:href="#m129c4c0d0c" x="103.104" y="302.466462" style="fill: #262626; stroke: #262626; stroke-width: 0.75"/>
      </g>
     </g>
     <g id="text_8">
      <!-- 0.0 -->
      <g style="fill: #262626" transform="translate(81.325875 306.091462) scale(0.1 -0.1)">
       <use xlink:href="#SuisseIntlMono-30"/>
       <use xlink:href="#SuisseIntlMono-2e" x="64.599991"/>
       <use xlink:href="#SuisseIntlMono-30" x="129.199982"/>
      </g>
     </g>
    </g>
    <g id="ytick_2">
     <g id="line2d_8">
      <g>
       <use xlink:href="#m129c4c0d0c" x="103.104" y="251.291077" style="fill: #262626; stroke: #262626; stroke-width: 0.75"/>
      </g>
     </g>
     <g id="text_9">
      <!-- 0.2 -->
      <g style="fill: #262626" transform="translate(81.325875 254.916077) scale(0.1 -0.1)">
       <use xlink:href="#SuisseIntlMono-30"/>
       <use xlink:href="#SuisseIntlMono-2e" x="64.599991"/>
       <use xlink:href="#SuisseIntlMono-32" x="129.199982"/>
      </g>
     </g>
    </g>
    <g id="ytick_3">
     <g id="line2d_9">
      <g>
       <use xlink:href="#m129c4c0d0c" x="103.104" y="200.115692" style="fill: #262626; stroke: #262626; stroke-width: 0.75"/>
      </g>
     </g>
     <g id="text_10">
      <!-- 0.4 -->
      <g style="fill: #262626" transform="translate(81.325875 203.740692) scale(0.1 -0.1)">
       <use xlink:href="#SuisseIntlMono-30"/>
       <use xlink:href="#SuisseIntlMono-2e" x="64.599991"/>
       <use xlink:href="#SuisseIntlMono-34" x="129.199982"/>
      </g>
     </g>
    </g>
    <g id="ytick_4">
     <g id="line2d_10">
      <g>
       <use xlink:href="#m129c4c0d0c" x="103.104" y="148.940308" style="fill: #262626; stroke: #262626; stroke-width: 0.75"/>
      </g>
     </g>
     <g id="text_11">
      <!-- 0.6 -->
      <g style="fill: #262626" transform="translate(81.325875 152.565308) scale(0.1 -0.1)">
       <use xlink:href="#SuisseIntlMono-30"/>
       <use xlink:href="#SuisseIntlMono-2e" x="64.599991"/>
       <use xlink:href="#SuisseIntlMono-36" x="129.199982"/>
      </g>
     </g>
    </g>
    <g id="ytick_5">
     <g id="line2d_11">
      <g>
       <use xlink:href="#m129c4c0d0c" x="103.104" y="97.764923" style="fill: #262626; stroke: #262626; stroke-width: 0.75"/>
      </g>
     </g>
     <g id="text_12">
      <!-- 0.8 -->
      <g style="fill: #262626" transform="translate(81.325875 101.389923) scale(0.1 -0.1)">
       <use xlink:href="#SuisseIntlMono-30"/>
       <use xlink:href="#SuisseIntlMono-2e" x="64.599991"/>
       <use xlink:href="#SuisseIntlMono-38" x="129.199982"/>
      </g>
     </g>
    </g>
    <g id="ytick_6">
     <g id="line2d_12">
      <g>
       <use xlink:href="#m129c4c0d0c" x="103.104" y="46.589538" style="fill: #262626; stroke: #262626; stroke-width: 0.75"/>
      </g>
     </g>
     <g id="text_13">
      <!-- 1.0 -->
      <g style="fill: #262626" transform="translate(81.325875 50.214538) scale(0.1 -0.1)">
       <use xlink:href="#SuisseIntlMono-31"/>
       <use xlink:href="#SuisseIntlMono-2e" x="64.599991"/>
       <use xlink:href="#SuisseIntlMono-30" x="129.199982"/>
      </g>
     </g>
    </g>
    <g id="text_14">
     <!-- False negative rate -->
     <g transform="translate(76.106344 236.597531) rotate(-90) scale(0.15 -0.15)">
      <defs>
       <path id="SuisseIntl-Light-6e" d="M 877 2861 
L 877 3443 
L 480 3443 
L 480 0 
L 877 0 
L 877 1914 
C 877 2643 1325 3142 1920 3142 
C 2618 3142 2784 2707 2784 2061 
L 2784 0 
L 3181 0 
L 3181 2170 
C 3181 3014 2835 3501 2022 3501 
C 1382 3501 1043 3187 877 2861 
z
" transform="scale(0.015625)"/>
       <path id="SuisseIntl-Light-67" d="M 2784 704 
L 2784 77 
C 2784 -563 2387 -858 1741 -858 
C 1158 -858 858 -557 813 -192 
L 397 -192 
C 461 -813 1018 -1203 1728 -1203 
C 2547 -1203 3187 -800 3187 122 
L 3187 3443 
L 2784 3443 
L 2784 2848 
C 2547 3264 2131 3501 1619 3501 
C 832 3501 186 2848 186 1779 
C 186 704 832 58 1619 58 
C 2131 58 2547 288 2784 704 
z
M 1702 3142 
C 2227 3142 2816 2726 2816 1779 
C 2816 826 2227 410 1702 410 
C 1062 410 614 928 614 1779 
C 614 2624 1062 3142 1702 3142 
z
" transform="scale(0.015625)"/>
      </defs>
      <use xlink:href="#SuisseIntl-Light-46"/>
      <use xlink:href="#SuisseIntl-Light-61" x="52.899994"/>
      <use xlink:href="#SuisseIntl-Light-6c" x="105.799988"/>
      <use xlink:href="#SuisseIntl-Light-73" x="126.999985"/>
      <use xlink:href="#SuisseIntl-Light-65" x="179.099976"/>
      <use xlink:href="#SuisseIntl-Light-20" x="234.899963"/>
      <use xlink:href="#SuisseIntl-Light-6e" x="258.59996"/>
      <use xlink:href="#SuisseIntl-Light-65" x="314.199951"/>
      <use xlink:href="#SuisseIntl-Light-67" x="369.999939"/>
      <use xlink:href="#SuisseIntl-Light-61" x="427.299927"/>
      <use xlink:href="#SuisseIntl-Light-74" x="480.199921"/>
      <use xlink:href="#SuisseIntl-Light-69" x="510.299911"/>
      <use xlink:href="#SuisseIntl-Light-76" x="531.499908"/>
      <use xlink:href="#SuisseIntl-Light-65" x="578.099899"/>
      <use xlink:href="#SuisseIntl-Light-20" x="633.899887"/>
      <use xlink:href="#SuisseIntl-Light-72" x="657.599884"/>
      <use xlink:href="#SuisseIntl-Light-61" x="688.799881"/>
      <use xlink:href="#SuisseIntl-Light-74" x="741.699875"/>
      <use xlink:href="#SuisseIntl-Light-65" x="771.799866"/>
     </g>
    </g>
   </g>
   <g id="line2d_13">
    <path d="M 108.221538 302.466462 
L 108.221538 299.456145 
L 108.221538 296.445828 
L 111.196852 296.445828 
L 111.196852 290.425195 
L 114.172165 290.425195 
L 114.172165 278.383928 
L 117.147478 278.383928 
L 117.147478 275.373611 
L 120.122791 275.373611 
L 120.122791 272.363294 
L 123.098104 272.363294 
L 123.098104 266.342661 
L 126.073417 266.342661 
L 126.073417 263.332344 
L 129.04873 263.332344 
L 129.04873 257.31171 
L 132.024043 257.31171 
L 132.024043 254.301394 
L 134.999356 254.301394 
L 134.999356 245.270443 
L 137.974669 245.270443 
L 137.974669 218.177593 
L 140.949982 218.177593 
L 140.949982 200.115692 
L 143.925295 200.115692 
L 143.925295 197.105376 
L 146.900608 197.105376 
L 146.900608 194.095059 
L 152.851234 194.095059 
L 152.851234 191.084742 
L 158.80186 191.084742 
L 158.80186 188.074425 
L 164.752487 188.074425 
L 164.752487 179.043475 
L 167.7278 179.043475 
L 167.7278 173.022842 
L 173.678426 173.022842 
L 173.678426 163.991891 
L 176.653739 163.991891 
L 176.653739 154.960941 
L 182.604365 154.960941 
L 182.604365 142.919674 
L 194.505617 142.919674 
L 194.505617 139.909357 
L 197.48093 139.909357 
L 197.48093 133.888724 
L 200.456243 133.888724 
L 200.456243 121.847457 
L 203.431556 121.847457 
L 203.431556 106.795873 
L 206.406869 106.795873 
L 206.406869 103.785557 
L 218.308122 103.785557 
L 218.308122 94.754606 
L 221.283435 94.754606 
L 221.283435 91.74429 
L 230.209374 91.74429 
L 230.209374 88.733973 
L 233.184687 88.733973 
L 233.184687 82.713339 
L 236.16 82.713339 
L 236.16 79.703023 
L 245.085939 79.703023 
L 245.085939 73.682389 
L 248.061252 73.682389 
L 248.061252 70.672072 
L 254.011878 70.672072 
L 254.011878 67.661756 
L 271.863757 67.661756 
L 271.863757 61.641122 
L 274.83907 61.641122 
L 274.83907 58.630805 
L 277.814383 58.630805 
L 277.814383 55.620489 
L 286.740322 55.620489 
L 286.740322 52.610172 
L 292.690948 52.610172 
L 292.690948 49.599855 
L 313.51814 49.599855 
L 313.51814 46.589538 
L 325.419392 46.589538 
L 364.098462 46.589538 
" clip-path="url(#p0ad7dc77bb)" style="fill: none; stroke: #5088c5; stroke-width: 1.5; stroke-linecap: round"/>
   </g>
   <g id="line2d_14">
    <path d="M 108.221538 302.466462 
L 364.098462 46.589538 
" clip-path="url(#p0ad7dc77bb)" style="fill: none; stroke-dasharray: 5.55,2.4; stroke-dashoffset: 0; stroke: #000000; stroke-width: 1.5"/>
   </g>
   <g id="patch_3">
    <path d="M 103.104 307.584 
L 103.104 41.472 
" style="fill: none; stroke: #000000; stroke-width: 0.75; stroke-linejoin: miter; stroke-linecap: square"/>
   </g>
   <g id="patch_4">
    <path d="M 103.104 307.584 
L 369.216 307.584 
" style="fill: none; stroke: #000000; stroke-width: 0.75; stroke-linejoin: miter; stroke-linecap: square"/>
   </g>
   <g id="text_15">
    <!-- AUC = 0.73 -->
    <g transform="translate(274.541538 238.497231) scale(0.18 -0.18)">
     <defs>
      <path id="SuisseIntl-Light-41" d="M 1760 4640 
L 0 0 
L 461 0 
L 896 1165 
L 3104 1165 
L 3546 0 
L 4013 0 
L 2246 4640 
L 1760 4640 
z
M 1043 1562 
L 1990 4109 
L 2950 1562 
L 1043 1562 
z
" transform="scale(0.015625)"/>
      <path id="SuisseIntl-Light-55" d="M 909 4640 
L 480 4640 
L 480 1875 
C 480 435 998 -83 2259 -83 
C 3578 -83 4051 576 4051 1926 
L 4051 4640 
L 3622 4640 
L 3622 1875 
C 3622 870 3264 326 2259 326 
C 1274 326 909 800 909 1798 
L 909 4640 
z
" transform="scale(0.015625)"/>
      <path id="SuisseIntl-Light-43" d="M 4282 1491 
L 3834 1491 
C 3706 890 3213 326 2323 326 
C 1370 326 710 1088 710 2323 
C 710 3603 1408 4314 2323 4314 
C 3021 4314 3629 3923 3814 3149 
L 4262 3149 
C 4064 4090 3386 4723 2336 4723 
C 1011 4723 256 3744 256 2323 
C 256 922 986 -83 2317 -83 
C 3411 -83 4083 563 4282 1491 
z
" transform="scale(0.015625)"/>
      <path id="SuisseIntl-Light-3d" d="M 672 2227 
L 3667 2227 
L 3667 2605 
L 672 2605 
L 672 2227 
z
M 672 915 
L 3667 915 
L 3667 1293 
L 672 1293 
L 672 915 
z
" transform="scale(0.015625)"/>
      <path id="SuisseIntl-Light-30" d="M 346 2323 
C 346 845 909 -83 2131 -83 
C 3347 -83 3910 845 3910 2323 
C 3910 3795 3347 4723 2131 4723 
C 909 4723 346 3795 346 2323 
z
M 3494 2323 
C 3494 928 2963 269 2131 269 
C 1293 269 768 928 768 2323 
C 768 3712 1293 4371 2131 4371 
C 2963 4371 3494 3712 3494 2323 
z
" transform="scale(0.015625)"/>
      <path id="SuisseIntl-Light-2e" d="M 416 0 
L 973 0 
L 973 602 
L 416 602 
L 416 0 
z
" transform="scale(0.015625)"/>
      <path id="SuisseIntl-Light-37" d="M 32 4640 
L 32 4256 
L 2714 4256 
C 1613 3437 794 2099 666 0 
L 1107 0 
C 1171 1965 1971 3360 3200 4256 
L 3200 4640 
L 32 4640 
z
" transform="scale(0.015625)"/>
      <path id="SuisseIntl-Light-33" d="M 2950 1280 
C 2950 627 2438 269 1734 269 
C 1178 269 672 595 531 1306 
L 109 1306 
C 192 525 813 -83 1741 -83 
C 2605 -83 3373 365 3373 1286 
C 3373 1997 2982 2342 2490 2470 
C 3008 2650 3251 3091 3251 3552 
C 3251 4275 2682 4723 1798 4723 
C 870 4723 301 4186 198 3392 
L 621 3392 
C 723 4109 1280 4371 1766 4371 
C 2445 4371 2829 3987 2829 3514 
C 2829 2950 2406 2630 1542 2630 
L 1504 2630 
L 1504 2278 
L 1542 2278 
C 2413 2278 2950 1990 2950 1280 
z
" transform="scale(0.015625)"/>
     </defs>
     <use xlink:href="#SuisseIntl-Light-41"/>
     <use xlink:href="#SuisseIntl-Light-55" x="62.699997"/>
     <use xlink:href="#SuisseIntl-Light-43" x="133.499985"/>
     <use xlink:href="#SuisseIntl-Light-20" x="203.399979"/>
     <use xlink:href="#SuisseIntl-Light-3d" x="227.099976"/>
     <use xlink:href="#SuisseIntl-Light-20" x="294.899963"/>
     <use xlink:href="#SuisseIntl-Light-30" x="318.59996"/>
     <use xlink:href="#SuisseIntl-Light-2e" x="385.099945"/>
     <use xlink:href="#SuisseIntl-Light-37" x="406.799942"/>
     <use xlink:href="#SuisseIntl-Light-33" x="457.399933"/>
    </g>
   </g>
  </g>
 </g>
 <defs>
  <clipPath id="p0ad7dc77bb">
   <rect x="103.104" y="41.472" width="266.112" height="266.112"/>
  </clipPath>
 </defs>
</svg>
