<?xml version="1.0" encoding="utf-8" standalone="no"?>
<!DOCTYPE svg PUBLIC "-//W3C//DTD SVG 1.1//EN"
  "http://www.w3.org/Graphics/SVG/1.1/DTD/svg11.dtd">
<svg xmlns:xlink="http://www.w3.org/1999/xlink" width="460.8pt" height="345.6pt" viewBox="0 0 460.8 345.6" xmlns="http://www.w3.org/2000/svg" version="1.1">
 <metadata>
  <rdf:RDF xmlns:dc="http://purl.org/dc/elements/1.1/" xmlns:cc="http://creativecommons.org/ns#" xmlns:rdf="http://www.w3.org/1999/02/22-rdf-syntax-ns#">
   <cc:Work>
    <dc:type rdf:resource="http://purl.org/dc/dcmitype/StillImage"/>
    <dc:date>2025-02-07T14:16:36.591284</dc:date>
    <dc:format>image/svg+xml</dc:format>
    <dc:creator>
     <cc:Agent>
      <dc:title>Matplotlib v3.6.3, https://matplotlib.org/</dc:title>
     </cc:Agent>
    </dc:creator>
   </cc:Work>
  </rdf:RDF>
 </metadata>
 <defs>
  <style type="text/css">*{stroke-linejoin: round; stroke-linecap: butt}</style>
 </defs>
 <g id="figure_1">
  <g id="patch_1">
   <path d="M 0 345.6 
L 460.8 345.6 
L 460.8 0 
L 0 0 
L 0 345.6 
z
" style="fill: none"/>
  </g>
  <g id="axes_1">
   <g id="patch_2">
    <path d="M 57.6 307.584 
L 414.72 307.584 
L 414.72 41.472 
L 57.6 41.472 
L 57.6 307.584 
z
" style="fill: none"/>
   </g>
   <g id="matplotlib.axis_1">
    <g id="xtick_1">
     <g id="line2d_1">
      <defs>
       <path id="m36bbdb829c" d="M 0 0 
L 0 5 
" style="stroke: #262626; stroke-width: 0.75"/>
      </defs>
      <g>
       <use xlink:href="#m36bbdb829c" x="57.6" y="307.584" style="fill: #262626; stroke: #262626; stroke-width: 0.75"/>
      </g>
     </g>
     <g id="text_1">
      <text style="fill: #262626; font: 14.5px &quot;Suisse Int&apos;l Mono&quot;, monospace; text-anchor: middle" x="57.6" y="328.0965" transform="rotate(-0 57.6 328.0965)">0.0</text>
     </g>
    </g>
    <g id="xtick_2">
     <g id="line2d_2">
      <g>
       <use xlink:href="#m36bbdb829c" x="128.952647" y="307.584" style="fill: #262626; stroke: #262626; stroke-width: 0.75"/>
      </g>
     </g>
     <g id="text_2">
      <text style="fill: #262626; font: 14.5px &quot;Suisse Int&apos;l Mono&quot;, monospace; text-anchor: middle" x="128.952647" y="328.0965" transform="rotate(-0 128.952647 328.0965)">0.2</text>
     </g>
    </g>
    <g id="xtick_3">
     <g id="line2d_3">
      <g>
       <use xlink:href="#m36bbdb829c" x="200.305295" y="307.584" style="fill: #262626; stroke: #262626; stroke-width: 0.75"/>
      </g>
     </g>
     <g id="text_3">
      <text style="fill: #262626; font: 14.5px &quot;Suisse Int&apos;l Mono&quot;, monospace; text-anchor: middle" x="200.305295" y="328.0965" transform="rotate(-0 200.305295 328.0965)">0.4</text>
     </g>
    </g>
    <g id="xtick_4">
     <g id="line2d_4">
      <g>
       <use xlink:href="#m36bbdb829c" x="271.657942" y="307.584" style="fill: #262626; stroke: #262626; stroke-width: 0.75"/>
      </g>
     </g>
     <g id="text_4">
      <text style="fill: #262626; font: 14.5px &quot;Suisse Int&apos;l Mono&quot;, monospace; text-anchor: middle" x="271.657942" y="328.0965" transform="rotate(-0 271.657942 328.0965)">0.6</text>
     </g>
    </g>
    <g id="xtick_5">
     <g id="line2d_5">
      <g>
       <use xlink:href="#m36bbdb829c" x="343.010589" y="307.584" style="fill: #262626; stroke: #262626; stroke-width: 0.75"/>
      </g>
     </g>
     <g id="text_5">
      <text style="fill: #262626; font: 14.5px &quot;Suisse Int&apos;l Mono&quot;, monospace; text-anchor: middle" x="343.010589" y="328.0965" transform="rotate(-0 343.010589 328.0965)">0.8</text>
     </g>
    </g>
    <g id="xtick_6">
     <g id="line2d_6">
      <g>
       <use xlink:href="#m36bbdb829c" x="414.363237" y="307.584" style="fill: #262626; stroke: #262626; stroke-width: 0.75"/>
      </g>
     </g>
     <g id="text_6">
      <text style="fill: #262626; font: 14.5px &quot;Suisse Int&apos;l Mono&quot;, monospace; text-anchor: middle" x="414.363237" y="328.0965" transform="rotate(-0 414.363237 328.0965)">1.0</text>
     </g>
    </g>
    <g id="text_7">
     <text style="font: 500 15px &quot;Suisse Int&apos;l&quot;; text-anchor: middle" x="236.16" y="351.509" transform="rotate(-0 236.16 351.509)">Variable importance threshold (percentile)</text>
    </g>
   </g>
   <g id="matplotlib.axis_2">
    <g id="ytick_1">
     <g id="line2d_7">
      <defs>
       <path id="mf4bb5d4948" d="M 0 0 
L -5 0 
" style="stroke: #262626; stroke-width: 0.75"/>
      </defs>
      <g>
       <use xlink:href="#mf4bb5d4948" x="57.6" y="307.584" style="fill: #262626; stroke: #262626; stroke-width: 0.75"/>
      </g>
     </g>
     <g id="text_8">
      <text style="fill: #262626; font: 14.5px &quot;Suisse Int&apos;l Mono&quot;, monospace; text-anchor: end" x="47.6" y="312.84025" transform="rotate(-0 47.6 312.84025)">0.0</text>
     </g>
    </g>
    <g id="ytick_2">
     <g id="line2d_8">
      <g>
       <use xlink:href="#mf4bb5d4948" x="57.6" y="254.888554" style="fill: #262626; stroke: #262626; stroke-width: 0.75"/>
      </g>
     </g>
     <g id="text_9">
      <text style="fill: #262626; font: 14.5px &quot;Suisse Int&apos;l Mono&quot;, monospace; text-anchor: end" x="47.6" y="260.144804" transform="rotate(-0 47.6 260.144804)">0.2</text>
     </g>
    </g>
    <g id="ytick_3">
     <g id="line2d_9">
      <g>
       <use xlink:href="#mf4bb5d4948" x="57.6" y="202.193109" style="fill: #262626; stroke: #262626; stroke-width: 0.75"/>
      </g>
     </g>
     <g id="text_10">
      <text style="fill: #262626; font: 14.5px &quot;Suisse Int&apos;l Mono&quot;, monospace; text-anchor: end" x="47.6" y="207.449359" transform="rotate(-0 47.6 207.449359)">0.4</text>
     </g>
    </g>
    <g id="ytick_4">
     <g id="line2d_10">
      <g>
       <use xlink:href="#mf4bb5d4948" x="57.6" y="149.497663" style="fill: #262626; stroke: #262626; stroke-width: 0.75"/>
      </g>
     </g>
     <g id="text_11">
      <text style="fill: #262626; font: 14.5px &quot;Suisse Int&apos;l Mono&quot;, monospace; text-anchor: end" x="47.6" y="154.753913" transform="rotate(-0 47.6 154.753913)">0.6</text>
     </g>
    </g>
    <g id="ytick_5">
     <g id="line2d_11">
      <g>
       <use xlink:href="#mf4bb5d4948" x="57.6" y="96.802218" style="fill: #262626; stroke: #262626; stroke-width: 0.75"/>
      </g>
     </g>
     <g id="text_12">
      <text style="fill: #262626; font: 14.5px &quot;Suisse Int&apos;l Mono&quot;, monospace; text-anchor: end" x="47.6" y="102.058468" transform="rotate(-0 47.6 102.058468)">0.8</text>
     </g>
    </g>
    <g id="ytick_6">
     <g id="line2d_12">
      <g>
       <use xlink:href="#mf4bb5d4948" x="57.6" y="44.106772" style="fill: #262626; stroke: #262626; stroke-width: 0.75"/>
      </g>
     </g>
     <g id="text_13">
      <text style="fill: #262626; font: 14.5px &quot;Suisse Int&apos;l Mono&quot;, monospace; text-anchor: end" x="47.6" y="49.363022" transform="rotate(-0 47.6 49.363022)">1.0</text>
     </g>
    </g>
    <g id="text_14">
     <text style="font: 500 15px &quot;Suisse Int&apos;l&quot;; text-anchor: middle" x="6.876719" y="174.528" transform="rotate(-90 6.876719 174.528)">Fraction of linked loci identified</text>
    </g>
   </g>
   <g id="line2d_13">
    <path d="M 410.795604 44.998404 
L 407.227972 92.700711 
L 403.66034 127.920171 
L 400.092707 182.309717 
L 396.525075 206.383779 
L 392.957443 233.132736 
L 389.38981 259.435877 
L 385.822178 270.581276 
L 382.254545 282.172491 
L 378.686913 286.63065 
L 375.119281 289.751362 
L 371.551648 292.426258 
L 367.984016 294.655337 
L 364.416384 297.776049 
L 360.848751 299.559313 
L 357.281119 300.896761 
L 353.713487 302.234209 
L 350.145854 303.12584 
L 346.578222 304.017472 
L 343.010589 304.017472 
L 339.442957 304.463288 
L 335.875325 304.463288 
L 332.307692 304.909104 
L 328.74006 304.909104 
L 325.172428 305.800736 
L 321.604795 306.692368 
L 318.037163 306.692368 
L 314.46953 306.692368 
L 310.901898 306.692368 
L 307.334266 306.692368 
L 303.766633 307.138184 
L 300.199001 307.138184 
L 296.631369 307.584 
L 293.063736 307.584 
L 289.496104 307.584 
L 285.928472 307.584 
L 282.360839 307.584 
L 278.793207 307.584 
L 275.225574 307.584 
L 271.657942 307.584 
L 268.09031 307.584 
L 264.522677 307.584 
L 260.955045 307.584 
L 257.387413 307.584 
L 253.81978 307.584 
L 250.252148 307.584 
L 246.684515 307.584 
L 243.116883 307.584 
L 239.549251 307.584 
L 235.981618 307.584 
L 232.413986 307.584 
L 228.846354 307.584 
L 225.278721 307.584 
L 221.711089 307.584 
L 218.143457 307.584 
L 214.575824 307.584 
L 211.008192 307.584 
L 207.440559 307.584 
L 203.872927 307.584 
L 200.305295 307.584 
L 196.737662 307.584 
L 193.17003 307.584 
L 189.602398 307.584 
L 186.034765 307.584 
L 182.467133 307.584 
L 178.8995 307.584 
L 175.331868 307.584 
L 171.764236 307.584 
L 168.196603 307.584 
L 164.628971 307.584 
L 161.061339 307.584 
L 157.493706 307.584 
L 153.926074 307.584 
L 150.358442 307.584 
L 146.790809 307.584 
L 143.223177 307.584 
L 139.655544 307.584 
L 136.087912 307.584 
L 132.52028 307.584 
L 128.952647 307.584 
L 125.385015 307.584 
L 121.817383 307.584 
L 118.24975 307.584 
L 114.682118 307.584 
L 111.114486 307.584 
L 107.546853 307.584 
L 103.979221 307.584 
L 100.411588 307.584 
L 96.843956 307.584 
L 93.276324 307.584 
L 89.708691 307.584 
L 86.141059 307.584 
L 82.573427 307.584 
L 79.005794 307.584 
L 75.438162 307.584 
L 71.870529 307.584 
L 68.302897 307.584 
L 64.735265 307.584 
L 61.167632 307.584 
L 57.6 307.584 
" clip-path="url(#p73e256f83d)" style="fill: none; stroke: #5088c5; stroke-width: 1.5; stroke-linecap: round"/>
   </g>
   <g id="patch_3">
    <path d="M 57.6 307.584 
L 57.6 41.472 
" style="fill: none; stroke: #000000; stroke-width: 0.75; stroke-linejoin: miter; stroke-linecap: square"/>
   </g>
   <g id="patch_4">
    <path d="M 57.6 307.584 
L 414.72 307.584 
" style="fill: none; stroke: #000000; stroke-width: 0.75; stroke-linejoin: miter; stroke-linecap: square"/>
   </g>
  </g>
 </g>
 <defs>
  <clipPath id="p73e256f83d">
   <rect x="57.6" y="41.472" width="357.12" height="266.112"/>
  </clipPath>
 </defs>
</svg>
