<?xml version="1.0" encoding="utf-8" standalone="no"?>
<!DOCTYPE svg PUBLIC "-//W3C//DTD SVG 1.1//EN"
  "http://www.w3.org/Graphics/SVG/1.1/DTD/svg11.dtd">
<svg xmlns:xlink="http://www.w3.org/1999/xlink" width="460.8pt" height="345.6pt" viewBox="0 0 460.8 345.6" xmlns="http://www.w3.org/2000/svg" version="1.1">
 <metadata>
  <rdf:RDF xmlns:dc="http://purl.org/dc/elements/1.1/" xmlns:cc="http://creativecommons.org/ns#" xmlns:rdf="http://www.w3.org/1999/02/22-rdf-syntax-ns#">
   <cc:Work>
    <dc:type rdf:resource="http://purl.org/dc/dcmitype/StillImage"/>
    <dc:date>2025-02-07T13:49:28.141310</dc:date>
    <dc:format>image/svg+xml</dc:format>
    <dc:creator>
     <cc:Agent>
      <dc:title>Matplotlib v3.6.3, https://matplotlib.org/</dc:title>
     </cc:Agent>
    </dc:creator>
   </cc:Work>
  </rdf:RDF>
 </metadata>
 <defs>
  <style type="text/css">*{stroke-linejoin: round; stroke-linecap: butt}</style>
 </defs>
 <g id="figure_1">
  <g id="patch_1">
   <path d="M 0 345.6 
L 460.8 345.6 
L 460.8 0 
L 0 0 
L 0 345.6 
z
" style="fill: none"/>
  </g>
  <g id="axes_1">
   <g id="patch_2">
    <path d="M 57.6 307.584 
L 414.72 307.584 
L 414.72 41.472 
L 57.6 41.472 
L 57.6 307.584 
z
" style="fill: none"/>
   </g>
   <g id="matplotlib.axis_1">
    <g id="xtick_1">
     <g id="line2d_1">
      <defs>
       <path id="mf4e56239be" d="M 0 0 
L 0 5 
" style="stroke: #262626; stroke-width: 0.75"/>
      </defs>
      <g>
       <use xlink:href="#mf4e56239be" x="57.6" y="307.584" style="fill: #262626; stroke: #262626; stroke-width: 0.75"/>
      </g>
     </g>
     <g id="text_1">
      <text style="fill: #262626; font: 14.5px &quot;Suisse Int&apos;l Mono&quot;, monospace; text-anchor: middle" x="57.6" y="328.0965" transform="rotate(-0 57.6 328.0965)">0</text>
     </g>
    </g>
    <g id="xtick_2">
     <g id="line2d_2">
      <g>
       <use xlink:href="#mf4e56239be" x="108.617143" y="307.584" style="fill: #262626; stroke: #262626; stroke-width: 0.75"/>
      </g>
     </g>
     <g id="text_2">
      <text style="fill: #262626; font: 14.5px &quot;Suisse Int&apos;l Mono&quot;, monospace; text-anchor: middle" x="108.617143" y="328.0965" transform="rotate(-0 108.617143 328.0965)">1</text>
     </g>
    </g>
    <g id="xtick_3">
     <g id="line2d_3">
      <g>
       <use xlink:href="#mf4e56239be" x="159.634286" y="307.584" style="fill: #262626; stroke: #262626; stroke-width: 0.75"/>
      </g>
     </g>
     <g id="text_3">
      <text style="fill: #262626; font: 14.5px &quot;Suisse Int&apos;l Mono&quot;, monospace; text-anchor: middle" x="159.634286" y="328.0965" transform="rotate(-0 159.634286 328.0965)">2</text>
     </g>
    </g>
    <g id="xtick_4">
     <g id="line2d_4">
      <g>
       <use xlink:href="#mf4e56239be" x="210.651429" y="307.584" style="fill: #262626; stroke: #262626; stroke-width: 0.75"/>
      </g>
     </g>
     <g id="text_4">
      <text style="fill: #262626; font: 14.5px &quot;Suisse Int&apos;l Mono&quot;, monospace; text-anchor: middle" x="210.651429" y="328.0965" transform="rotate(-0 210.651429 328.0965)">3</text>
     </g>
    </g>
    <g id="xtick_5">
     <g id="line2d_5">
      <g>
       <use xlink:href="#mf4e56239be" x="261.668571" y="307.584" style="fill: #262626; stroke: #262626; stroke-width: 0.75"/>
      </g>
     </g>
     <g id="text_5">
      <text style="fill: #262626; font: 14.5px &quot;Suisse Int&apos;l Mono&quot;, monospace; text-anchor: middle" x="261.668571" y="328.0965" transform="rotate(-0 261.668571 328.0965)">4</text>
     </g>
    </g>
    <g id="xtick_6">
     <g id="line2d_6">
      <g>
       <use xlink:href="#mf4e56239be" x="312.685714" y="307.584" style="fill: #262626; stroke: #262626; stroke-width: 0.75"/>
      </g>
     </g>
     <g id="text_6">
      <text style="fill: #262626; font: 14.5px &quot;Suisse Int&apos;l Mono&quot;, monospace; text-anchor: middle" x="312.685714" y="328.0965" transform="rotate(-0 312.685714 328.0965)">5</text>
     </g>
    </g>
    <g id="xtick_7">
     <g id="line2d_7">
      <g>
       <use xlink:href="#mf4e56239be" x="363.702857" y="307.584" style="fill: #262626; stroke: #262626; stroke-width: 0.75"/>
      </g>
     </g>
     <g id="text_7">
      <text style="fill: #262626; font: 14.5px &quot;Suisse Int&apos;l Mono&quot;, monospace; text-anchor: middle" x="363.702857" y="328.0965" transform="rotate(-0 363.702857 328.0965)">6</text>
     </g>
    </g>
    <g id="xtick_8">
     <g id="line2d_8">
      <g>
       <use xlink:href="#mf4e56239be" x="414.72" y="307.584" style="fill: #262626; stroke: #262626; stroke-width: 0.75"/>
      </g>
     </g>
     <g id="text_8">
      <text style="fill: #262626; font: 14.5px &quot;Suisse Int&apos;l Mono&quot;, monospace; text-anchor: middle" x="414.72" y="328.0965" transform="rotate(-0 414.72 328.0965)">7</text>
     </g>
    </g>
    <g id="text_9">
     <text style="font: 500 15px &quot;Suisse Int&apos;l&quot;; text-anchor: middle" x="236.16" y="351.509" transform="rotate(-0 236.16 351.509)">Mean squared error</text>
    </g>
   </g>
   <g id="matplotlib.axis_2">
    <g id="ytick_1">
     <g id="line2d_9">
      <defs>
       <path id="ma2c17791f9" d="M 0 0 
L -5 0 
" style="stroke: #262626; stroke-width: 0.75"/>
      </defs>
      <g>
       <use xlink:href="#ma2c17791f9" x="57.6" y="307.584" style="fill: #262626; stroke: #262626; stroke-width: 0.75"/>
      </g>
     </g>
     <g id="text_10">
      <text style="fill: #262626; font: 14.5px &quot;Suisse Int&apos;l Mono&quot;, monospace; text-anchor: end" x="47.6" y="312.84025" transform="rotate(-0 47.6 312.84025)">0.0</text>
     </g>
    </g>
    <g id="ytick_2">
     <g id="line2d_10">
      <g>
       <use xlink:href="#ma2c17791f9" x="57.6" y="251.849198" style="fill: #262626; stroke: #262626; stroke-width: 0.75"/>
      </g>
     </g>
     <g id="text_11">
      <text style="fill: #262626; font: 14.5px &quot;Suisse Int&apos;l Mono&quot;, monospace; text-anchor: end" x="47.6" y="257.105448" transform="rotate(-0 47.6 257.105448)">0.2</text>
     </g>
    </g>
    <g id="ytick_3">
     <g id="line2d_11">
      <g>
       <use xlink:href="#ma2c17791f9" x="57.6" y="196.114397" style="fill: #262626; stroke: #262626; stroke-width: 0.75"/>
      </g>
     </g>
     <g id="text_12">
      <text style="fill: #262626; font: 14.5px &quot;Suisse Int&apos;l Mono&quot;, monospace; text-anchor: end" x="47.6" y="201.370647" transform="rotate(-0 47.6 201.370647)">0.4</text>
     </g>
    </g>
    <g id="ytick_4">
     <g id="line2d_12">
      <g>
       <use xlink:href="#ma2c17791f9" x="57.6" y="140.379595" style="fill: #262626; stroke: #262626; stroke-width: 0.75"/>
      </g>
     </g>
     <g id="text_13">
      <text style="fill: #262626; font: 14.5px &quot;Suisse Int&apos;l Mono&quot;, monospace; text-anchor: end" x="47.6" y="145.635845" transform="rotate(-0 47.6 145.635845)">0.6</text>
     </g>
    </g>
    <g id="ytick_5">
     <g id="line2d_13">
      <g>
       <use xlink:href="#ma2c17791f9" x="57.6" y="84.644794" style="fill: #262626; stroke: #262626; stroke-width: 0.75"/>
      </g>
     </g>
     <g id="text_14">
      <text style="fill: #262626; font: 14.5px &quot;Suisse Int&apos;l Mono&quot;, monospace; text-anchor: end" x="47.6" y="89.901044" transform="rotate(-0 47.6 89.901044)">0.8</text>
     </g>
    </g>
    <g id="text_15">
     <text style="font: 500 15px &quot;Suisse Int&apos;l&quot;; text-anchor: middle" x="6.876719" y="174.528" transform="rotate(-90 6.876719 174.528)">Density</text>
    </g>
   </g>
   <g id="line2d_14">
    <path d="M 57.238473 307.559185 
L 61.28663 307.43254 
L 63.985401 307.155254 
L 65.334787 306.894909 
L 66.684173 306.507589 
L 68.033558 305.947134 
L 69.382944 305.156782 
L 70.73233 304.06848 
L 72.081715 302.602606 
L 73.431101 300.668319 
L 74.780486 298.164869 
L 76.129872 294.984223 
L 77.479258 291.015287 
L 78.828643 286.149784 
L 80.178029 280.289519 
L 81.527415 273.354383 
L 82.8768 265.290166 
L 84.226186 256.075092 
L 85.575572 245.724096 
L 86.924957 234.29018 
L 89.623729 208.563386 
L 92.3225 179.965652 
L 99.069428 106.211116 
L 100.418814 93.082102 
L 101.768199 81.175637 
L 103.117585 70.773151 
L 104.466971 62.108638 
L 105.816356 55.343577 
L 107.165742 50.549473 
L 108.515128 47.70228 
L 109.864513 46.689862 
L 111.213899 47.330355 
L 112.563285 49.396923 
L 113.91267 52.643652 
L 115.262056 56.828304 
L 116.611441 61.729426 
L 119.310213 72.958147 
L 123.35837 91.583602 
L 131.454684 129.479384 
L 135.50284 146.9275 
L 139.550997 164.409576 
L 142.249769 177.113675 
L 146.297926 197.800889 
L 148.996697 211.519852 
L 151.695468 223.888046 
L 153.044854 229.29577 
L 154.39424 234.119887 
L 155.743625 238.367776 
L 157.093011 242.088058 
L 158.442396 245.360893 
L 161.141168 250.964258 
L 166.53871 260.861762 
L 173.285639 273.245234 
L 175.98441 277.740643 
L 178.683181 281.60592 
L 180.032567 283.242121 
L 181.381952 284.663018 
L 182.731338 285.869792 
L 184.080724 286.87864 
L 186.779495 288.446772 
L 190.827652 290.488025 
L 193.526423 292.211 
L 196.225195 294.322815 
L 200.273351 297.588108 
L 202.972123 299.34878 
L 205.670894 300.665483 
L 209.719051 302.167887 
L 215.116594 303.990357 
L 217.815365 304.714087 
L 220.514136 305.170566 
L 223.212907 305.37881 
L 232.658607 305.601745 
L 235.357378 305.504374 
L 238.05615 305.2182 
L 244.803078 304.264627 
L 247.501849 304.214039 
L 250.20062 304.486815 
L 252.899392 305.0159 
L 259.64632 306.558712 
L 262.345091 306.995251 
L 266.393248 307.379505 
L 271.790791 307.552845 
L 285.284647 307.576333 
L 293.380961 307.432656 
L 298.778504 307.095317 
L 304.176046 306.763819 
L 308.224203 306.796811 
L 314.971131 307.259558 
L 320.368674 307.507532 
L 325.766216 307.574632 
L 325.766216 307.574632 
" clip-path="url(#p9482cd4adf)" style="fill: none; stroke: #5088c5; stroke-width: 1.5; stroke-linecap: round"/>
   </g>
   <g id="line2d_15">
    <path d="M 118.756485 307.584 
L 118.756485 41.472 
" clip-path="url(#p9482cd4adf)" style="fill: none; stroke: #5088c5; stroke-width: 1.5; stroke-linecap: round"/>
   </g>
   <g id="line2d_16">
    <path d="M -1 304.016117 
L 0.678173 303.542249 
L 3.380803 302.633286 
L 6.083433 301.558566 
L 8.786063 300.297228 
L 11.488693 298.827855 
L 14.191323 297.12895 
L 16.893953 295.179491 
L 19.596583 292.959594 
L 22.299213 290.451237 
L 25.001843 287.639067 
L 27.704473 284.511239 
L 30.407103 281.060274 
L 33.109733 277.283903 
L 35.812363 273.185859 
L 38.514993 268.77657 
L 41.217623 264.073734 
L 43.920253 259.102712 
L 49.325513 248.496765 
L 57.433403 231.652007 
L 62.838663 220.507693 
L 65.541293 215.169275 
L 68.243923 210.082917 
L 70.946553 205.319309 
L 73.649183 200.945737 
L 76.351813 197.024273 
L 79.054443 193.610066 
L 81.757073 190.74983 
L 84.459703 188.480563 
L 87.162333 186.828569 
L 89.864963 185.808817 
L 92.567593 185.424664 
L 95.270223 185.667943 
L 97.972853 186.519429 
L 100.675484 187.94963 
L 103.378114 189.919884 
L 106.080744 192.38371 
L 108.783374 195.288338 
L 111.486004 198.576361 
L 114.188634 202.187437 
L 116.891264 206.059967 
L 122.296524 214.346172 
L 135.809674 235.71075 
L 141.214934 243.645981 
L 146.620194 250.921498 
L 149.322824 254.280518 
L 152.025454 257.445784 
L 154.728084 260.415837 
L 157.430714 263.192113 
L 160.133344 265.778394 
L 162.835974 268.180302 
L 165.538604 270.404867 
L 168.241234 272.460152 
L 170.943864 274.354954 
L 173.646494 276.098561 
L 176.349124 277.700578 
L 181.754384 280.519056 
L 187.159644 282.889186 
L 192.564904 284.88893 
L 197.970164 286.593433 
L 203.375424 288.072667 
L 211.483314 290.001446 
L 222.293834 292.259763 
L 233.104354 294.29789 
L 241.212245 295.653324 
L 249.320135 296.784799 
L 257.428025 297.631745 
L 265.535915 298.183201 
L 273.643805 298.498035 
L 295.264845 299.172032 
L 303.372735 299.729335 
L 311.480625 300.535514 
L 322.291145 301.896466 
L 338.506925 303.974514 
L 346.614815 304.760666 
L 354.722705 305.267517 
L 362.830595 305.471416 
L 370.938486 305.396449 
L 381.749006 304.978752 
L 403.370046 303.946365 
L 411.477936 303.791321 
L 419.585826 303.853262 
L 427.693716 304.129156 
L 438.504236 304.749237 
L 461.8 306.30844 
L 461.8 306.30844 
" clip-path="url(#p9482cd4adf)" style="fill: none; stroke: #f28360; stroke-width: 1.5; stroke-linecap: round"/>
   </g>
   <g id="line2d_17">
    <path d="M 94.24045 307.584 
L 94.24045 41.472 
" clip-path="url(#p9482cd4adf)" style="fill: none; stroke: #5088c5; stroke-width: 1.5; stroke-linecap: round"/>
   </g>
   <g id="patch_3">
    <path d="M 57.6 307.584 
L 57.6 41.472 
" style="fill: none; stroke: #000000; stroke-width: 0.75; stroke-linejoin: miter; stroke-linecap: square"/>
   </g>
   <g id="patch_4">
    <path d="M 57.6 307.584 
L 414.72 307.584 
" style="fill: none; stroke: #000000; stroke-width: 0.75; stroke-linejoin: miter; stroke-linecap: square"/>
   </g>
   <g id="legend_1">
    <g id="line2d_18">
     <path d="M 201.872344 60.597 
L 216.872344 60.597 
L 231.872344 60.597 
" style="fill: none; stroke: #5088c5; stroke-width: 1.5; stroke-linecap: round"/>
    </g>
    <g id="text_16">
     <text style="font: 15px &quot;Suisse Int&apos;l&quot;; text-anchor: start" x="243.872344" y="65.847" transform="rotate(-0 243.872344 65.847)">Within phenotype error</text>
    </g>
    <g id="line2d_19">
     <path d="M 201.872344 84.096 
L 216.872344 84.096 
L 231.872344 84.096 
" style="fill: none; stroke: #f28360; stroke-width: 1.5; stroke-linecap: round"/>
    </g>
    <g id="text_17">
     <text style="font: 15px &quot;Suisse Int&apos;l&quot;; text-anchor: start" x="243.872344" y="89.346" transform="rotate(-0 243.872344 89.346)">Within individual error</text>
    </g>
   </g>
  </g>
 </g>
 <defs>
  <clipPath id="p9482cd4adf">
   <rect x="57.6" y="41.472" width="357.12" height="266.112"/>
  </clipPath>
 </defs>
</svg>
