<?xml version="1.0" encoding="utf-8" standalone="no"?>
<!DOCTYPE svg PUBLIC "-//W3C//DTD SVG 1.1//EN"
  "http://www.w3.org/Graphics/SVG/1.1/DTD/svg11.dtd">
<svg xmlns:xlink="http://www.w3.org/1999/xlink" width="460.8pt" height="345.6pt" viewBox="0 0 460.8 345.6" xmlns="http://www.w3.org/2000/svg" version="1.1">
 <metadata>
  <rdf:RDF xmlns:dc="http://purl.org/dc/elements/1.1/" xmlns:cc="http://creativecommons.org/ns#" xmlns:rdf="http://www.w3.org/1999/02/22-rdf-syntax-ns#">
   <cc:Work>
    <dc:type rdf:resource="http://purl.org/dc/dcmitype/StillImage"/>
    <dc:date>2025-07-14T13:38:15.880483</dc:date>
    <dc:format>image/svg+xml</dc:format>
    <dc:creator>
     <cc:Agent>
      <dc:title>Matplotlib v3.5.1, https://matplotlib.org/</dc:title>
     </cc:Agent>
    </dc:creator>
   </cc:Work>
  </rdf:RDF>
 </metadata>
 <defs>
  <style type="text/css">*{stroke-linejoin: round; stroke-linecap: butt}</style>
 </defs>
 <g id="figure_1">
  <g id="patch_1">
   <path d="M 0 345.6 
L 460.8 345.6 
L 460.8 0 
L 0 0 
L 0 345.6 
z
" style="fill: none"/>
  </g>
  <g id="axes_1">
   <g id="patch_2">
    <path d="M 57.6 307.584 
L 414.72 307.584 
L 414.72 41.472 
L 57.6 41.472 
L 57.6 307.584 
z
" style="fill: none"/>
   </g>
   <g id="patch_3">
    <path d="M 64.467692 174.528 
L 81.636923 174.528 
L 81.636923 174.528 
L 64.467692 174.528 
z
" clip-path="url(#p6fc714aa51)" style="fill: #5088c5"/>
   </g>
   <g id="patch_4">
    <path d="M 81.636923 174.528 
L 98.806154 174.528 
L 98.806154 174.528 
L 81.636923 174.528 
z
" clip-path="url(#p6fc714aa51)" style="fill: #5088c5"/>
   </g>
   <g id="patch_5">
    <path d="M 98.806154 174.528 
L 115.975385 174.528 
L 115.975385 174.528 
L 98.806154 174.528 
z
" clip-path="url(#p6fc714aa51)" style="fill: #5088c5"/>
   </g>
   <g id="patch_6">
    <path d="M 115.975385 174.528 
L 133.144615 174.528 
L 133.144615 174.528 
L 115.975385 174.528 
z
" clip-path="url(#p6fc714aa51)" style="fill: #5088c5"/>
   </g>
   <g id="patch_7">
    <path d="M 133.144615 174.528 
L 150.313846 174.528 
L 150.313846 174.528 
L 133.144615 174.528 
z
" clip-path="url(#p6fc714aa51)" style="fill: #5088c5"/>
   </g>
   <g id="patch_8">
    <path d="M 150.313846 174.528 
L 167.483077 174.528 
L 167.483077 174.528 
L 150.313846 174.528 
z
" clip-path="url(#p6fc714aa51)" style="fill: #5088c5"/>
   </g>
   <g id="patch_9">
    <path d="M 167.483077 174.528 
L 184.652308 174.528 
L 184.652308 174.528 
L 167.483077 174.528 
z
" clip-path="url(#p6fc714aa51)" style="fill: #5088c5"/>
   </g>
   <g id="patch_10">
    <path d="M 184.652308 174.528 
L 201.821538 174.528 
L 201.821538 174.528 
L 184.652308 174.528 
z
" clip-path="url(#p6fc714aa51)" style="fill: #5088c5"/>
   </g>
   <g id="patch_11">
    <path d="M 201.821538 174.528 
L 218.990769 174.528 
L 218.990769 174.528 
L 201.821538 174.528 
z
" clip-path="url(#p6fc714aa51)" style="fill: #5088c5"/>
   </g>
   <g id="patch_12">
    <path d="M 218.990769 174.528 
L 236.16 174.528 
L 236.16 174.528 
L 218.990769 174.528 
z
" clip-path="url(#p6fc714aa51)" style="fill: #5088c5"/>
   </g>
   <g id="patch_13">
    <path d="M 236.16 174.528 
L 253.329231 174.528 
L 253.329231 174.528 
L 236.16 174.528 
z
" clip-path="url(#p6fc714aa51)" style="fill: #5088c5"/>
   </g>
   <g id="patch_14">
    <path d="M 253.329231 174.528 
L 270.498462 174.528 
L 270.498462 174.528 
L 253.329231 174.528 
z
" clip-path="url(#p6fc714aa51)" style="fill: #5088c5"/>
   </g>
   <g id="patch_15">
    <path d="M 270.498462 174.528 
L 287.667692 174.528 
L 287.667692 174.528 
L 270.498462 174.528 
z
" clip-path="url(#p6fc714aa51)" style="fill: #5088c5"/>
   </g>
   <g id="patch_16">
    <path d="M 287.667692 174.528 
L 304.836923 174.528 
L 304.836923 174.528 
L 287.667692 174.528 
z
" clip-path="url(#p6fc714aa51)" style="fill: #5088c5"/>
   </g>
   <g id="patch_17">
    <path d="M 304.836923 174.528 
L 322.006154 174.528 
L 322.006154 174.528 
L 304.836923 174.528 
z
" clip-path="url(#p6fc714aa51)" style="fill: #5088c5"/>
   </g>
   <g id="patch_18">
    <path d="M 322.006154 174.528 
L 339.175385 174.528 
L 339.175385 174.528 
L 322.006154 174.528 
z
" clip-path="url(#p6fc714aa51)" style="fill: #5088c5"/>
   </g>
   <g id="patch_19">
    <path d="M 339.175385 174.528 
L 356.344615 174.528 
L 356.344615 174.528 
L 339.175385 174.528 
z
" clip-path="url(#p6fc714aa51)" style="fill: #5088c5"/>
   </g>
   <g id="patch_20">
    <path d="M 356.344615 174.528 
L 373.513846 174.528 
L 373.513846 174.528 
L 356.344615 174.528 
z
" clip-path="url(#p6fc714aa51)" style="fill: #5088c5"/>
   </g>
   <g id="patch_21">
    <path d="M 373.513846 174.528 
L 390.683077 174.528 
L 390.683077 174.528 
L 373.513846 174.528 
z
" clip-path="url(#p6fc714aa51)" style="fill: #5088c5"/>
   </g>
   <g id="patch_22">
    <path d="M 390.683077 174.528 
L 407.852308 174.528 
L 407.852308 174.528 
L 390.683077 174.528 
z
" clip-path="url(#p6fc714aa51)" style="fill: #5088c5"/>
   </g>
   <g id="matplotlib.axis_1">
    <g id="xtick_1">
     <g id="line2d_1">
      <defs>
       <path id="mfb7b4d9c33" d="M 0 0 
L 0 5 
" style="stroke: #262626; stroke-width: 0.75"/>
      </defs>
      <g>
       <use xlink:href="#mfb7b4d9c33" x="64.467692" y="307.584" style="fill: #262626; stroke: #262626; stroke-width: 0.75"/>
      </g>
     </g>
     <g id="text_1">
      <text style="fill: #262626; font: 14.5px &quot;Suisse Int&apos;l&quot;; text-anchor: middle" x="64.467692" y="328.0965" transform="rotate(-0, 64.467692, 328.0965)">0.0</text>
     </g>
    </g>
    <g id="xtick_2">
     <g id="line2d_2">
      <g>
       <use xlink:href="#mfb7b4d9c33" x="133.144615" y="307.584" style="fill: #262626; stroke: #262626; stroke-width: 0.75"/>
      </g>
     </g>
     <g id="text_2">
      <text style="fill: #262626; font: 14.5px &quot;Suisse Int&apos;l&quot;; text-anchor: middle" x="133.144615" y="328.0965" transform="rotate(-0, 133.144615, 328.0965)">0.2</text>
     </g>
    </g>
    <g id="xtick_3">
     <g id="line2d_3">
      <g>
       <use xlink:href="#mfb7b4d9c33" x="201.821538" y="307.584" style="fill: #262626; stroke: #262626; stroke-width: 0.75"/>
      </g>
     </g>
     <g id="text_3">
      <text style="fill: #262626; font: 14.5px &quot;Suisse Int&apos;l&quot;; text-anchor: middle" x="201.821538" y="328.0965" transform="rotate(-0, 201.821538, 328.0965)">0.4</text>
     </g>
    </g>
    <g id="xtick_4">
     <g id="line2d_4">
      <g>
       <use xlink:href="#mfb7b4d9c33" x="270.498462" y="307.584" style="fill: #262626; stroke: #262626; stroke-width: 0.75"/>
      </g>
     </g>
     <g id="text_4">
      <text style="fill: #262626; font: 14.5px &quot;Suisse Int&apos;l&quot;; text-anchor: middle" x="270.498462" y="328.0965" transform="rotate(-0, 270.498462, 328.0965)">0.6</text>
     </g>
    </g>
    <g id="xtick_5">
     <g id="line2d_5">
      <g>
       <use xlink:href="#mfb7b4d9c33" x="339.175385" y="307.584" style="fill: #262626; stroke: #262626; stroke-width: 0.75"/>
      </g>
     </g>
     <g id="text_5">
      <text style="fill: #262626; font: 14.5px &quot;Suisse Int&apos;l&quot;; text-anchor: middle" x="339.175385" y="328.0965" transform="rotate(-0, 339.175385, 328.0965)">0.8</text>
     </g>
    </g>
    <g id="xtick_6">
     <g id="line2d_6">
      <g>
       <use xlink:href="#mfb7b4d9c33" x="407.852308" y="307.584" style="fill: #262626; stroke: #262626; stroke-width: 0.75"/>
      </g>
     </g>
     <g id="text_6">
      <text style="fill: #262626; font: 14.5px &quot;Suisse Int&apos;l&quot;; text-anchor: middle" x="407.852308" y="328.0965" transform="rotate(-0, 407.852308, 328.0965)">1.0</text>
     </g>
    </g>
   </g>
   <g id="matplotlib.axis_2">
    <g id="ytick_1">
     <g id="line2d_7">
      <defs>
       <path id="m1a378c8c4d" d="M 0 0 
L -5 0 
" style="stroke: #262626; stroke-width: 0.75"/>
      </defs>
      <g>
       <use xlink:href="#m1a378c8c4d" x="57.6" y="276.878769" style="fill: #262626; stroke: #262626; stroke-width: 0.75"/>
      </g>
     </g>
     <g id="text_7">
      <text style="fill: #262626; font: 14.5px &quot;Suisse Int&apos;l&quot;; text-anchor: end" x="47.6" y="282.135019" transform="rotate(-0, 47.6, 282.135019)">−0.04</text>
     </g>
    </g>
    <g id="ytick_2">
     <g id="line2d_8">
      <g>
       <use xlink:href="#m1a378c8c4d" x="57.6" y="225.703385" style="fill: #262626; stroke: #262626; stroke-width: 0.75"/>
      </g>
     </g>
     <g id="text_8">
      <text style="fill: #262626; font: 14.5px &quot;Suisse Int&apos;l&quot;; text-anchor: end" x="47.6" y="230.959635" transform="rotate(-0, 47.6, 230.959635)">−0.02</text>
     </g>
    </g>
    <g id="ytick_3">
     <g id="line2d_9">
      <g>
       <use xlink:href="#m1a378c8c4d" x="57.6" y="174.528" style="fill: #262626; stroke: #262626; stroke-width: 0.75"/>
      </g>
     </g>
     <g id="text_9">
      <text style="fill: #262626; font: 14.5px &quot;Suisse Int&apos;l&quot;; text-anchor: end" x="47.6" y="179.78425" transform="rotate(-0, 47.6, 179.78425)">0.00</text>
     </g>
    </g>
    <g id="ytick_4">
     <g id="line2d_10">
      <g>
       <use xlink:href="#m1a378c8c4d" x="57.6" y="123.352615" style="fill: #262626; stroke: #262626; stroke-width: 0.75"/>
      </g>
     </g>
     <g id="text_10">
      <text style="fill: #262626; font: 14.5px &quot;Suisse Int&apos;l&quot;; text-anchor: end" x="47.6" y="128.608865" transform="rotate(-0, 47.6, 128.608865)">0.02</text>
     </g>
    </g>
    <g id="ytick_5">
     <g id="line2d_11">
      <g>
       <use xlink:href="#m1a378c8c4d" x="57.6" y="72.177231" style="fill: #262626; stroke: #262626; stroke-width: 0.75"/>
      </g>
     </g>
     <g id="text_11">
      <text style="fill: #262626; font: 14.5px &quot;Suisse Int&apos;l&quot;; text-anchor: end" x="47.6" y="77.433481" transform="rotate(-0, 47.6, 77.433481)">0.04</text>
     </g>
    </g>
   </g>
   <g id="patch_23">
    <path d="M 57.6 307.584 
L 57.6 41.472 
" style="fill: none; stroke: #000000; stroke-width: 0.75; stroke-linejoin: miter; stroke-linecap: square"/>
   </g>
   <g id="patch_24">
    <path d="M 57.6 307.584 
L 414.72 307.584 
" style="fill: none; stroke: #000000; stroke-width: 0.75; stroke-linejoin: miter; stroke-linecap: square"/>
   </g>
  </g>
 </g>
 <defs>
  <clipPath id="p6fc714aa51">
   <rect x="57.6" y="41.472" width="357.12" height="266.112"/>
  </clipPath>
 </defs>
</svg>
