<?xml version="1.0" encoding="utf-8" standalone="no"?>
<!DOCTYPE svg PUBLIC "-//W3C//DTD SVG 1.1//EN"
  "http://www.w3.org/Graphics/SVG/1.1/DTD/svg11.dtd">
<svg xmlns:xlink="http://www.w3.org/1999/xlink" width="460.8pt" height="345.6pt" viewBox="0 0 460.8 345.6" xmlns="http://www.w3.org/2000/svg" version="1.1">
 <metadata>
  <rdf:RDF xmlns:dc="http://purl.org/dc/elements/1.1/" xmlns:cc="http://creativecommons.org/ns#" xmlns:rdf="http://www.w3.org/1999/02/22-rdf-syntax-ns#">
   <cc:Work>
    <dc:type rdf:resource="http://purl.org/dc/dcmitype/StillImage"/>
    <dc:date>2025-07-14T13:38:16.922087</dc:date>
    <dc:format>image/svg+xml</dc:format>
    <dc:creator>
     <cc:Agent>
      <dc:title>Matplotlib v3.5.1, https://matplotlib.org/</dc:title>
     </cc:Agent>
    </dc:creator>
   </cc:Work>
  </rdf:RDF>
 </metadata>
 <defs>
  <style type="text/css">*{stroke-linejoin: round; stroke-linecap: butt}</style>
 </defs>
 <g id="figure_1">
  <g id="patch_1">
   <path d="M 0 345.6 
L 460.8 345.6 
L 460.8 0 
L 0 0 
L 0 345.6 
z
" style="fill: none"/>
  </g>
  <g id="axes_1">
   <g id="patch_2">
    <path d="M 57.6 307.584 
L 414.72 307.584 
L 414.72 41.472 
L 57.6 41.472 
L 57.6 307.584 
z
" style="fill: none"/>
   </g>
   <g id="patch_3">
    <path d="M 64.467692 307.584 
L 81.636923 307.584 
L 81.636923 46.689882 
L 64.467692 46.689882 
z
" clip-path="url(#p7f6af69676)" style="fill: #5088c5"/>
   </g>
   <g id="patch_4">
    <path d="M 81.636923 307.584 
L 98.806156 307.584 
L 98.806156 220.619294 
L 81.636923 220.619294 
z
" clip-path="url(#p7f6af69676)" style="fill: #5088c5"/>
   </g>
   <g id="patch_5">
    <path d="M 98.80615 307.584 
L 115.975379 307.584 
L 115.975379 259.270275 
L 98.80615 259.270275 
z
" clip-path="url(#p7f6af69676)" style="fill: #5088c5"/>
   </g>
   <g id="patch_6">
    <path d="M 115.975389 307.584 
L 133.144618 307.584 
L 133.144618 297.921255 
L 115.975389 297.921255 
z
" clip-path="url(#p7f6af69676)" style="fill: #5088c5"/>
   </g>
   <g id="patch_7">
    <path d="M 133.144612 307.584 
L 150.313846 307.584 
L 150.313846 297.921255 
L 133.144612 297.921255 
z
" clip-path="url(#p7f6af69676)" style="fill: #5088c5"/>
   </g>
   <g id="patch_8">
    <path d="M 150.313846 307.584 
L 167.483069 307.584 
L 167.483069 307.584 
L 150.313846 307.584 
z
" clip-path="url(#p7f6af69676)" style="fill: #5088c5"/>
   </g>
   <g id="patch_9">
    <path d="M 167.483058 307.584 
L 184.652292 307.584 
L 184.652292 297.921255 
L 167.483058 297.921255 
z
" clip-path="url(#p7f6af69676)" style="fill: #5088c5"/>
   </g>
   <g id="patch_10">
    <path d="M 184.652302 307.584 
L 201.821525 307.584 
L 201.821525 307.584 
L 184.652302 307.584 
z
" clip-path="url(#p7f6af69676)" style="fill: #5088c5"/>
   </g>
   <g id="patch_11">
    <path d="M 201.821525 307.584 
L 218.990759 307.584 
L 218.990759 297.921255 
L 201.821525 297.921255 
z
" clip-path="url(#p7f6af69676)" style="fill: #5088c5"/>
   </g>
   <g id="patch_12">
    <path d="M 218.990748 307.584 
L 236.159982 307.584 
L 236.159982 307.584 
L 218.990748 307.584 
z
" clip-path="url(#p7f6af69676)" style="fill: #5088c5"/>
   </g>
   <g id="patch_13">
    <path d="M 236.160003 307.584 
L 253.329216 307.584 
L 253.329216 307.584 
L 236.160003 307.584 
z
" clip-path="url(#p7f6af69676)" style="fill: #5088c5"/>
   </g>
   <g id="patch_14">
    <path d="M 253.329216 307.584 
L 270.498439 307.584 
L 270.498439 307.584 
L 253.329216 307.584 
z
" clip-path="url(#p7f6af69676)" style="fill: #5088c5"/>
   </g>
   <g id="patch_15">
    <path d="M 270.498439 307.584 
L 287.667683 307.584 
L 287.667683 307.584 
L 270.498439 307.584 
z
" clip-path="url(#p7f6af69676)" style="fill: #5088c5"/>
   </g>
   <g id="patch_16">
    <path d="M 287.667704 307.584 
L 304.836927 307.584 
L 304.836927 307.584 
L 287.667704 307.584 
z
" clip-path="url(#p7f6af69676)" style="fill: #5088c5"/>
   </g>
   <g id="patch_17">
    <path d="M 304.836906 307.584 
L 322.006129 307.584 
L 322.006129 307.584 
L 304.836906 307.584 
z
" clip-path="url(#p7f6af69676)" style="fill: #5088c5"/>
   </g>
   <g id="patch_18">
    <path d="M 322.006129 307.584 
L 339.175373 307.584 
L 339.175373 307.584 
L 322.006129 307.584 
z
" clip-path="url(#p7f6af69676)" style="fill: #5088c5"/>
   </g>
   <g id="patch_19">
    <path d="M 339.175394 307.584 
L 356.344617 307.584 
L 356.344617 307.584 
L 339.175394 307.584 
z
" clip-path="url(#p7f6af69676)" style="fill: #5088c5"/>
   </g>
   <g id="patch_20">
    <path d="M 356.344596 307.584 
L 373.513819 307.584 
L 373.513819 307.584 
L 356.344596 307.584 
z
" clip-path="url(#p7f6af69676)" style="fill: #5088c5"/>
   </g>
   <g id="patch_21">
    <path d="M 373.513819 307.584 
L 390.683063 307.584 
L 390.683063 307.584 
L 373.513819 307.584 
z
" clip-path="url(#p7f6af69676)" style="fill: #5088c5"/>
   </g>
   <g id="patch_22">
    <path d="M 390.683085 307.584 
L 407.852308 307.584 
L 407.852308 297.921255 
L 390.683085 297.921255 
z
" clip-path="url(#p7f6af69676)" style="fill: #5088c5"/>
   </g>
   <g id="matplotlib.axis_1">
    <g id="xtick_1">
     <g id="line2d_1">
      <defs>
       <path id="m5380fe64e3" d="M 0 0 
L 0 5 
" style="stroke: #262626; stroke-width: 0.75"/>
      </defs>
      <g>
       <use xlink:href="#m5380fe64e3" x="59.821277" y="307.584" style="fill: #262626; stroke: #262626; stroke-width: 0.75"/>
      </g>
     </g>
     <g id="text_1">
      <text style="fill: #262626; font: 14.5px &quot;Suisse Int&apos;l&quot;; text-anchor: middle" x="59.821277" y="328.0965" transform="rotate(-0, 59.821277, 328.0965)">0</text>
     </g>
    </g>
    <g id="xtick_2">
     <g id="line2d_2">
      <g>
       <use xlink:href="#m5380fe64e3" x="115.743546" y="307.584" style="fill: #262626; stroke: #262626; stroke-width: 0.75"/>
      </g>
     </g>
     <g id="text_2">
      <text style="fill: #262626; font: 14.5px &quot;Suisse Int&apos;l&quot;; text-anchor: middle" x="115.743546" y="328.0965" transform="rotate(-0, 115.743546, 328.0965)">5</text>
     </g>
    </g>
    <g id="xtick_3">
     <g id="line2d_3">
      <g>
       <use xlink:href="#m5380fe64e3" x="171.665815" y="307.584" style="fill: #262626; stroke: #262626; stroke-width: 0.75"/>
      </g>
     </g>
     <g id="text_3">
      <text style="fill: #262626; font: 14.5px &quot;Suisse Int&apos;l&quot;; text-anchor: middle" x="171.665815" y="328.0965" transform="rotate(-0, 171.665815, 328.0965)">10</text>
     </g>
    </g>
    <g id="xtick_4">
     <g id="line2d_4">
      <g>
       <use xlink:href="#m5380fe64e3" x="227.588085" y="307.584" style="fill: #262626; stroke: #262626; stroke-width: 0.75"/>
      </g>
     </g>
     <g id="text_4">
      <text style="fill: #262626; font: 14.5px &quot;Suisse Int&apos;l&quot;; text-anchor: middle" x="227.588085" y="328.0965" transform="rotate(-0, 227.588085, 328.0965)">15</text>
     </g>
    </g>
    <g id="xtick_5">
     <g id="line2d_5">
      <g>
       <use xlink:href="#m5380fe64e3" x="283.510354" y="307.584" style="fill: #262626; stroke: #262626; stroke-width: 0.75"/>
      </g>
     </g>
     <g id="text_5">
      <text style="fill: #262626; font: 14.5px &quot;Suisse Int&apos;l&quot;; text-anchor: middle" x="283.510354" y="328.0965" transform="rotate(-0, 283.510354, 328.0965)">20</text>
     </g>
    </g>
    <g id="xtick_6">
     <g id="line2d_6">
      <g>
       <use xlink:href="#m5380fe64e3" x="339.432624" y="307.584" style="fill: #262626; stroke: #262626; stroke-width: 0.75"/>
      </g>
     </g>
     <g id="text_6">
      <text style="fill: #262626; font: 14.5px &quot;Suisse Int&apos;l&quot;; text-anchor: middle" x="339.432624" y="328.0965" transform="rotate(-0, 339.432624, 328.0965)">25</text>
     </g>
    </g>
    <g id="xtick_7">
     <g id="line2d_7">
      <g>
       <use xlink:href="#m5380fe64e3" x="395.354893" y="307.584" style="fill: #262626; stroke: #262626; stroke-width: 0.75"/>
      </g>
     </g>
     <g id="text_7">
      <text style="fill: #262626; font: 14.5px &quot;Suisse Int&apos;l&quot;; text-anchor: middle" x="395.354893" y="328.0965" transform="rotate(-0, 395.354893, 328.0965)">30</text>
     </g>
    </g>
   </g>
   <g id="matplotlib.axis_2">
    <g id="ytick_1">
     <g id="line2d_8">
      <defs>
       <path id="mdc448dfcc8" d="M 0 0 
L -5 0 
" style="stroke: #262626; stroke-width: 0.75"/>
      </defs>
      <g>
       <use xlink:href="#mdc448dfcc8" x="57.6" y="307.584" style="fill: #262626; stroke: #262626; stroke-width: 0.75"/>
      </g>
     </g>
     <g id="text_8">
      <text style="fill: #262626; font: 14.5px &quot;Suisse Int&apos;l&quot;; text-anchor: end" x="47.6" y="312.84025" transform="rotate(-0, 47.6, 312.84025)">0</text>
     </g>
    </g>
    <g id="ytick_2">
     <g id="line2d_9">
      <g>
       <use xlink:href="#mdc448dfcc8" x="57.6" y="259.270275" style="fill: #262626; stroke: #262626; stroke-width: 0.75"/>
      </g>
     </g>
     <g id="text_9">
      <text style="fill: #262626; font: 14.5px &quot;Suisse Int&apos;l&quot;; text-anchor: end" x="47.6" y="264.526525" transform="rotate(-0, 47.6, 264.526525)">5</text>
     </g>
    </g>
    <g id="ytick_3">
     <g id="line2d_10">
      <g>
       <use xlink:href="#mdc448dfcc8" x="57.6" y="210.956549" style="fill: #262626; stroke: #262626; stroke-width: 0.75"/>
      </g>
     </g>
     <g id="text_10">
      <text style="fill: #262626; font: 14.5px &quot;Suisse Int&apos;l&quot;; text-anchor: end" x="47.6" y="216.212799" transform="rotate(-0, 47.6, 216.212799)">10</text>
     </g>
    </g>
    <g id="ytick_4">
     <g id="line2d_11">
      <g>
       <use xlink:href="#mdc448dfcc8" x="57.6" y="162.642824" style="fill: #262626; stroke: #262626; stroke-width: 0.75"/>
      </g>
     </g>
     <g id="text_11">
      <text style="fill: #262626; font: 14.5px &quot;Suisse Int&apos;l&quot;; text-anchor: end" x="47.6" y="167.899074" transform="rotate(-0, 47.6, 167.899074)">15</text>
     </g>
    </g>
    <g id="ytick_5">
     <g id="line2d_12">
      <g>
       <use xlink:href="#mdc448dfcc8" x="57.6" y="114.329098" style="fill: #262626; stroke: #262626; stroke-width: 0.75"/>
      </g>
     </g>
     <g id="text_12">
      <text style="fill: #262626; font: 14.5px &quot;Suisse Int&apos;l&quot;; text-anchor: end" x="47.6" y="119.585348" transform="rotate(-0, 47.6, 119.585348)">20</text>
     </g>
    </g>
    <g id="ytick_6">
     <g id="line2d_13">
      <g>
       <use xlink:href="#mdc448dfcc8" x="57.6" y="66.015373" style="fill: #262626; stroke: #262626; stroke-width: 0.75"/>
      </g>
     </g>
     <g id="text_13">
      <text style="fill: #262626; font: 14.5px &quot;Suisse Int&apos;l&quot;; text-anchor: end" x="47.6" y="71.271623" transform="rotate(-0, 47.6, 71.271623)">25</text>
     </g>
    </g>
   </g>
   <g id="patch_23">
    <path d="M 57.6 307.584 
L 57.6 41.472 
" style="fill: none; stroke: #000000; stroke-width: 0.75; stroke-linejoin: miter; stroke-linecap: square"/>
   </g>
   <g id="patch_24">
    <path d="M 57.6 307.584 
L 414.72 307.584 
" style="fill: none; stroke: #000000; stroke-width: 0.75; stroke-linejoin: miter; stroke-linecap: square"/>
   </g>
  </g>
 </g>
 <defs>
  <clipPath id="p7f6af69676">
   <rect x="57.6" y="41.472" width="357.12" height="266.112"/>
  </clipPath>
 </defs>
</svg>
